<svg xmlns="http://www.w3.org/2000/svg" xmlns:xlink="http://www.w3.org/1999/xlink" width="98" height="35.451" viewBox="0 0 98 35.451">
  <defs>
    <clipPath id="clip-path">
      <rect id="Rectangle_110" data-name="Rectangle 110" width="98" height="35.451" fill="none"/>
    </clipPath>
    <clipPath id="clip-path-3">
      <rect id="Rectangle_104" data-name="Rectangle 104" width="11.142" height="10.709" fill="none"/>
    </clipPath>
    <clipPath id="clip-path-4">
      <rect id="Rectangle_105" data-name="Rectangle 105" width="3.968" height="2.204" fill="none"/>
    </clipPath>
    <clipPath id="clip-path-5">
      <rect id="Rectangle_106" data-name="Rectangle 106" width="5.952" height="7.666" fill="none"/>
    </clipPath>
    <clipPath id="clip-path-6">
      <rect id="Rectangle_107" data-name="Rectangle 107" width="4.446" height="3.287" fill="none"/>
    </clipPath>
    <clipPath id="clip-path-7">
      <rect id="Rectangle_108" data-name="Rectangle 108" width="5.316" height="3.627" fill="none"/>
    </clipPath>
  </defs>
  <g id="Group_16151" data-name="Group 16151" clip-path="url(#clip-path)">
    <g id="Group_16150" data-name="Group 16150">
      <g id="Group_16149" data-name="Group 16149" clip-path="url(#clip-path)">
        <path id="Path_397" data-name="Path 397" d="M98,55.658c0,8.534-21.938,17.9-49,17.9S0,64.191,0,55.658s21.938-13,49-13,49,4.47,49,13" transform="translate(0 -38.106)" fill="#d3cfbc"/>
        <path id="Path_398" data-name="Path 398" d="M98,35.149C98,43.683,76.062,50.6,49,50.6S0,43.683,0,35.149,21.938,19.7,49,19.7s49,6.918,49,15.451" transform="translate(0 -17.598)" fill="#e8e3cd"/>
        <g id="Group_16136" data-name="Group 16136" transform="translate(2.374 15.006)" opacity="0.66">
          <g id="Group_16135" data-name="Group 16135">
            <g id="Group_16134" data-name="Group 16134" clip-path="url(#clip-path-3)">
              <path id="Path_399" data-name="Path 399" d="M22.5,144.312a7.511,7.511,0,0,0,1.761,2.77,14.755,14.755,0,0,0,7.456,4.284c.561.127,1.274.162,1.578-.325a1.007,1.007,0,0,0-.191-1.161,2.98,2.98,0,0,0-1.068-.655,21.313,21.313,0,0,1-5.1-2.83,7.793,7.793,0,0,1-2.97-4.876c-.129-1.011-.777-.969-1.3-.269a3.876,3.876,0,0,0-.165,3.063" transform="translate(-22.263 -140.739)" fill="#fff"/>
            </g>
          </g>
        </g>
        <g id="Group_16139" data-name="Group 16139" transform="translate(15.097 26.177)" opacity="0.66">
          <g id="Group_16138" data-name="Group 16138">
            <g id="Group_16137" data-name="Group 16137" clip-path="url(#clip-path-4)">
              <path id="Path_400" data-name="Path 400" d="M142.056,245.686c-.35-.071-.581.434-.413.749a1.443,1.443,0,0,0,.874.571l1.583.541a2.116,2.116,0,0,0,.773.16.719.719,0,0,0,.642-.393c.177-.429-.248-.861-.652-1.09a5.591,5.591,0,0,0-2.894-.718Z" transform="translate(-141.587 -245.504)" fill="#fff"/>
            </g>
          </g>
        </g>
        <g id="Group_16142" data-name="Group 16142" transform="translate(90.106 16.561)" opacity="0.66">
          <g id="Group_16141" data-name="Group 16141">
            <g id="Group_16140" data-name="Group 16140" clip-path="url(#clip-path-5)">
              <path id="Path_401" data-name="Path 401" d="M848.884,155.7a2.544,2.544,0,0,0-.4,1.22,6.376,6.376,0,0,1-1.419,3.566c-.638.654-1.553,1.084-1.92,1.921-.085.193-.1.474.086.563a.427.427,0,0,0,.248.014,4.419,4.419,0,0,0,2.231-1.3,14.25,14.25,0,0,0,2.967-4,2.474,2.474,0,0,0,.35-1.333,1.28,1.28,0,0,0-2.139-.657" transform="translate(-845.079 -155.323)" fill="#fff"/>
            </g>
          </g>
        </g>
        <path id="Path_402" data-name="Path 402" d="M375.663,38.3a4.655,4.655,0,0,0-2,1.624,2.068,2.068,0,0,0,.1,2.431c.958,1.014,3,.562,3.655,1.8.347.656.084,1.453.1,2.2.029,1.834,1.824,3.236,3.636,3.519a13.713,13.713,0,0,0,5.415-.708,30.441,30.441,0,0,1,9.008-1.107c1.707.088,3.4.388,5.113.377a7.715,7.715,0,0,0,4.821-1.441,4.11,4.11,0,0,0,1.43-4.563,4.526,4.526,0,0,0-2.876-2.381,19.127,19.127,0,0,0-3.8-.609c-4.388-.5-8.609-1.956-13.007-2.384-3.728-.363-8.173-.443-11.593,1.251" transform="translate(-333.512 -32.91)" fill="#fffbee"/>
        <path id="Path_403" data-name="Path 403" d="M395.594,153.03a18.88,18.88,0,0,0-6.733,1.638,3.425,3.425,0,0,0-1.4,1.175,3.119,3.119,0,0,0,0,2.756c1.054,2.55,3.8,4.051,6.531,4.474s5.5-.028,8.248-.288c8.7-.822,17.773.25,25.964-2.8,2.7-1.008,5.476-2.737,6.229-5.522a3.258,3.258,0,0,0-.468-2.969c-1.14-1.312-3.211-.912-4.936-.7a47.081,47.081,0,0,1-7.918-.162,66.717,66.717,0,0,0-13.409,1.058c-4.005.638-8.064.871-12.113,1.34" transform="translate(-345.864 -134.509)" fill="#fffbee"/>
        <path id="Path_404" data-name="Path 404" d="M375.284,83.031c-.365-.689-1.165-.852-1.967-1.039a1.639,1.639,0,0,0,.413.841,3.294,3.294,0,0,0,1.719.763,1.559,1.559,0,0,0-.165-.565" transform="translate(-333.512 -73.25)" fill="#fff3e1"/>
        <path id="Path_405" data-name="Path 405" d="M446.391,71.905a4.325,4.325,0,0,0-2.442-2.22,3.318,3.318,0,0,1,.341.624,4.109,4.109,0,0,1-1.43,4.563,7.714,7.714,0,0,1-4.821,1.441c-1.71.011-3.405-.289-5.113-.377a30.449,30.449,0,0,0-9.008,1.107,13.709,13.709,0,0,1-5.415.708,4.849,4.849,0,0,1-.986-.265,4.7,4.7,0,0,0,3.087,1.862,13.711,13.711,0,0,0,5.415-.709,30.442,30.442,0,0,1,9.008-1.107c1.707.088,3.4.388,5.113.377a7.717,7.717,0,0,0,4.821-1.441,4.109,4.109,0,0,0,1.43-4.563" transform="translate(-372.999 -62.255)" fill="#fff3e1"/>
        <path id="Path_406" data-name="Path 406" d="M446.111,153.29a2.687,2.687,0,0,0-1.672-.864,3.732,3.732,0,0,1,.039,2.236c-.753,2.785-3.526,4.514-6.229,5.522-8.191,3.055-17.26,1.983-25.964,2.8-2.747.26-5.521.711-8.248.288a10.388,10.388,0,0,1-3.266-1.073,9.286,9.286,0,0,0,5.368,2.67c2.726.423,5.5-.028,8.248-.288,8.7-.822,17.773.25,25.964-2.8,2.7-1.008,5.476-2.737,6.229-5.522a3.258,3.258,0,0,0-.468-2.969" transform="translate(-358.039 -136.174)" fill="#fff3e1"/>
        <path id="Path_407" data-name="Path 407" d="M454.969,31.593a9.558,9.558,0,0,1,5.062-.952,14.049,14.049,0,0,1,6.24,1.892,5.033,5.033,0,0,1,1.963,1.8,2.247,2.247,0,0,1-.139,2.523,3.256,3.256,0,0,1-2.16.82,45.876,45.876,0,0,1-8.906-.141c-1.306-.119-2.613-.255-3.9-.5-.584-.112-1.377-.324-1.5-1.018-.084-.493.389-1.1.588-1.542a6.181,6.181,0,0,1,2.747-2.876" transform="translate(-403.469 -27.354)" fill="#ffde3e"/>
        <path id="Path_408" data-name="Path 408" d="M468.5,39.981a5.034,5.034,0,0,0-1.963-1.8,14,14,0,0,0-3.119-1.345q.333.172.657.36A5.031,5.031,0,0,1,466.04,39a2.247,2.247,0,0,1-.139,2.523,3.256,3.256,0,0,1-2.16.82,45.874,45.874,0,0,1-8.905-.142c-.96-.087-1.92-.185-2.873-.328.227.529.912.709,1.433.809,1.288.248,2.595.384,3.9.5a45.876,45.876,0,0,0,8.906.142,3.256,3.256,0,0,0,2.16-.82,2.248,2.248,0,0,0,.139-2.523" transform="translate(-403.774 -32.911)" fill="#ffce33"/>
        <path id="Path_409" data-name="Path 409" d="M597.57,134.7a9.56,9.56,0,0,1,5.062-.952,14.049,14.049,0,0,1,6.24,1.892,5.031,5.031,0,0,1,1.963,1.8,2.247,2.247,0,0,1-.138,2.523,3.256,3.256,0,0,1-2.16.82,45.877,45.877,0,0,1-8.906-.141c-1.306-.119-2.613-.255-3.9-.5-.584-.112-1.377-.324-1.5-1.018-.084-.493.389-1.1.588-1.542a6.182,6.182,0,0,1,2.747-2.876" transform="translate(-530.865 -119.463)" fill="#ffde3e"/>
        <path id="Path_410" data-name="Path 410" d="M611.442,142.21a5.032,5.032,0,0,0-1.963-1.8,14,14,0,0,0-3.119-1.345q.333.172.657.36a5.032,5.032,0,0,1,1.963,1.8,2.247,2.247,0,0,1-.139,2.523,3.256,3.256,0,0,1-2.16.82,45.877,45.877,0,0,1-8.906-.142c-.96-.087-1.92-.185-2.873-.328.227.529.912.709,1.433.809,1.288.248,2.595.384,3.9.5a45.877,45.877,0,0,0,8.906.142,3.257,3.257,0,0,0,2.16-.82,2.248,2.248,0,0,0,.138-2.523" transform="translate(-531.473 -124.24)" fill="#ffce33"/>
        <g id="Group_16145" data-name="Group 16145" transform="translate(50.441 3.895)" opacity="0.44">
          <g id="Group_16144" data-name="Group 16144">
            <g id="Group_16143" data-name="Group 16143" clip-path="url(#clip-path-6)">
              <path id="Path_411" data-name="Path 411" d="M473.426,38.572a1.465,1.465,0,0,0-.325.519.592.592,0,0,0,.109.578.7.7,0,0,0,.723.094c.869-.3,1.248-1.321,1.979-1.88a5.355,5.355,0,0,1,1.263-.619.657.657,0,0,0,.267-.165.347.347,0,0,0,0-.43c-.355-.428-1.764.275-2.142.462a6.08,6.08,0,0,0-1.875,1.44" transform="translate(-473.071 -36.533)" fill="#fff"/>
            </g>
          </g>
        </g>
        <g id="Group_16148" data-name="Group 16148" transform="translate(66.188 15.075)" opacity="0.44">
          <g id="Group_16147" data-name="Group 16147">
            <g id="Group_16146" data-name="Group 16146" clip-path="url(#clip-path-7)">
              <path id="Path_412" data-name="Path 412" d="M621.39,142.969a1.507,1.507,0,0,0-.622,1.186,1.118,1.118,0,0,0,1.3.839,2.521,2.521,0,0,0,1.42-.934,7.733,7.733,0,0,1,1.185-1.261c.358-.26.78-.423,1.136-.687.158-.117.316-.3.25-.488-.114-.32-.745-.225-1-.24a3.608,3.608,0,0,0-1.292.218,6.426,6.426,0,0,0-2.376,1.366" transform="translate(-620.762 -141.381)" fill="#fff"/>
            </g>
          </g>
        </g>
        <path id="Path_413" data-name="Path 413" d="M67.152,9.988a11.28,11.28,0,0,1-3.32-3.313,4.737,4.737,0,0,1-.308-4.513A4.479,4.479,0,0,1,67.424,0a7.915,7.915,0,0,1,4.367,1.468,37.714,37.714,0,0,1,3.623,2.952c3.539,3.02,7.709,5.49,12.309,6.184,4.266.643,8.605-.271,12.919-.2a7.585,7.585,0,0,1,2.9.482,3.12,3.12,0,0,1,1.894,2.127,3.035,3.035,0,0,1-.82,2.549,6.334,6.334,0,0,1-2.312,1.5c-4.3,1.792-9.14,1.442-13.654.895a49.917,49.917,0,0,1-14.3-3.85,40.577,40.577,0,0,1-7.2-4.115" transform="translate(-56.358 0)" fill="#c96d5b"/>
        <path id="Path_414" data-name="Path 414" d="M104.721,25.686a6.952,6.952,0,0,1-2.006,1.194c-4.3,1.792-9.14,1.442-13.655.895a49.922,49.922,0,0,1-14.3-3.85,40.584,40.584,0,0,1-7.2-4.115,11.281,11.281,0,0,1-3.32-3.313,5.713,5.713,0,0,1-.4-.835,3.529,3.529,0,0,0-.319.492,4.737,4.737,0,0,0,.308,4.513,11.281,11.281,0,0,0,3.32,3.313,40.587,40.587,0,0,0,7.2,4.115,49.918,49.918,0,0,0,14.3,3.85c4.514.547,9.359.9,13.655-.895a6.335,6.335,0,0,0,2.312-1.5,3.035,3.035,0,0,0,.82-2.549,2.659,2.659,0,0,0-.718-1.319" transform="translate(-56.358 -13.992)" fill="#b76353"/>
        <path id="Path_415" data-name="Path 415" d="M75.006,53.729a8.181,8.181,0,0,0,.682,3.588c2.136,5.5,6.757,9.774,12,12.473s11.105,3.968,16.942,4.818a20.215,20.215,0,0,0,4.942.279A7.557,7.557,0,0,0,114.067,73a3.632,3.632,0,0,0,1.184-3.556,4.659,4.659,0,0,0-2.983-2.538,40.931,40.931,0,0,0-10.325-2.155,41.277,41.277,0,0,1-10.328-2.144,13.86,13.86,0,0,1-7.763-6.794c-.465-1.034-.756-2.141-1.235-3.168a4.865,4.865,0,0,0-2.226-2.477c-2.451-1.116-5.183,1.107-5.384,3.561" transform="translate(-66.993 -44.554)" fill="#d87960"/>
        <path id="Path_416" data-name="Path 416" d="M115.465,106.758a3.012,3.012,0,0,0-.86-1.3,4.488,4.488,0,0,1-1.06,1.556,7.557,7.557,0,0,1-4.492,1.887,20.218,20.218,0,0,1-4.942-.279c-5.837-.85-11.7-2.118-16.943-4.817-5.216-2.684-9.813-6.927-11.965-12.381a8.718,8.718,0,0,0,.7,3.208c2.136,5.5,6.757,9.773,12,12.473s11.105,3.967,16.942,4.817a20.214,20.214,0,0,0,4.942.279,7.557,7.557,0,0,0,4.492-1.887,3.632,3.632,0,0,0,1.184-3.556" transform="translate(-67.184 -81.676)" fill="#b76353"/>
        <path id="Path_417" data-name="Path 417" d="M107.216,93.5c.073-.342.579-.808.806-1.064a7.566,7.566,0,0,1,1.054-.988,6.52,6.52,0,0,1,2.527-1.127c-.724-1.045-1.952-.226-2.674.379a5.082,5.082,0,0,0-1.713,2.8" transform="translate(-95.784 -80.241)" fill="#b76353"/>
        <path id="Path_418" data-name="Path 418" d="M124.566,125.489c.073-.342.579-.808.806-1.064a7.568,7.568,0,0,1,1.054-.988,6.52,6.52,0,0,1,2.527-1.127c-.724-1.045-1.952-.226-2.674.379a5.082,5.082,0,0,0-1.713,2.8" transform="translate(-111.284 -108.82)" fill="#b76353"/>
        <path id="Path_419" data-name="Path 419" d="M168.662,164.726c.073-.342.579-.808.806-1.064a7.569,7.569,0,0,1,1.054-.988,6.519,6.519,0,0,1,2.527-1.127c-.724-1.045-1.952-.226-2.674.379a5.082,5.082,0,0,0-1.713,2.8" transform="translate(-150.678 -143.874)" fill="#b76353"/>
        <path id="Path_420" data-name="Path 420" d="M230.831,184.555a3.43,3.43,0,0,1,.47-1.25,7.568,7.568,0,0,1,.729-1.247,6.521,6.521,0,0,1,2.1-1.8c-.992-.8-1.935.339-2.455,1.125a5.082,5.082,0,0,0-.846,3.172" transform="translate(-206.206 -160.797)" fill="#b76353"/>
        <path id="Path_421" data-name="Path 421" d="M305.289,200.132a3.43,3.43,0,0,1,.47-1.25,7.579,7.579,0,0,1,.729-1.247,6.522,6.522,0,0,1,2.1-1.8c-.991-.8-1.935.339-2.455,1.125a5.082,5.082,0,0,0-.846,3.172" transform="translate(-272.725 -174.713)" fill="#b76353"/>
        <path id="Path_422" data-name="Path 422" d="M379.131,213.43a3.431,3.431,0,0,1,.226-1.316,7.559,7.559,0,0,1,.481-1.363,6.52,6.52,0,0,1,1.724-2.164c-1.124-.595-1.836.7-2.2,1.568a5.082,5.082,0,0,0-.232,3.274" transform="translate(-338.554 -186.212)" fill="#b76353"/>
        <path id="Path_423" data-name="Path 423" d="M99.378,9.616a3.585,3.585,0,0,0-.445,2.689,4.429,4.429,0,0,1,4.093-3.7,5.853,5.853,0,0,1-1.186-.385,1.048,1.048,0,0,0-.82,0,3.493,3.493,0,0,0-1.642,1.39" transform="translate(-88.302 -7.272)" fill="#b76353"/>
        <path id="Path_424" data-name="Path 424" d="M147.637,41.082a2.288,2.288,0,0,0,.173,1.654,2.964,2.964,0,0,1,.474-1.685,1.834,1.834,0,0,1,1.144-.761c.167-.03.6.067.678-.118.07-.161-.333-.468-.452-.534-.882-.488-1.81.7-2.017,1.444" transform="translate(-131.823 -35.309)" fill="#b76353"/>
        <path id="Path_425" data-name="Path 425" d="M191.329,72.753a2.288,2.288,0,0,0,.173,1.654,2.964,2.964,0,0,1,.474-1.685,1.833,1.833,0,0,1,1.144-.761c.167-.03.6.067.678-.118.07-.161-.333-.468-.452-.534-.882-.488-1.81.7-2.017,1.444" transform="translate(-170.856 -63.604)" fill="#b76353"/>
        <path id="Path_426" data-name="Path 426" d="M254.221,101.857a2.288,2.288,0,0,0,.173,1.654,2.964,2.964,0,0,1,.474-1.685,1.833,1.833,0,0,1,1.144-.761c.167-.03.6.067.678-.118.07-.161-.333-.468-.452-.534-.882-.488-1.81.7-2.017,1.444" transform="translate(-227.042 -89.605)" fill="#b76353"/>
        <path id="Path_427" data-name="Path 427" d="M321.833,104.835a2.287,2.287,0,0,0,.584,1.557,2.964,2.964,0,0,1,.034-1.75,1.834,1.834,0,0,1,.915-1.025c.154-.071.6-.086.626-.285.027-.174-.44-.369-.572-.4-.977-.25-1.576,1.131-1.588,1.905" transform="translate(-287.517 -91.928)" fill="#b76353"/>
        <path id="Path_428" data-name="Path 428" d="M373.178,109.895a2.287,2.287,0,0,0,.584,1.557,2.964,2.964,0,0,1,.034-1.75,1.834,1.834,0,0,1,.915-1.025c.154-.071.6-.086.627-.285.027-.174-.44-.369-.572-.4-.977-.25-1.576,1.131-1.588,1.905" transform="translate(-333.388 -96.448)" fill="#b76353"/>
      </g>
    </g>
  </g>
</svg>
