<svg xmlns="http://www.w3.org/2000/svg" xmlns:xlink="http://www.w3.org/1999/xlink" width="98.446" height="36.209" viewBox="0 0 98.446 36.209">
  <defs>
    <clipPath id="clip-path">
      <rect id="Rectangle_655" data-name="Rectangle 655" width="11.192" height="10.758" fill="none"/>
    </clipPath>
    <clipPath id="clip-path-2">
      <rect id="Rectangle_656" data-name="Rectangle 656" width="3.986" height="2.214" fill="none"/>
    </clipPath>
    <clipPath id="clip-path-3">
      <rect id="Rectangle_657" data-name="Rectangle 657" width="5.979" height="7.701" fill="none"/>
    </clipPath>
    <clipPath id="clip-path-4">
      <rect id="Rectangle_1159" data-name="Rectangle 1159" width="11.553" height="11.968" fill="none"/>
    </clipPath>
    <clipPath id="clip-path-5">
      <rect id="Rectangle_1160" data-name="Rectangle 1160" width="63.124" height="18.27" fill="none"/>
    </clipPath>
    <clipPath id="clip-path-6">
      <rect id="Rectangle_1161" data-name="Rectangle 1161" width="18.696" height="12.253" fill="none"/>
    </clipPath>
    <clipPath id="clip-path-7">
      <rect id="Rectangle_1162" data-name="Rectangle 1162" width="44.745" height="18.98" fill="none"/>
    </clipPath>
    <clipPath id="clip-path-8">
      <rect id="Rectangle_1163" data-name="Rectangle 1163" width="5.912" height="6.525" fill="none"/>
    </clipPath>
    <clipPath id="clip-path-9">
      <rect id="Rectangle_1164" data-name="Rectangle 1164" width="6.778" height="4.901" fill="none"/>
    </clipPath>
    <clipPath id="clip-path-10">
      <rect id="Rectangle_1165" data-name="Rectangle 1165" width="6.426" height="4.634" fill="none"/>
    </clipPath>
    <clipPath id="clip-path-11">
      <rect id="Rectangle_1166" data-name="Rectangle 1166" width="6.136" height="4.269" fill="none"/>
    </clipPath>
    <clipPath id="clip-path-12">
      <rect id="Rectangle_1167" data-name="Rectangle 1167" width="1.557" height="2.765" fill="none"/>
    </clipPath>
    <clipPath id="clip-path-13">
      <rect id="Rectangle_1168" data-name="Rectangle 1168" width="5.528" height="3.884" fill="none"/>
    </clipPath>
    <clipPath id="clip-path-14">
      <rect id="Rectangle_1169" data-name="Rectangle 1169" width="3.953" height="3.068" fill="none"/>
    </clipPath>
    <clipPath id="clip-path-15">
      <rect id="Rectangle_1170" data-name="Rectangle 1170" width="8.928" height="8.308" fill="none"/>
    </clipPath>
    <clipPath id="clip-path-16">
      <rect id="Rectangle_1171" data-name="Rectangle 1171" width="7.177" height="6.739" fill="none"/>
    </clipPath>
    <clipPath id="clip-path-17">
      <rect id="Rectangle_1172" data-name="Rectangle 1172" width="1.094" height="1.131" fill="none"/>
    </clipPath>
    <clipPath id="clip-path-18">
      <rect id="Rectangle_1173" data-name="Rectangle 1173" width="1.764" height="1.148" fill="none"/>
    </clipPath>
    <clipPath id="clip-path-19">
      <rect id="Rectangle_1174" data-name="Rectangle 1174" width="7.406" height="5.58" fill="none"/>
    </clipPath>
    <clipPath id="clip-path-20">
      <rect id="Rectangle_1175" data-name="Rectangle 1175" width="6.87" height="4.935" fill="none"/>
    </clipPath>
    <clipPath id="clip-path-21">
      <rect id="Rectangle_1176" data-name="Rectangle 1176" width="2.481" height="2.142" fill="none"/>
    </clipPath>
    <clipPath id="clip-path-22">
      <rect id="Rectangle_1177" data-name="Rectangle 1177" width="40.766" height="4.672" fill="none"/>
    </clipPath>
  </defs>
  <g id="Group_19272" data-name="Group 19272" transform="translate(-20.859 -691.964)">
    <path id="Path_4699" data-name="Path 4699" d="M98.446,55.717c0,8.572-22.038,17.981-49.223,17.981S0,64.289,0,55.717,22.038,42.654,49.223,42.654s49.223,4.49,49.223,13.063" transform="translate(20.859 654.475)" fill="#d3cfbc"/>
    <path id="Path_4700" data-name="Path 4700" d="M98.446,35.22c0,8.572-22.038,15.522-49.223,15.522S0,43.792,0,35.22,22.038,19.7,49.223,19.7,98.446,26.647,98.446,35.22" transform="translate(20.859 674.972)" fill="#e8e3cd"/>
    <g id="Group_19250" data-name="Group 19250" transform="translate(23.243 707.635)" opacity="0.66">
      <g id="Group_17695" data-name="Group 17695">
        <g id="Group_17694" data-name="Group 17694" clip-path="url(#clip-path)">
          <path id="Path_2528" data-name="Path 2528" d="M22.5,144.328a7.545,7.545,0,0,0,1.769,2.783,14.822,14.822,0,0,0,7.49,4.3c.563.128,1.28.163,1.585-.327a1.012,1.012,0,0,0-.192-1.167,2.994,2.994,0,0,0-1.073-.658,21.41,21.41,0,0,1-5.122-2.843,7.829,7.829,0,0,1-2.984-4.9c-.129-1.015-.781-.974-1.309-.271a3.894,3.894,0,0,0-.166,3.077" transform="translate(-22.263 -140.739)" fill="#fff"/>
        </g>
      </g>
    </g>
    <g id="Group_19251" data-name="Group 19251" transform="translate(36.024 718.856)" opacity="0.66">
      <g id="Group_17698" data-name="Group 17698">
        <g id="Group_17697" data-name="Group 17697" clip-path="url(#clip-path-2)">
          <path id="Path_2529" data-name="Path 2529" d="M142.058,245.687c-.351-.072-.583.436-.415.753a1.45,1.45,0,0,0,.878.574l1.59.543a2.126,2.126,0,0,0,.777.16.723.723,0,0,0,.645-.395c.178-.431-.249-.865-.655-1.095a5.616,5.616,0,0,0-2.907-.721Z" transform="translate(-141.587 -245.504)" fill="#fff"/>
        </g>
      </g>
    </g>
    <g id="Group_19252" data-name="Group 19252" transform="translate(111.375 709.197)" opacity="0.66">
      <g id="Group_17701" data-name="Group 17701">
        <g id="Group_17700" data-name="Group 17700" clip-path="url(#clip-path-3)">
          <path id="Path_2530" data-name="Path 2530" d="M848.9,155.7a2.558,2.558,0,0,0-.406,1.225,6.4,6.4,0,0,1-1.426,3.582c-.641.657-1.56,1.089-1.928,1.929-.085.194-.105.476.087.565a.429.429,0,0,0,.249.014,4.439,4.439,0,0,0,2.241-1.3,14.314,14.314,0,0,0,2.98-4.015,2.485,2.485,0,0,0,.352-1.339,1.285,1.285,0,0,0-2.149-.66" transform="translate(-845.079 -155.323)" fill="#fff"/>
        </g>
      </g>
    </g>
    <path id="Path_4701" data-name="Path 4701" d="M58.709,32.447a1.14,1.14,0,0,1,.148-1.162c.292-.485.487-.629.293-1.162s-.191-1.018-.917-1.455-2.178-1.216-2.758-1.6-2.664-.248-3.246-.249-1.548-1.262-2.128-1.845a21.911,21.911,0,0,0-2.806-1.993,18.62,18.62,0,0,0-4.018-1.85c-.726-.194-1.6-1.505-2.03-2.378A11.421,11.421,0,0,0,38.54,15.4a2.074,2.074,0,0,1-.446-.491c.011.114.025.238.045.374a5.6,5.6,0,0,1-.442,3.9,1.266,1.266,0,0,0,.237,1.784,7.359,7.359,0,0,1,1.151,2.844c.334,1.3.286,1.061,1.248,1.447a8.931,8.931,0,0,1,2.551,1.5,1.578,1.578,0,0,0,1.444.724c1.011.1,3.177,1.357,5.968,2.856,2.7,1.449,4.948,3.166,6.836,3.717a3.446,3.446,0,0,0,.8-.352c.486-.339.922-.773.778-1.259" transform="translate(-1.077 683.699)" fill="#782221"/>
    <path id="Path_4702" data-name="Path 4702" d="M61.134,21.205c1.211-.288,3.49-1.059,6.69-1.78s5.429-1.491,8.966-1.58,5.523.69,7.992,1.324,4.89,1.609,6.778,2.243a12.327,12.327,0,0,1,4.113,2.139c.484.534.773,1.31,1.453.779s.97-.919,2.084-.529,1.4.826,1.793-.141a12.542,12.542,0,0,0,.624-1.859,2.635,2.635,0,0,0-1.8-1.049c-1.028-.222-2.643-1.438-4.294-2.287S90.75,16.133,89.425,15.3s-1.655-1.828-3.145-3.788-1.268-2.476-2.037-3.73a5.616,5.616,0,0,0-2.838-2.077,11.458,11.458,0,0,0-2.937-1.211A15.937,15.937,0,0,0,73.8,4.051c-1.254.143-1.541-.292-2.313-.245-3.227-.006-11.756.314-19.031.733s-10.8,1.664-12.244,3.2c-1.329,1.411-1.8,1.447-1.69,2.706a2.074,2.074,0,0,0,.446.491,11.412,11.412,0,0,1,2.706,3.348c.434.873,1.3,2.183,2.03,2.378a18.62,18.62,0,0,1,4.018,1.85,21.925,21.925,0,0,1,2.806,1.993c.58.583,1.547,1.844,2.128,1.845s2.665-.139,3.246.249,2.032,1.168,2.758,1.6a1.9,1.9,0,0,1,.426.339c.04-.3.086-.738.109-1.355.051-1.308.73-1.694,1.942-1.982" transform="translate(-1.502 688.162)" fill="#af522e"/>
    <path id="Path_4703" data-name="Path 4703" d="M136.817,41.294a11.482,11.482,0,0,1,1.653-2.758,1.687,1.687,0,0,0,.3-1c-.285.141-.661-.141-1.412-.4-1.114-.39-1.406,0-2.085.529a.541.541,0,0,1-.738.059,1.154,1.154,0,0,1-.33.568c-.485.386-.873.678-.632,1.21s.338.583.045,1.164a2.317,2.317,0,0,0,.226,2.157c1.332.087,1.917.224,2.542.186a1.877,1.877,0,0,1,.281-.545c.293-.339.05-.58.148-1.162" transform="translate(-39.65 674.835)" fill="#84654a"/>
    <path id="Path_4704" data-name="Path 4704" d="M141.86,34.061c-.035-.058-.071-.114-.108-.168a12.561,12.561,0,0,1-.624,1.858c-.127.315-.243.479-.38.546a1.688,1.688,0,0,1-.3,1,11.482,11.482,0,0,0-1.654,2.758c-.1.582.145.824-.147,1.163a1.87,1.87,0,0,0-.281.545,3.537,3.537,0,0,0,.5-.067c.882-.182,1.179-1.542,1.291-2.055s.552-.733,1.214-1.063.663-.954.739-1.836a5.3,5.3,0,0,0-.252-2.683" transform="translate(-41.626 676.072)" fill="#a78d6a"/>
    <path id="Path_4705" data-name="Path 4705" d="M74.513,34.072a4.008,4.008,0,0,1,2.037-1.353,7.865,7.865,0,0,0,2.426-1.5,4.834,4.834,0,0,1,2.764-1.059c1.018-.191,2.208-.823,2.861-.915a45.469,45.469,0,0,1,6.1-.133c1.5-.045,3.44-.041,4.7.01a60.207,60.207,0,0,1,7.943,1.615,36.627,36.627,0,0,0,4.543,1.169,17.514,17.514,0,0,0-2.508-1.068c-1.889-.634-4.309-1.609-6.779-2.243s-4.455-1.414-7.991-1.324-5.768.86-8.967,1.58-5.478,1.491-6.69,1.78-1.89.674-1.942,1.982c-.024.617-.069,1.059-.11,1.356a2.467,2.467,0,0,1,.461,1.021,4.2,4.2,0,0,0,1.149-.919" transform="translate(-15.324 678.734)" fill="#a78d6a"/>
    <path id="Path_4706" data-name="Path 4706" d="M108.474,34.19a6.6,6.6,0,0,0-1.6-1.071,36.519,36.519,0,0,1-4.543-1.169,60.292,60.292,0,0,0-7.943-1.615c-1.259-.051-3.2-.055-4.7-.01a45.471,45.471,0,0,0-6.1.133c-.653.092-1.842.723-2.861.915a4.828,4.828,0,0,0-2.764,1.06,7.869,7.869,0,0,1-2.426,1.5,4,4,0,0,0-2.037,1.353,4.2,4.2,0,0,1-1.149.919c.011.032.02.063.032.1.194.534,0,.678-.293,1.162a1.139,1.139,0,0,0-.148,1.162c.145.485-.292.92-.778,1.259a3.42,3.42,0,0,1-.8.352c.063.018.128.039.191.054,1.927.486,1.928-.574,2.7-1.632.623-.855,2.221-2.26,5.6-4.132a21.364,21.364,0,0,1,12.1-1.951,38.848,38.848,0,0,1,11.653,3.2c2.215,1.113,2.886,2.463,4.184,3.574s1.685.775,1.685.775l.032,0a2.316,2.316,0,0,1-.225-2.157c.292-.58.2-.629-.046-1.164s.147-.824.632-1.21a1.16,1.16,0,0,0,.329-.568,7.363,7.363,0,0,1-.714-.838" transform="translate(-14.301 677.524)" fill="#d6c3a2"/>
    <g id="Group_19253" data-name="Group 19253" transform="translate(41.416 704.283)" style="mix-blend-mode: multiply;isolation: isolate">
      <g id="Group_19186" data-name="Group 19186">
        <g id="Group_19185" data-name="Group 19185" clip-path="url(#clip-path-4)">
          <path id="Path_4709" data-name="Path 4709" d="M45.883,24.4l2.744,7.156c.066.027.137.055.208.085l-2.41-6.8a2.466,2.466,0,0,1-.541-.439" transform="translate(-45.883 -24.396)" fill="#82300b"/>
          <path id="Path_4710" data-name="Path 4710" d="M60.9,34.122l2.264,5.965.306.184L61.255,34.39a2.66,2.66,0,0,1-.355-.268" transform="translate(-51.917 -28.304)" fill="#82300b"/>
        </g>
      </g>
    </g>
    <path id="Path_4707" data-name="Path 4707" d="M135.786,38.423s-1.139.519-1.26,1.028.145.869-.057,1.244.021.392-.175.856c-.175.415-.231,1.178.492,1.2s1.017-.184,1.365-.05a.423.423,0,0,0,.537-.588,1.421,1.421,0,0,1,.258-1.512,4.558,4.558,0,0,0,1.154-1.751c.121-.6-.453-1.139-2.314-.433" transform="translate(-39.945 674.386)" fill="#6c4a30"/>
    <g id="Group_19254" data-name="Group 19254" transform="translate(37.001 694.434)" opacity="0.3">
      <g id="Group_19189" data-name="Group 19189">
        <g id="Group_19188" data-name="Group 19188" clip-path="url(#clip-path-5)">
          <path id="Path_4712" data-name="Path 4712" d="M99.826,22.413c-1.028-.222-2.643-1.438-4.3-2.287s-4.781-2.334-6.107-3.167-1.655-1.828-3.144-3.788-1.269-2.476-2.037-3.73c-.016-.028-.034-.052-.051-.078a10.731,10.731,0,0,1,.523,1.889c.14.607-.117.768-.339,1.8s.254,1.286.914,2.1.219.846-1.582,1.027-1.949.252-2.648.656-1.065.3-2.733.619a7.16,7.16,0,0,1-3.526-.276c-1.077-.223-3.233-.227-3.479.066s-.246.417-1.324.537-1.3.635-2.182.756-1.935.24-3.455.459a14,14,0,0,0-2.989.507,10.8,10.8,0,0,1-3.112.729c-.662-.05-.857-.05-.663.488s-.441.44-1.152.121a14.311,14.311,0,0,0-3.085-.889c-.979-.149-1.1-.149-1.664-.762A3.258,3.258,0,0,0,50.082,18.1a24.286,24.286,0,0,0-4.21-1.306,5.309,5.309,0,0,1-3.06-1.06,10.852,10.852,0,0,1-1.769-2.177c-.346-.477-.361-.644-.674-.759s-.346-.413-.759-.793c-.642-.592.444-1.42,1.769-2.837.533-.57.9-.964,1.144-1.233A6.563,6.563,0,0,0,40.208,9.4c-1.328,1.411-1.8,1.447-1.689,2.706a2.048,2.048,0,0,0,.446.491,11.431,11.431,0,0,1,2.706,3.348c.434.873,1.3,2.183,2.03,2.378a18.633,18.633,0,0,1,4.018,1.85,21.911,21.911,0,0,1,2.806,1.993c.581.583,1.547,1.844,2.128,1.845s2.665-.139,3.246.249,2.032,1.168,2.758,1.6a1.892,1.892,0,0,1,.425.339c.041-.3.086-.738.11-1.356.051-1.308.73-1.694,1.942-1.982s3.491-1.06,6.69-1.78,5.43-1.491,8.967-1.58,5.522.69,7.991,1.324,4.89,1.609,6.779,2.243a12.344,12.344,0,0,1,4.114,2.139c.483.534.773,1.31,1.452.779s.97-.919,2.085-.529,1.4.826,1.793-.142a12.581,12.581,0,0,0,.623-1.858,2.631,2.631,0,0,0-1.8-1.049" transform="translate(-38.503 -7.932)" fill="#ffaa73"/>
        </g>
      </g>
    </g>
    <path id="Path_4708" data-name="Path 4708" d="M107.411,24.448a9.268,9.268,0,0,1,3.046.261,8.263,8.263,0,0,0,2.188.446,16.025,16.025,0,0,1,2.561.578c.561.254,1.253.563,1.427.431s-.39-1.046-1.821-1.766a10.877,10.877,0,0,1-2.146-1.529c-.385-.368-.753-.534-1.12-.185a1.3,1.3,0,0,1-.919.218c-.238.019-.423.239-.882.421a2.834,2.834,0,0,1-1.029.292,4.089,4.089,0,0,0-1.159.383c-.459.165-1.3.256-.145.45" transform="translate(-28.955 680.652)" fill="#d6c3a2"/>
    <path id="Path_4709-2" data-name="Path 4709" d="M120.581,21.056a7.114,7.114,0,0,1,2.13,1.8,2.919,2.919,0,0,0,2.2,1.125,12.891,12.891,0,0,1,3.206.583,24.9,24.9,0,0,1,3.5,1.257,5.391,5.391,0,0,1,1.907,1.376c.034-.118.064-.235.09-.351a2.631,2.631,0,0,0-1.8-1.049c-1.028-.222-2.643-1.438-4.294-2.287s-4.781-2.334-6.107-3.167-1.655-1.828-3.145-3.788l-.151-.2a7.07,7.07,0,0,1,.412,1.627,4.335,4.335,0,0,0,2.051,3.077" transform="translate(-33.491 683.12)" fill="#a78d6a"/>
    <g id="Group_19255" data-name="Group 19255" transform="translate(37.497 703.04)" style="mix-blend-mode: multiply;isolation: isolate">
      <g id="Group_19192" data-name="Group 19192">
        <g id="Group_19191" data-name="Group 19191" clip-path="url(#clip-path-6)">
          <path id="Path_4715" data-name="Path 4715" d="M40.021,24.155a3.194,3.194,0,0,1-.207-.794,3.549,3.549,0,0,0-.383-1.03.026.026,0,0,0-.033-.012c-.007-.006-.021.005-.029.017-.025.022-.046.056-.035.078s.011.022.016.033A3.974,3.974,0,0,0,40,24.5c.028.057.118-.041.114-.082a.925.925,0,0,0-.093-.264" transform="translate(-39.331 -22.318)" fill="#9d4014"/>
          <path id="Path_4716" data-name="Path 4716" d="M43.406,24.384a3.4,3.4,0,0,0-.45-.99c-.021-.027-.087.041-.063.072a1.648,1.648,0,0,1,.106.157c.069.26.045.514.106.787a1.775,1.775,0,0,0,.237.505c.051.089.114.245.215.288.026.012.06-.033.063-.054a1.746,1.746,0,0,0-.215-.766" transform="translate(-40.76 -22.748)" fill="#9d4014"/>
          <path id="Path_4717" data-name="Path 4717" d="M43.853,28.837a4.839,4.839,0,0,0-.711-1.394c-.022-.034-.087.031-.069.059.037.059.074.117.109.176.057.142.1.3.148.437.084.224.177.444.259.67s.123.489.215.727a2.791,2.791,0,0,0,.328.491c.022.035.075-.025.073-.053a9.529,9.529,0,0,0-.353-1.113" transform="translate(-40.833 -24.373)" fill="#9d4014"/>
          <path id="Path_4718" data-name="Path 4718" d="M47.328,31.172c-.1-.352-.139-.723-.254-1.067a11.282,11.282,0,0,0-.561-1.055,2.98,2.98,0,0,1-.388-.972c0-.031-.03-.023-.054,0,0-.022-.029,0-.032.014a4.123,4.123,0,0,0,.267,1.972,6.553,6.553,0,0,0,1.152,1.97c.03.044.1-.032.094-.067a4.923,4.923,0,0,0-.224-.792" transform="translate(-42.004 -24.624)" fill="#9d4014"/>
          <path id="Path_4719" data-name="Path 4719" d="M52.8,32.587c-.121-.29-.266-.572-.38-.863-.013-.035-.064.026-.064.047a.458.458,0,0,0,.007.062c-.007.008-.014.019-.011.025a5.7,5.7,0,0,0,.641,1.57c.025.032.079-.044.078-.066a2.569,2.569,0,0,0-.27-.775" transform="translate(-44.56 -26.093)" fill="#9d4014"/>
          <path id="Path_4720" data-name="Path 4720" d="M56.108,37.305a5.48,5.48,0,0,1-.352-.887,4.294,4.294,0,0,0-.41-.749,3.362,3.362,0,0,0-.2-.292c-.066-.087-.19-.117-.247-.205-.027-.043-.1.035-.086.073s.016.046.051.065a.024.024,0,0,0-.008.019,8.018,8.018,0,0,0,1.424,2.635c.025.035.091-.047.087-.074a1.719,1.719,0,0,0-.264-.586" transform="translate(-45.552 -27.478)" fill="#9d4014"/>
          <path id="Path_4721" data-name="Path 4721" d="M58.813,35.15a4.662,4.662,0,0,0-.322-.727c-.13-.22-.288-.416-.429-.629a2.226,2.226,0,0,0-.252-.368c-.033-.032-.11.056-.08.092l.029.039a4.809,4.809,0,0,0,.478,1.236c.137.207.26.419.39.629a6.8,6.8,0,0,1,.4.614c.025.051.1-.04.093-.078a6.419,6.419,0,0,0-.309-.808" transform="translate(-46.721 -26.778)" fill="#9d4014"/>
          <path id="Path_4722" data-name="Path 4722" d="M65.413,40.495c-.2-.371-.392-.757-.578-1.137a7.193,7.193,0,0,1-.44-.87c-.013-.037-.086.029-.074.063s.022.062.034.093a2.483,2.483,0,0,0,.345,1,2.126,2.126,0,0,0,.656.911c.025.014.071-.032.057-.057" transform="translate(-49.371 -28.81)" fill="#9d4014"/>
          <path id="Path_4723" data-name="Path 4723" d="M68.494,40.413a6.736,6.736,0,0,1-.516-.977c-.011-.037-.084.028-.075.063l.014.041a1.264,1.264,0,0,0,.229.839c.19.349.388.723.606,1.054.025.039.08-.028.078-.057a2.936,2.936,0,0,0-.336-.962" transform="translate(-50.811 -29.191)" fill="#9d4014"/>
          <path id="Path_4724" data-name="Path 4724" d="M70.153,39.119a1.632,1.632,0,0,1-.116-.282,1.455,1.455,0,0,0-.264-.483c-.022-.026-.068.038-.062.06a.019.019,0,0,0,0,.011,1.683,1.683,0,0,0,.444.936c.028.03.081-.042.08-.068a.483.483,0,0,0-.079-.175" transform="translate(-51.537 -28.759)" fill="#9d4014"/>
        </g>
      </g>
    </g>
    <g id="Group_19256" data-name="Group 19256" transform="translate(40.247 692.151)" style="mix-blend-mode: multiply;isolation: isolate">
      <g id="Group_19195" data-name="Group 19195">
        <g id="Group_19194" data-name="Group 19194" clip-path="url(#clip-path-7)">
          <path id="Path_4725" data-name="Path 4725" d="M49.932,13.665a1.288,1.288,0,0,1-.654.008,1.293,1.293,0,0,0-.4-.126c-.526-.028-.535.866-.595,1.175-.117.606-.783.724-1.262.926a1.739,1.739,0,0,0-.639.489h0c-.116.093-.225.2-.341.289-.263.206-.57.33-.835.529a3.534,3.534,0,0,0-1.095.965,1.274,1.274,0,0,0-.151.565,3.367,3.367,0,0,0,0,.943,1.037,1.037,0,0,0,.836.756c.035.005.071-.031.083-.06a.211.211,0,0,0,.01-.115c.007.02.016.038.022.056s.026-.01.023-.019a2.111,2.111,0,0,1-.172-.953c.05-.305.541-.392.775-.478a2.162,2.162,0,0,0,.412-.219,1.382,1.382,0,0,0,.485-.529,3.656,3.656,0,0,0,.164-.563c.1-.312.461-.288.707-.324a.492.492,0,0,0,.368-.258.932.932,0,0,0,.077-.284c.082-.416.413-.476.738-.461.192.008.494.06.65-.1a.969.969,0,0,0,.234-.663c.006-.079.011-.157.015-.236.023-.365.261-.357.5-.4a.536.536,0,0,0,.2-.084.563.563,0,0,0,.216-.447.376.376,0,0,0-.375-.387" transform="translate(-43.928 -7.905)" fill="#af522e"/>
          <path id="Path_4726" data-name="Path 4726" d="M61.257,4.895a3.075,3.075,0,0,1-1.186.032.773.773,0,0,0-.286.063c-.176.061-.354.082-.532.126a1.374,1.374,0,0,0-.654.236c-.245.242-.185.618-.6.759a2.741,2.741,0,0,0-1.327,1.083,7.762,7.762,0,0,1-.942,1.044,2.007,2.007,0,0,1-.746.45s-.01-.005-.022,0c-.3.116-.591.029-.66.407-.047.258.1.829.472.672a1.662,1.662,0,0,0,.18-.087.645.645,0,0,1,.772.058.339.339,0,0,0,.388-.028c.291-.173.24-.507.184-.8a.068.068,0,0,0,.009-.039c-.147-.628.928-1.085,1.368-1.359a8.342,8.342,0,0,0,1.378-.981c.168-.159.3-.488.483-.6a3.738,3.738,0,0,1,.954-.355,1.976,1.976,0,0,0,.2-.069h0a.7.7,0,0,0,.485-.371.819.819,0,0,0,.1-.215c.006-.02-.011-.032-.029-.025" transform="translate(-48.094 -4.428)" fill="#af522e"/>
          <path id="Path_4727" data-name="Path 4727" d="M56,14.683a.326.326,0,0,0-.126-.179c.014-.014.025-.035,0-.035a.365.365,0,0,1-.081-.011.523.523,0,0,0-.086-.035.029.029,0,0,0-.015,0,1.551,1.551,0,0,0-.362-.047c-.093,0-.148.118-.177.19a.715.715,0,0,0,.214.72c.153.187.418-.127.474-.24.046-.092.182-.266.154-.364" transform="translate(-48.425 -8.239)" fill="#af522e"/>
          <path id="Path_4728" data-name="Path 4728" d="M62.845,15.641c-.5.005-1.2-.165-1.631.2a.8.8,0,0,0-.221.366,1.8,1.8,0,0,1-.77.929c-.544.39-1.174.632-1.695,1.055-.217.176-.409.383-.617.571s-.521.283-.757.461a1.083,1.083,0,0,0-.5.977l-.008-.007c-.023-.03-.093.046-.077.077.187.355.849-.012,1.09-.092.142-.048.386-.071.472-.226a.431.431,0,0,0,.07-.19c.057-.282.272-.37.484-.5.276-.175.579-.314.87-.463a9.913,9.913,0,0,0,.937-.407c.167-.11.411-.22.5-.419a1.733,1.733,0,0,0,.044-.313,2.281,2.281,0,0,1,.5-.647h0a4.9,4.9,0,0,1,.88-.577c.291-.129.588.017.885-.055.191-.047.582-.2.574-.455-.013-.376-.807-.28-1.019-.278" transform="translate(-49.005 -8.732)" fill="#af522e"/>
          <path id="Path_4729" data-name="Path 4729" d="M68.468,13.173a1.69,1.69,0,0,0-.79.095c-.347.068-.7.108-1.047.172a.11.11,0,0,0-.063.084c-.087.133-.1.368.016.413.156.058.324-.071.46-.139a6.707,6.707,0,0,1,1.259-.372c.106-.029.416-.17.165-.252" transform="translate(-52.997 -7.744)" fill="#af522e"/>
          <path id="Path_4730" data-name="Path 4730" d="M76.74,4.131a7.066,7.066,0,0,1-1.5,0h-.016a.09.09,0,0,0-.053.036,2.261,2.261,0,0,0-1.381.9c-.1.149-.176.3-.272.452a1.744,1.744,0,0,1-.82.577,2.024,2.024,0,0,0-.676.427c-.3.32-.5.779-.91.975-.325.154-.7.163-1.033.315-.249.112-.507.4-.162.562a2.134,2.134,0,0,0,1-.021A8.385,8.385,0,0,0,72,8.186c.686-.173.68-.784,1.064-1.268A3.784,3.784,0,0,1,74.14,6.18,6.234,6.234,0,0,0,75,5.543c.559-.481,1.224-.814,1.74-1.341.016-.017.039-.072,0-.072" transform="translate(-54.302 -4.122)" fill="#af522e"/>
          <path id="Path_4731" data-name="Path 4731" d="M54.521,25.193l-.021-.1c0-.022-.021-.029-.041-.022q-.685.267-1.36.565a2.012,2.012,0,0,0-.864.632c-.215.307-.009.785.038,1.11.039.263.078.635.375.739a.286.286,0,0,0,.389-.147.673.673,0,0,0,.052-.322c-.013-.262-.254-.664-.039-.863a3.746,3.746,0,0,1,.552-.331,1.886,1.886,0,0,0,.366-.278,1.758,1.758,0,0,0,.447-.928.133.133,0,0,1,.013.025c.021.049.1-.038.092-.077" transform="translate(-47.227 -12.533)" fill="#af522e"/>
          <path id="Path_4732" data-name="Path 4732" d="M64.709,26.2a.917.917,0,0,0-.578.511,1.374,1.374,0,0,1-.663.778,3.792,3.792,0,0,1-.589.184,1.653,1.653,0,0,0-.837.446.8.8,0,0,0-.172.328c-.025.1-.052.2-.077.294-.089.351-.344.383-.615.4-.391.028-1.711-.259-1.8.393a1.835,1.835,0,0,0,.275.977c.209.454.343.939.569,1.385-.005.014,0,.022.01.023l.011.022c.027.051.092-.026.1-.05a.3.3,0,0,1,.014-.028c.02-.042,0-.052-.024-.046a.631.631,0,0,0,.074-.638,7.4,7.4,0,0,1-.249-.814c-.058-.428.78-.43,1.019-.455a2.551,2.551,0,0,0,1.21-.4,4.754,4.754,0,0,0,.862-.881A3.339,3.339,0,0,1,64.62,27.5a2.275,2.275,0,0,0,.931-.422c.52-.489-.381-1.012-.842-.876" transform="translate(-50.132 -12.982)" fill="#af522e"/>
          <path id="Path_4733" data-name="Path 4733" d="M74.786,19.153c-.327-.185-.5.02-.595.318a6.759,6.759,0,0,1-1.1,1.573,1.53,1.53,0,0,1-1.063.674,3.15,3.15,0,0,0-.83.208c-.2.1-.188.256-.112.409-.017.023-.026.049-.01.064a.607.607,0,0,0,.094.071.838.838,0,0,0,.054.072c.007.01.028-.009.032-.023a.961.961,0,0,0,.946-.209c.253-.194.49-.407.743-.6s.571-.354.846-.551.468-.459.76-.639a2.677,2.677,0,0,0,.54-.413c.339-.351.048-.751-.3-.95" transform="translate(-54.819 -10.129)" fill="#af522e"/>
          <path id="Path_4734" data-name="Path 4734" d="M79.682,18.946a.318.318,0,0,0-.167.016c-.1.028-.193.044-.289.066a2.44,2.44,0,0,0-.5.184c0-.007,0-.015.009-.019s.043-.081,0-.063c-.245.1-.028.333.063.473.055.084.189.24.309.215.145-.028.2-.144.295-.251.077-.087.567-.491.281-.621" transform="translate(-57.868 -10.072)" fill="#af522e"/>
          <path id="Path_4735" data-name="Path 4735" d="M88.768,4.119c-.23.111-.486.044-.725.123a5.759,5.759,0,0,0-.856.382c-.306.16-.6.368-.89.553a1.24,1.24,0,0,0-.444.37.1.1,0,0,0-.011.035,7.672,7.672,0,0,1-.581.733,9.207,9.207,0,0,0-.994.782,2.152,2.152,0,0,0-.36.888,2.269,2.269,0,0,1-.267.594c-.069.115-.02.245-.075.366a1.889,1.889,0,0,0-.806-.039,4.11,4.11,0,0,0-.726.366,18.7,18.7,0,0,0-1.425,1.238c-.309.238-.629.463-.954.679a.976.976,0,0,0-.336.327.274.274,0,0,0,.029.334c.23.19.488.082.59.381-.032.009-.072.058-.06.086s.013.053.02.08a.019.019,0,0,0,.015.021.565.565,0,0,0,.354-.12,6.337,6.337,0,0,0,.745-.5c.481-.409.863-.933,1.32-1.369A6.114,6.114,0,0,1,83,9.948a5.058,5.058,0,0,1,.962-.623c.377-.159.282-.31.385-.684a.865.865,0,0,0,.014-.215.9.9,0,0,1,.272-.62,8.154,8.154,0,0,1,.748-.648c.355-.3.546-.7.943-.977.5-.34,1-.678,1.506-1A2.558,2.558,0,0,0,88.8,4.162c.012-.023,0-.057-.031-.043" transform="translate(-58.131 -4.115)" fill="#af522e"/>
          <path id="Path_4736" data-name="Path 4736" d="M71.586,11.912c-.017-.062-.141-.03-.177-.023-.13.026-.273,0-.381.078-.014-.007-.039.015-.045.025-.129.2.461.267.563.065a.206.206,0,0,0,.039-.144" transform="translate(-54.791 -7.233)" fill="#af522e"/>
          <path id="Path_4737" data-name="Path 4737" d="M78.154,17.553a.335.335,0,0,0-.284.156.085.085,0,0,0,.031.108c.033.025.092,0,.12-.022l0,0a.423.423,0,0,0,.187-.089c.08-.068.049-.151-.056-.15" transform="translate(-57.563 -9.515)" fill="#af522e"/>
          <path id="Path_4738" data-name="Path 4738" d="M90.307,9.2a1.064,1.064,0,0,0-.7.072c-.293.1-.68.227-.7.583,0,.02.014.021.031.011.068.355.418.3.692.129a6.035,6.035,0,0,1,.755-.382.282.282,0,0,0,.171-.177c.028-.126-.173-.2-.257-.236" transform="translate(-62.004 -6.145)" fill="#af522e"/>
          <path id="Path_4739" data-name="Path 4739" d="M85.846,21.41a1.2,1.2,0,0,0-.625.421c-.319.448-.261,1.044-.684,1.43a11.557,11.557,0,0,1-1.283.842c-.412.285-.785.62-1.171.939a18.179,18.179,0,0,0-2.324,1.81,1.162,1.162,0,0,0-.33,1.222.019.019,0,0,0-.01,0c-.048-.006-.121.1-.069.109s.089.011.132.013l.012.028c.01.017.036-.006.039-.025a1.607,1.607,0,0,0,1.455-.788,7.561,7.561,0,0,1,.869-1.1,6.092,6.092,0,0,1,1.434-.8,7.2,7.2,0,0,0,2.378-1.738c.318-.379.6-.783.932-1.152.222-.249.744-.58.82-.924.12-.54-1.336-.361-1.576-.29" transform="translate(-58.154 -11.03)" fill="#af522e"/>
          <path id="Path_4740" data-name="Path 4740" d="M91.339,18.114a2.458,2.458,0,0,0-1.122.108c-.188.048-.507.091-.605.292a.3.3,0,0,0-.031.241,2.815,2.815,0,0,1,.126.379c.035.208-.179.322-.308.418a.548.548,0,0,0-.19.2l-.008,0c-.019-.007-.059.041-.039.051l.035.016a.182.182,0,0,0,.051.108c.022.023.074-.023.083-.058a1.418,1.418,0,0,0,.737-.008.515.515,0,0,0,.244-.193.466.466,0,0,0,.067-.112A.96.96,0,0,1,90.913,19c.291-.108,1.108-.715.426-.882" transform="translate(-62.101 -9.727)" fill="#af522e"/>
          <path id="Path_4741" data-name="Path 4741" d="M92.946,20.018c-.019,0-.042.022-.056.044-.042,0-.087-.008-.129-.01a1.152,1.152,0,0,0-.3.035c-.11.02-.258.022-.34.115-.193.221.232.342.354.44.2.162.412-.247.513-.333.143-.121.2-.287-.044-.291" transform="translate(-63.273 -10.505)" fill="#af522e"/>
          <path id="Path_4742" data-name="Path 4742" d="M95.753,16.3a.362.362,0,0,0-.159-.061l-.1-.007a.229.229,0,0,1-.257-.08A.423.423,0,0,0,95.485,16c.108-.139,0-.529-.175-.57a1.478,1.478,0,0,0-.589.06,3,3,0,0,0-.687.119c-.03.011-.1.108-.035.108h.019l.01,0c-.006.106-.029.236.03.307,0,.008.016,0,.023,0,.136-.035.291.057.407.036-.083.014-.172.014-.256.026a.216.216,0,0,0-.171.1c-.007.011-.02.035-.011.049.062.092.148.085.256.094a.9.9,0,0,0,.208-.024c.033,0,.068-.005.1-.01.095-.028.1.014.026.124-.245.031-.5-.053-.558.254s.038.7.411.662a2.757,2.757,0,0,0,.686-.268,2.084,2.084,0,0,0,.463-.229c.107-.078.292-.445.112-.541" transform="translate(-64.035 -8.655)" fill="#af522e"/>
          <path id="Path_4743" data-name="Path 4743" d="M104.21,6.168c-.154-.071-.307-.15-.457-.231.025-.023.05-.071.01-.069l-.038,0a.051.051,0,0,0-.03.018,3.651,3.651,0,0,0-1.163.622,8.72,8.72,0,0,0-1.13.912c-.387.388-.574.906-1.1,1.152a3.928,3.928,0,0,0-1.065.5c-.364.322-.282.876-.782,1.1a9.346,9.346,0,0,0-1.169.392.631.631,0,0,0,.219,1.2.981.981,0,0,0,.8-.227.792.792,0,0,0,.2-.287c.172-.336.211-.617.556-.852.4-.269.887-.364,1.289-.632a6.778,6.778,0,0,0,.881-.924,5.127,5.127,0,0,1,1.519-.874,13.489,13.489,0,0,0,1.466-.843,1.322,1.322,0,0,0,.543-.458c.128-.253-.392-.434-.548-.506" transform="translate(-65.221 -4.82)" fill="#af522e"/>
          <path id="Path_4744" data-name="Path 4744" d="M113.2,14.912a.019.019,0,0,0-.006-.008c.01-.022,0-.044-.025-.02a5.425,5.425,0,0,0-.81.839c-.262.342-.4.737-.631,1.1a2.889,2.889,0,0,1-1.3.851,6.909,6.909,0,0,0-1.1.623,13.075,13.075,0,0,0-1.616,1.92c-.087.094-.806.873-.266.709a3.315,3.315,0,0,0,.99-.639,9.907,9.907,0,0,0,.947-.9c.715-.75,1.794-.944,2.641-1.514a3.791,3.791,0,0,1,.615-.379,4.843,4.843,0,0,1,.653-.186,1.129,1.129,0,0,0,.748-.464c.364-.611-.666-1.414-.835-1.927" transform="translate(-69.368 -8.438)" fill="#af522e"/>
          <path id="Path_4745" data-name="Path 4745" d="M106.107,23.467l-.039-.014c0-.008,0-.016-.011-.012l-.016,0a.624.624,0,0,0-.075,0c-.014,0-.032.016-.045.035a4.06,4.06,0,0,0-.522.13c-.214.081-.464.031-.669.134a.371.371,0,0,0-.106.572c.242.331.608-.007.867-.136a1.027,1.027,0,0,0,.629-.68.022.022,0,0,0-.013-.03" transform="translate(-68.279 -11.88)" fill="#af522e"/>
          <path id="Path_4746" data-name="Path 4746" d="M103.983,25.67c-.112-.212-.513-.124-.689-.108-.2.018-.467-.037-.627.09-.01-.006-.036.017-.035.031v0a.3.3,0,0,0-.044.055c-.038.068.025.074.061.035.067.23.242.31-.142.584a2.517,2.517,0,0,0-.383.361,2.227,2.227,0,0,1-.7.488.276.276,0,0,0-.143.167c-.045.276.234.361.461.317a1.119,1.119,0,0,0,.377-.209c.234-.161.479-.3.718-.452.339-.217.584-.566.9-.814.179-.139.367-.31.241-.547" transform="translate(-66.971 -12.72)" fill="#af522e"/>
        </g>
      </g>
    </g>
    <g id="Group_19257" data-name="Group 19257" transform="translate(40.714 697.91)" style="mix-blend-mode: multiply;isolation: isolate">
      <g id="Group_19198" data-name="Group 19198">
        <g id="Group_19197" data-name="Group 19197" clip-path="url(#clip-path-8)">
          <path id="Path_4747" data-name="Path 4747" d="M50.246,13.743l-.071.01c-1.218,1.17-2.348,2.426-3.624,3.537-.581.5-1.6,1.055-1.742,1.875-.053.31-.074.625-.1.94a1.114,1.114,0,0,0,.406.162c.035.005.071-.031.083-.06a.211.211,0,0,0,.01-.115c.007.02.016.038.022.056s.026-.01.023-.019a2.111,2.111,0,0,1-.172-.953c.05-.305.541-.392.775-.478a2.162,2.162,0,0,0,.412-.219,1.382,1.382,0,0,0,.485-.529,3.655,3.655,0,0,0,.164-.563c.1-.312.461-.288.707-.324a.492.492,0,0,0,.368-.258.931.931,0,0,0,.077-.284c.082-.416.413-.476.738-.461.192.008.494.06.65-.1a.969.969,0,0,0,.234-.663c.006-.079.011-.157.015-.236.023-.366.261-.357.5-.4a.536.536,0,0,0,.2-.084.564.564,0,0,0,.216-.447.376.376,0,0,0-.375-.387" transform="translate(-44.71 -13.741)" fill="#af522e"/>
        </g>
      </g>
    </g>
    <g id="Group_19258" data-name="Group 19258" transform="translate(46.662 692.616)" style="mix-blend-mode: multiply;isolation: isolate">
      <g id="Group_19201" data-name="Group 19201">
        <g id="Group_19200" data-name="Group 19200" clip-path="url(#clip-path-9)">
          <path id="Path_4748" data-name="Path 4748" d="M61.4,4.895a1.86,1.86,0,0,1-.7.068,66.346,66.346,0,0,0-6.045,4.78.254.254,0,0,0,.267.025,1.661,1.661,0,0,0,.18-.087.645.645,0,0,1,.772.058.339.339,0,0,0,.388-.028c.291-.173.24-.507.184-.8a.068.068,0,0,0,.009-.039c-.147-.628.928-1.085,1.368-1.359A8.342,8.342,0,0,0,59.2,6.53c.168-.159.3-.488.483-.6a3.738,3.738,0,0,1,.954-.355,1.975,1.975,0,0,0,.2-.069h0a.7.7,0,0,0,.485-.371.819.819,0,0,0,.1-.215c.006-.02-.011-.032-.029-.025" transform="translate(-54.652 -4.892)" fill="#af522e"/>
        </g>
      </g>
    </g>
    <g id="Group_19259" data-name="Group 19259" transform="translate(48.68 699.047)" style="mix-blend-mode: multiply;isolation: isolate">
      <g id="Group_19204" data-name="Group 19204">
        <g id="Group_19203" data-name="Group 19203" clip-path="url(#clip-path-10)">
          <path id="Path_4749" data-name="Path 4749" d="M63.464,15.655c-1.428,1.494-3.272,2.418-4.725,3.873-.242.242-.477.494-.713.748.086-.037.162-.069.217-.087.143-.048.386-.071.473-.226a.431.431,0,0,0,.07-.19c.057-.282.272-.37.484-.5.276-.175.578-.314.869-.463a9.78,9.78,0,0,0,.937-.407c.167-.11.411-.22.5-.419a1.681,1.681,0,0,0,.044-.313,2.272,2.272,0,0,1,.5-.647,4.9,4.9,0,0,1,.88-.577c.291-.129.588.017.885-.055.191-.047.582-.2.574-.455-.013-.361-.741-.288-.988-.279" transform="translate(-58.026 -15.643)" fill="#af522e"/>
        </g>
      </g>
    </g>
    <path id="Path_4710-2" data-name="Path 4710" d="M69.363,13.173a.7.7,0,0,0-.315-.014c-.109.126-.217.253-.323.381.157-.036.315-.071.473-.115.106-.029.416-.17.165-.252" transform="translate(-13.645 684.407)" fill="#af522e"/>
    <g id="Group_19260" data-name="Group 19260" transform="translate(56.574 692.161)" style="mix-blend-mode: multiply;isolation: isolate">
      <g id="Group_19207" data-name="Group 19207">
        <g id="Group_19206" data-name="Group 19206" clip-path="url(#clip-path-11)">
          <path id="Path_4751" data-name="Path 4751" d="M77.333,4.131c-.226.005-.463.026-.7.039-1.056.723-2.03,1.54-3.02,2.35-.782.64-1.61,1.236-2.39,1.88.1-.016.2-.033.285-.042A8.384,8.384,0,0,0,72.6,8.186c.686-.173.68-.784,1.064-1.268a3.783,3.783,0,0,1,1.073-.738,6.235,6.235,0,0,0,.863-.636c.559-.481,1.224-.814,1.74-1.341.016-.017.039-.072,0-.072" transform="translate(-71.222 -4.131)" fill="#af522e"/>
        </g>
      </g>
    </g>
    <g id="Group_19261" data-name="Group 19261" transform="translate(45.858 704.956)" style="mix-blend-mode: multiply;isolation: isolate">
      <g id="Group_19210" data-name="Group 19210">
        <g id="Group_19209" data-name="Group 19209" clip-path="url(#clip-path-12)">
          <path id="Path_4752" data-name="Path 4752" d="M54.515,25.819c-.563.45-1.284.911-1.2,1.757.025.244.063.476.079.711a.273.273,0,0,0,.113-.136.671.671,0,0,0,.052-.322c-.013-.261-.254-.663-.039-.863a3.746,3.746,0,0,1,.552-.331,1.888,1.888,0,0,0,.366-.278,1.686,1.686,0,0,0,.427-.836c-.115.1-.232.2-.351.3" transform="translate(-53.309 -25.521)" fill="#af522e"/>
        </g>
      </g>
    </g>
    <g id="Group_19262" data-name="Group 19262" transform="translate(50.295 705.511)" style="mix-blend-mode: multiply;isolation: isolate">
      <g id="Group_19213" data-name="Group 19213">
        <g id="Group_19212" data-name="Group 19212" clip-path="url(#clip-path-13)">
          <path id="Path_4753" data-name="Path 4753" d="M65.948,26.448c-.6.506-1.184,1.028-1.778,1.555a8.065,8.065,0,0,1-2.509,1.65c-.183.069-.376.122-.555.2a.682.682,0,0,0-.381.477c.129-.285.793-.288,1-.31a2.551,2.551,0,0,0,1.21-.4,4.776,4.776,0,0,0,.862-.882,3.341,3.341,0,0,1,1.367-1.126,2.275,2.275,0,0,0,.931-.422c.295-.277.133-.565-.148-.738" transform="translate(-60.725 -26.448)" fill="#af522e"/>
        </g>
      </g>
    </g>
    <g id="Group_19263" data-name="Group 19263" transform="translate(56.715 701.526)" style="mix-blend-mode: multiply;isolation: isolate">
      <g id="Group_19216" data-name="Group 19216">
        <g id="Group_19215" data-name="Group 19215" clip-path="url(#clip-path-14)">
          <path id="Path_4754" data-name="Path 4754" d="M74.9,20.155c-1.122.918-2.3,1.775-3.447,2.655a.979.979,0,0,0,.914-.22c.253-.194.49-.407.743-.6s.571-.353.846-.55.468-.459.76-.639a2.678,2.678,0,0,0,.54-.413.463.463,0,0,0,.073-.6q-.209.189-.428.368" transform="translate(-71.457 -19.787)" fill="#af522e"/>
        </g>
      </g>
    </g>
    <path id="Path_4711" data-name="Path 4711" d="M71.074,24.164c.012.011.025.019.036.029.309-.238.62-.475.93-.712l-.014,0a3.15,3.15,0,0,0-.83.208c-.2.1-.189.257-.113.409-.016.022-.026.049-.01.063" transform="translate(-14.572 680.255)" fill="#af522e"/>
    <g id="Group_19264" data-name="Group 19264" transform="translate(61.991 692.151)" style="mix-blend-mode: multiply;isolation: isolate">
      <g id="Group_19219" data-name="Group 19219">
        <g id="Group_19218" data-name="Group 19218" clip-path="url(#clip-path-15)">
          <path id="Path_4756" data-name="Path 4756" d="M89.171,4.119a.065.065,0,0,1-.016.007c-.857.667-1.7,1.346-2.53,2.047a11.909,11.909,0,0,0-1.666,1.619c-.353.443-.684.909-1.065,1.329a21.8,21.8,0,0,1-2.612,2.122c-.345.281-.67.584-.989.892a.446.446,0,0,1,.048.1c-.032.009-.072.058-.06.086s.013.053.02.08a.019.019,0,0,0,.015.021.565.565,0,0,0,.354-.12,6.336,6.336,0,0,0,.745-.5c.481-.409.863-.933,1.32-1.369a6.114,6.114,0,0,1,.672-.478,5.058,5.058,0,0,1,.962-.623c.377-.159.282-.31.385-.684a.866.866,0,0,0,.014-.215.9.9,0,0,1,.272-.62,8.154,8.154,0,0,1,.748-.648c.355-.3.546-.7.943-.977.5-.34,1-.678,1.506-1A2.558,2.558,0,0,0,89.2,4.162c.012-.023,0-.057-.03-.043" transform="translate(-80.278 -4.115)" fill="#af522e"/>
        </g>
      </g>
    </g>
    <g id="Group_19265" data-name="Group 19265" transform="translate(62.345 702.446)" style="mix-blend-mode: multiply;isolation: isolate">
      <g id="Group_19222" data-name="Group 19222">
        <g id="Group_19221" data-name="Group 19221" clip-path="url(#clip-path-16)">
          <path id="Path_4757" data-name="Path 4757" d="M87.092,21.329c0,.011,0,.022-.007.033-.834,3.159-5.145,3.9-6.215,6.7a2,2,0,0,0,.736-.654,7.493,7.493,0,0,1,.87-1.1,6.055,6.055,0,0,1,1.433-.8,7.2,7.2,0,0,0,2.378-1.738c.318-.379.6-.783.932-1.152.222-.249.744-.58.82-.924s-.471-.4-.947-.371" transform="translate(-80.87 -21.324)" fill="#af522e"/>
        </g>
      </g>
    </g>
    <g id="Group_19266" data-name="Group 19266" transform="translate(68.655 700.614)" style="mix-blend-mode: multiply;isolation: isolate">
      <g id="Group_19225" data-name="Group 19225">
        <g id="Group_19224" data-name="Group 19224" clip-path="url(#clip-path-17)">
          <path id="Path_4758" data-name="Path 4758" d="M92.428,18.263a1.74,1.74,0,0,0-1.01,1.131.832.832,0,0,1,.4-.325c.258-.1.924-.58.607-.806" transform="translate(-91.418 -18.263)" fill="#af522e"/>
        </g>
      </g>
    </g>
    <path id="Path_4712-2" data-name="Path 4712" d="M92.946,20.018c-.019,0-.042.022-.056.044-.042,0-.087-.008-.129-.01a1.152,1.152,0,0,0-.3.035c-.11.02-.258.022-.34.115-.193.221.232.342.354.44.2.162.412-.247.513-.333.143-.121.2-.287-.044-.291" transform="translate(-23.026 681.646)" fill="#af522e"/>
    <g id="Group_19267" data-name="Group 19267" transform="translate(70.276 699.687)" style="mix-blend-mode: multiply;isolation: isolate">
      <g id="Group_19228" data-name="Group 19228">
        <g id="Group_19227" data-name="Group 19227" clip-path="url(#clip-path-18)">
          <path id="Path_4760" data-name="Path 4760" d="M95.816,16.818a.362.362,0,0,0-.159-.061l-.1-.007a.233.233,0,0,1-.215-.038,13.391,13.391,0,0,1-1.218.631c-.01.276.111.55.428.514a2.757,2.757,0,0,0,.686-.268,2.084,2.084,0,0,0,.463-.229c.107-.078.292-.445.112-.541" transform="translate(-94.127 -16.712)" fill="#af522e"/>
        </g>
      </g>
    </g>
    <g id="Group_19268" data-name="Group 19268" transform="translate(72.397 693.538)" style="mix-blend-mode: multiply;isolation: isolate">
      <g id="Group_19231" data-name="Group 19231">
        <g id="Group_19230" data-name="Group 19230" clip-path="url(#clip-path-19)">
          <path id="Path_4761" data-name="Path 4761" d="M104.6,6.434a34.042,34.042,0,0,0-4.3,3.175c-.858.794-1.7,1.636-2.627,2.35A1,1,0,0,0,97.81,12a.983.983,0,0,0,.8-.227.794.794,0,0,0,.2-.287c.172-.335.211-.617.556-.852.4-.269.887-.364,1.289-.632a6.819,6.819,0,0,0,.881-.924,5.148,5.148,0,0,1,1.519-.874,13.33,13.33,0,0,0,1.466-.842,1.328,1.328,0,0,0,.543-.459c.109-.216-.254-.38-.459-.467" transform="translate(-97.674 -6.434)" fill="#af522e"/>
        </g>
      </g>
    </g>
    <g id="Group_19269" data-name="Group 19269" transform="translate(78.121 699.722)" style="mix-blend-mode: multiply;isolation: isolate">
      <g id="Group_19234" data-name="Group 19234">
        <g id="Group_19233" data-name="Group 19233" clip-path="url(#clip-path-20)">
          <path id="Path_4762" data-name="Path 4762" d="M110.134,19.214c-.812.56-1.61,1.151-2.407,1.74l-.02.022c-.087.094-.806.873-.266.709a3.315,3.315,0,0,0,.99-.639,9.979,9.979,0,0,0,.947-.9c.715-.75,1.794-.944,2.64-1.514a3.821,3.821,0,0,1,.616-.379,4.817,4.817,0,0,1,.653-.186,1.128,1.128,0,0,0,.748-.464.8.8,0,0,0-.11-.83c-1.235.843-2.551,1.585-3.792,2.442" transform="translate(-107.242 -16.772)" fill="#af522e"/>
        </g>
      </g>
    </g>
    <g id="Group_19270" data-name="Group 19270" transform="translate(74.818 704.992)" style="mix-blend-mode: multiply;isolation: isolate">
      <g id="Group_19237" data-name="Group 19237">
        <g id="Group_19236" data-name="Group 19236" clip-path="url(#clip-path-21)">
          <path id="Path_4763" data-name="Path 4763" d="M104.03,25.581a12.4,12.4,0,0,0-2.309,2.134.564.564,0,0,0,.2,0,1.119,1.119,0,0,0,.377-.209c.234-.162.479-.3.718-.452.339-.217.584-.566.9-.814.179-.14.367-.311.241-.547a.234.234,0,0,0-.132-.109" transform="translate(-101.721 -25.581)" fill="#af522e"/>
        </g>
      </g>
    </g>
    <g id="Group_19271" data-name="Group 19271" transform="translate(41.333 692.441)" style="mix-blend-mode: screen;isolation: isolate">
      <g id="Group_19240" data-name="Group 19240">
        <g id="Group_19239" data-name="Group 19239" clip-path="url(#clip-path-22)">
          <path id="Path_4764" data-name="Path 4764" d="M71.784,4.892A52.52,52.52,0,0,0,65.2,4.6a43.556,43.556,0,0,0-6.784.337,17.785,17.785,0,0,1-3.211.145,12.359,12.359,0,0,0-3.209.428c-1.16.278-2.325.559-3.458.936a12.983,12.983,0,0,0-2.743.959c-.045.028-.082.14,0,.1a7.36,7.36,0,0,1,1.481-.4c.484-.121.957-.29,1.432-.438a24.425,24.425,0,0,1,3.38-.675c2.087-.337,4.163-.03,6.251-.35a40.725,40.725,0,0,1,6.252-.3,63.336,63.336,0,0,0,6.981-.051c.12-.013.412-.37.212-.4" transform="translate(-45.744 -4.599)" fill="#af522e"/>
          <path id="Path_4765" data-name="Path 4765" d="M105.249,9.069c-.345-1.076-1.384-1.554-2.339-2.054a14.32,14.32,0,0,0-3.4-1.158,24.479,24.479,0,0,0-3.683-.446,10.159,10.159,0,0,0-1.507-.121,4.841,4.841,0,0,1-1.749-.039c-.074-.026-.226.155-.15.2.754.428,1.787.071,2.617.312,1.134.329,2.311.416,3.467.7A14.42,14.42,0,0,1,102.085,7.6c.507.283.989.6,1.486.9a5.338,5.338,0,0,1,.607.384c.252.2.32.462.623.623.212.114.514-.232.448-.44" transform="translate(-64.492 -4.86)" fill="#af522e"/>
        </g>
      </g>
    </g>
    <path id="Path_4713" data-name="Path 4713" d="M85.268,42.853S91,38.826,95.823,40.475c-1.025-1.172-5.2-1.488-9.368,1.052-1.39.934-1.515,1.449-1.187,1.326" transform="translate(-20.231 673.781)" fill="#0b480c"/>
    <path id="Path_4714" data-name="Path 4714" d="M85.476,44.325s2.851-.609,3.855,1.143a2.221,2.221,0,0,0-3.855-1.143" transform="translate(-20.375 672.183)" fill="#4b8b2d"/>
    <path id="Path_4715-2" data-name="Path 4715" d="M86.013,41.647a6.761,6.761,0,0,0,.9-3.482c.782.664.172,2.966-.9,3.482" transform="translate(-20.591 674.355)" fill="#4b8b2d"/>
    <path id="Path_4716-2" data-name="Path 4716" d="M87.354,40.214a12.277,12.277,0,0,0,2.933-3.885c.221,1.265-1.881,3.849-2.933,3.885" transform="translate(-21.13 675.093)" fill="#4b8b2d"/>
    <path id="Path_4717-2" data-name="Path 4717" d="M89,42.295a2.7,2.7,0,0,1,2.868,1.51c.166-1.353-1.038-2.866-2.868-1.51" transform="translate(-21.792 672.909)" fill="#68b42e"/>
    <path id="Path_4718-2" data-name="Path 4718" d="M93.148,40.969s2.468-.1,2.338,2.768c.578-1.976-.275-3.823-2.338-2.768" transform="translate(-23.458 673.352)" fill="#4b8b2d"/>
    <path id="Path_4719-2" data-name="Path 4719" d="M91.442,39.266a6.959,6.959,0,0,0,1.494-2.631c.422.849-.784,2.639-1.494,2.631" transform="translate(-22.773 674.97)" fill="#4b8b2d"/>
    <path id="Path_4720-2" data-name="Path 4720" d="M95.273,40.344a5.746,5.746,0,0,1,3.492,2.869c.254.821.47-3.453-3.492-2.869" transform="translate(-24.312 673.502)" fill="#4b8b2d"/>
    <path id="Path_4721-2" data-name="Path 4721" d="M94.056,38.186a4.994,4.994,0,0,0,1.71-3.085c.574.7-.449,2.988-1.71,3.085" transform="translate(-23.823 675.586)" fill="#68b42e"/>
    <path id="Path_4722-2" data-name="Path 4722" d="M96.319,38.321a8.382,8.382,0,0,1,3.418-2.3c.525-.143-1.505-.632-3.808,2.279a2.568,2.568,0,0,1,.39.017" transform="translate(-24.576 675.263)" fill="#4b8b2d"/>
    <path id="Path_4723-2" data-name="Path 4723" d="M97.322,39.109a10.042,10.042,0,0,1,3.164-.973,2.692,2.692,0,0,0-3.164.973" transform="translate(-25.135 674.451)" fill="#68b42e"/>
    <path id="Path_4724-2" data-name="Path 4724" d="M90.249,42.376s1.716.033,2.126,1.435c0-.954-1.04-1.56-2.126-1.435" transform="translate(-22.293 672.67)" fill="#abdb91"/>
    <path id="Path_4725-2" data-name="Path 4725" d="M96.633,40.589A3.987,3.987,0,0,1,99.324,43.1s-.582-2.38-2.691-2.506" transform="translate(-24.858 673.381)" fill="#abdb91"/>
    <path id="Path_4726-2" data-name="Path 4726" d="M93.088,37.006a5.082,5.082,0,0,1-1.233,2.25,3.75,3.75,0,0,0,1.233-2.25" transform="translate(-22.939 674.821)" fill="#abdb91"/>
    <path id="Path_4727-2" data-name="Path 4727" d="M102.743,45.542s2.057-5.535,7.788-4.388c-3.252-1.49-7.532.446-7.788,4.388" transform="translate(-27.313 673.355)" fill="#d2a677"/>
    <path id="Path_4728-2" data-name="Path 4728" d="M104.375,44.907a8.812,8.812,0,0,1,4.6-.48c-1.48-.908-4.264-.75-4.6.48" transform="translate(-27.969 672.072)" fill="#7fa95f"/>
    <path id="Path_4729-2" data-name="Path 4729" d="M103.572,46.528A3.316,3.316,0,0,1,107.134,48c-.753-2.285-3.25-2.809-3.562-1.472" transform="translate(-27.646 671.286)" fill="#4b8b2d"/>
    <path id="Path_4730-2" data-name="Path 4730" d="M106.849,42.723a9.29,9.29,0,0,1,4.356.6c-.683-.946-3.622-1.616-4.356-.6" transform="translate(-28.963 672.729)" fill="#68b42e"/>
    <path id="Path_4731-2" data-name="Path 4731" d="M106.276,41.273s2.879-3.128,4.412-3.449c-1.861.028-4.6,2.46-4.412,3.449" transform="translate(-28.729 674.492)" fill="#4b8b2d"/>
    <path id="Path_4732-2" data-name="Path 4732" d="M104.662,41.459a6.921,6.921,0,0,1,2.2-3.44,4.794,4.794,0,0,0-3.024,4.511,6.85,6.85,0,0,1,.823-1.071" transform="translate(-27.754 674.414)" fill="#68b42e"/>
    <path id="Path_4733-2" data-name="Path 4733" d="M102.393,44.8a12.723,12.723,0,0,0-1-3.977c1.256.238,1.4,3.069,1.4,3.069Z" transform="translate(-26.769 673.287)" fill="#458b28"/>
    <path id="Path_4734-2" data-name="Path 4734" d="M104.34,41.958a6.39,6.39,0,0,1,2.13-3.322c-.853.145-2.137,2.194-2.13,3.322" transform="translate(-27.955 674.166)" fill="#abdb91"/>
    <path id="Path_4735-2" data-name="Path 4735" d="M107.688,42.665a7.546,7.546,0,0,1,3.426.511,4.653,4.653,0,0,0-3.426-.511" transform="translate(-29.3 672.603)" fill="#abdb91"/>
    <path id="Path_4736-2" data-name="Path 4736" d="M83.754,40.758a.512.512,0,0,0,.074-.15c.02-.066.029-.218-.077-.212a.139.139,0,0,0-.041.01.133.133,0,0,0-.115.045.444.444,0,0,0-.129.256c-.013.086.034.176.13.16a.243.243,0,0,0,.128-.072s.008-.01.012-.013l.01-.011a.073.073,0,0,0,.008-.012" transform="translate(-19.567 673.458)"/>
    <path id="Path_4737-2" data-name="Path 4737" d="M76.972,45.385a.216.216,0,0,0-.054.042.094.094,0,0,0-.031.051c0-.01-.006.014-.008.017-.022.043-.047.1-.01.138a.06.06,0,0,0,.077,0,.012.012,0,0,0,.017.01.172.172,0,0,0,.124-.17c0-.074-.042-.131-.117-.094" transform="translate(-16.91 671.459)"/>
    <path id="Path_4738-2" data-name="Path 4738" d="M98.554,46.181c-.041-.034-.1-.013-.15.008a.2.2,0,0,0-.141.178c0,.051.03.122.088.129a.2.2,0,0,0,.112-.027c.065-.028.161-.063.179-.141a.171.171,0,0,0-.012-.12c-.015-.027-.053-.06-.077-.027" transform="translate(-25.513 671.141)"/>
    <path id="Path_4739-2" data-name="Path 4739" d="M103.394,39.7c-.032-.045-.09-.1-.152-.1-.119.012-.151.2-.124.295s.115.191.206.1a.163.163,0,0,0,.014-.016.153.153,0,0,0,.083-.095.216.216,0,0,0-.028-.191" transform="translate(-27.46 673.778)"/>
    <path id="Path_4740-2" data-name="Path 4740" d="M105.615,36.575h0c0,.008,0,.006,0,0" transform="translate(-28.466 674.994)"/>
    <path id="Path_4741-2" data-name="Path 4741" d="M105.854,36.351l-.017-.01a.147.147,0,0,0-.091,0,.219.219,0,0,0-.083.045.255.255,0,0,0-.053.057s-.016.026-.022.036a.237.237,0,0,0-.029.2.1.1,0,0,0,.121.062.266.266,0,0,0,.176-.13c.034-.057.12-.248,0-.253" transform="translate(-28.442 675.091)"/>
    <path id="Path_4742-2" data-name="Path 4742" d="M82.771,48.226a.188.188,0,0,0-.259-.02.333.333,0,0,0-.182.278.231.231,0,0,0,.106.188.185.185,0,0,0,.219-.025c.118-.087.246-.295.116-.421" transform="translate(-19.111 670.338)"/>
    <path id="Path_4743-2" data-name="Path 4743" d="M113.164,45.175a.11.11,0,0,0-.148.106V45.3a.331.331,0,0,0,.051.248.156.156,0,0,0,.209.072c.085-.048.065-.185.043-.26a.29.29,0,0,0-.157-.183" transform="translate(-31.438 671.542)"/>
    <path id="Path_4744-2" data-name="Path 4744" d="M105.09,47.9c-.09-.025-.181.064-.226.129.017-.026-.011.012-.016.021a.231.231,0,0,0-.023.041.224.224,0,0,0-.024.093.117.117,0,0,0,.07.12c.044.019.1-.017.134-.042a.336.336,0,0,0,.067-.072c.1-.069.15-.251.017-.29" transform="translate(-28.14 670.446)"/>
    <path id="Path_4745-2" data-name="Path 4745" d="M111.723,39.493c-.038-.018-.087.015-.115.036a.2.2,0,0,0-.078.138.157.157,0,0,0-.01.089.1.1,0,0,0,.056.077.128.128,0,0,0,.105.019c.135-.052.191-.288.042-.359" transform="translate(-30.839 673.824)"/>
    <path id="Path_4746-2" data-name="Path 4746" d="M114.885,40.395a.078.078,0,0,0-.05-.048.133.133,0,0,0-.086-.1c-.09-.029-.189.065-.226.137-.075.152.081.363.248.276a.221.221,0,0,0,.112-.261" transform="translate(-32.039 673.522)"/>
    <path id="Path_4747-2" data-name="Path 4747" d="M105.1,47.972c-.047,0-.117.113-.05.113.047,0,.116-.113.05-.113" transform="translate(-28.23 670.415)" fill="#fff"/>
    <path id="Path_4748-2" data-name="Path 4748" d="M83.806,40.5h-.048c-.039,0-.089.065-.091.105-.02.025-.029.054,0,.069a.089.089,0,0,0,.092-.02.3.3,0,0,0,.031-.03l.017-.024c-.005.007,0,.007,0,0,.023-.024.054-.1,0-.1" transform="translate(-19.641 673.418)" fill="#fff"/>
    <path id="Path_4749-2" data-name="Path 4749" d="M94.332,38.681a.474.474,0,0,0,.074-.149c.02-.068.029-.219-.077-.212a.606.606,0,0,0-.156.054.44.44,0,0,0-.129.255c-.013.086.033.176.129.16a.239.239,0,0,0,.129-.072s.008-.01.012-.013a.059.059,0,0,1,.01-.011l.008-.012" transform="translate(-23.818 674.293)"/>
    <path id="Path_4750" data-name="Path 4750" d="M94.384,38.421h-.048c-.039,0-.089.064-.091.1-.02.026-.029.054,0,.069a.09.09,0,0,0,.092-.02.206.206,0,0,0,.031-.03l.017-.024c-.005.007,0,.007,0,0s.054-.1,0-.1" transform="translate(-23.891 674.252)" fill="#fff"/>
    <path id="Path_4751-2" data-name="Path 4751" d="M88.217,48.245a.468.468,0,0,0,.074-.149c.02-.068.029-.218-.077-.211a.1.1,0,0,0-.041.009.135.135,0,0,0-.115.045.444.444,0,0,0-.129.256c-.013.084.033.176.13.159a.236.236,0,0,0,.128-.072.082.082,0,0,0,.012-.013l.01-.011a.039.039,0,0,0,.008-.012" transform="translate(-21.36 670.45)"/>
    <path id="Path_4752-2" data-name="Path 4752" d="M88.268,47.984H88.22c-.038,0-.089.065-.091.1-.019.026-.029.056,0,.069a.088.088,0,0,0,.092-.02.187.187,0,0,0,.031-.031l.018-.023c0,.007,0,.006,0,0,.022-.025.054-.1,0-.1" transform="translate(-21.434 670.41)" fill="#fff"/>
    <path id="Path_4753-2" data-name="Path 4753" d="M105.865,36.444c-.062,0-.152.148-.064.148.06,0,.151-.148.064-.148" transform="translate(-28.528 675.047)" fill="#fff"/>
    <path id="Path_4754-2" data-name="Path 4754" d="M82.633,48.475a.122.122,0,0,0,.036-.066.057.057,0,0,0-.023-.072.019.019,0,0,0-.011,0l-.005-.005c-.05-.039-.144.074-.106.121a.027.027,0,0,0,.007.008.063.063,0,0,0,0,.014c0,.019,0,.021,0,.008a.026.026,0,0,0,.026.032h.016a.056.056,0,0,0,.014,0A.038.038,0,0,0,82.6,48.5a.143.143,0,0,0,.026-.019l0,0" transform="translate(-19.186 670.275)" fill="#fff"/>
    <path id="Path_4755" data-name="Path 4755" d="M114.869,40.361l0-.006c-.016-.042-.077.016-.089.032a.063.063,0,0,0-.011.052c.008.02.037.014.052,0l.013-.012c.024-.011.067-.065.033-.071" transform="translate(-32.145 673.481)" fill="#fff"/>
  </g>
</svg>
