<svg id="Group_19152" data-name="Group 19152" xmlns="http://www.w3.org/2000/svg" xmlns:xlink="http://www.w3.org/1999/xlink" width="103.707" height="43.269" viewBox="0 0 103.707 43.269">
  <defs>
    <clipPath id="clip-path">
      <rect id="Rectangle_1158" data-name="Rectangle 1158" width="103.707" height="43.269" fill="none"/>
    </clipPath>
    <clipPath id="clip-path-3">
      <rect id="Rectangle_1147" data-name="Rectangle 1147" width="11.313" height="10.873" fill="none"/>
    </clipPath>
    <clipPath id="clip-path-4">
      <rect id="Rectangle_1148" data-name="Rectangle 1148" width="4.029" height="2.237" fill="none"/>
    </clipPath>
    <clipPath id="clip-path-5">
      <rect id="Rectangle_1149" data-name="Rectangle 1149" width="6.043" height="7.784" fill="none"/>
    </clipPath>
    <clipPath id="clip-path-6">
      <rect id="Rectangle_1150" data-name="Rectangle 1150" width="6.486" height="2.748" fill="none"/>
    </clipPath>
    <clipPath id="clip-path-7">
      <rect id="Rectangle_1151" data-name="Rectangle 1151" width="3.391" height="2.725" fill="none"/>
    </clipPath>
    <clipPath id="clip-path-8">
      <rect id="Rectangle_1152" data-name="Rectangle 1152" width="1.573" height="1.408" fill="none"/>
    </clipPath>
    <clipPath id="clip-path-9">
      <rect id="Rectangle_1153" data-name="Rectangle 1153" width="3.546" height="2.381" fill="none"/>
    </clipPath>
    <clipPath id="clip-path-10">
      <rect id="Rectangle_1154" data-name="Rectangle 1154" width="1.363" height="1.536" fill="none"/>
    </clipPath>
    <clipPath id="clip-path-11">
      <rect id="Rectangle_1155" data-name="Rectangle 1155" width="3.532" height="2.531" fill="none"/>
    </clipPath>
    <clipPath id="clip-path-12">
      <rect id="Rectangle_1156" data-name="Rectangle 1156" width="1.458" height="1.502" fill="none"/>
    </clipPath>
  </defs>
  <g id="Group_19184" data-name="Group 19184" clip-path="url(#clip-path)">
    <g id="Group_19183" data-name="Group 19183">
      <g id="Group_19182" data-name="Group 19182" clip-path="url(#clip-path)">
        <path id="Path_4611" data-name="Path 4611" d="M138.322,123.045c0,8.665-22.275,18.174-49.752,18.174s-49.752-9.509-49.752-18.174,22.275-13.2,49.752-13.2,49.752,4.539,49.752,13.2" transform="translate(-34.616 -97.95)" fill="#d3cfbc"/>
        <path id="Path_4612" data-name="Path 4612" d="M138.322,102.575c0,8.665-22.275,15.689-49.752,15.689s-49.752-7.024-49.752-15.689S61.093,86.886,88.57,86.886s49.752,7.024,49.752,15.689" transform="translate(-34.616 -77.48)" fill="#e8e3cd"/>
        <g id="Group_19154" data-name="Group 19154" transform="translate(6.613 22.51)" opacity="0.66">
          <g id="Group_19153" data-name="Group 19153">
            <g id="Group_19152-2" data-name="Group 19152" clip-path="url(#clip-path-3)">
              <path id="Path_4613" data-name="Path 4613" d="M61.318,211.555a7.626,7.626,0,0,0,1.788,2.813,14.981,14.981,0,0,0,7.571,4.35c.569.129,1.294.165,1.6-.33a1.022,1.022,0,0,0-.194-1.179A3.027,3.027,0,0,0,71,216.542a21.639,21.639,0,0,1-5.177-2.874,7.913,7.913,0,0,1-3.016-4.951c-.131-1.026-.789-.984-1.323-.273a3.936,3.936,0,0,0-.168,3.11" transform="translate(-61.081 -207.927)" fill="#fff"/>
            </g>
          </g>
        </g>
        <g id="Group_19157" data-name="Group 19157" transform="translate(19.531 33.852)" opacity="0.66">
          <g id="Group_19156" data-name="Group 19156">
            <g id="Group_19155" data-name="Group 19155" clip-path="url(#clip-path-4)">
              <path id="Path_4614" data-name="Path 4614" d="M180.881,312.876c-.355-.072-.59.441-.42.761a1.465,1.465,0,0,0,.887.58l1.607.549a2.148,2.148,0,0,0,.785.162.73.73,0,0,0,.652-.4c.18-.436-.251-.874-.662-1.106a5.677,5.677,0,0,0-2.939-.729Z" transform="translate(-180.405 -312.692)" fill="#fff"/>
            </g>
          </g>
        </g>
        <g id="Group_19160" data-name="Group 19160" transform="translate(95.692 24.089)" opacity="0.66">
          <g id="Group_19159" data-name="Group 19159">
            <g id="Group_19158" data-name="Group 19158" clip-path="url(#clip-path-5)">
              <path id="Path_4615" data-name="Path 4615" d="M887.76,222.889a2.583,2.583,0,0,0-.41,1.238,6.473,6.473,0,0,1-1.441,3.62c-.648.664-1.577,1.1-1.949,1.95-.086.2-.107.481.088.572a.433.433,0,0,0,.251.014,4.486,4.486,0,0,0,2.266-1.317,14.468,14.468,0,0,0,3.012-4.058,2.512,2.512,0,0,0,.356-1.353,1.3,1.3,0,0,0-2.172-.667" transform="translate(-883.897 -222.511)" fill="#fff"/>
            </g>
          </g>
        </g>
        <path id="Path_4616" data-name="Path 4616" d="M13.558,167.52c-1.512-.346-2.683-1.5-4.022-2.286a8.911,8.911,0,0,0-9,.115c-.249.154-.514.36-.538.652-.043.52.667.782.825,1.278s-.271.952-.521,1.4a2.267,2.267,0,0,0,.807,2.942,1.356,1.356,0,0,1,.44.316,1.153,1.153,0,0,1,.051.9,5.57,5.57,0,0,0,1.4,4.854,5.042,5.042,0,0,0,4.814,1.376c.81-.217,1.552-.648,2.364-.855a4.545,4.545,0,0,1,3.226.389,11.642,11.642,0,0,1,1.847,1.38,19.8,19.8,0,0,0,3.532,2.32c1.293.664,2.865,1.18,4.163.524.708-.358,1.317-1.053,2.109-1.012a8.061,8.061,0,0,1,1.212.346c1.237.264,2.372-.816,3.634-.909.99-.073,2,.468,2.947.169,1.256-.4,1.632-1.978,1.669-3.295a7.4,7.4,0,0,0-1.513-5.311,7.74,7.74,0,0,0-2.9-1.764c-2.888-1.15-5.793-1.372-8.781-2.031a31.745,31.745,0,0,1-3.03-1.193c-1.547-.508-3.18.045-4.746-.314" transform="translate(0 -146.309)" fill="#b5e07e"/>
        <path id="Path_4617" data-name="Path 4617" d="M138.9,206.032a1.42,1.42,0,0,0-.985,1.021,1.6,1.6,0,0,0,.654,1.29c.7.642,1.543,1.121,2.182,1.823.8.881,1.224,2.047,1.977,2.971,1.335,1.64,3.506,2.3,5.559,2.808q2.937.723,5.917,1.252a5.936,5.936,0,0,0,1.838.125.576.576,0,0,0,.277-.094.47.47,0,0,0,.157-.3,1.637,1.637,0,0,0-.648-1.325c-2.319-2.257-5.586-3.174-8.459-4.665a22.48,22.48,0,0,1-4.6-3.175c-.5-.449-.816-1.1-1.31-1.513a2.794,2.794,0,0,0-2.556-.214" transform="translate(-122.975 -183.543)" fill="#a1c470"/>
        <path id="Path_4618" data-name="Path 4618" d="M381.682,66.832c3.722-.669,7.617-1.451,11.22-.3a5.567,5.567,0,0,1,2.549,1.509,4.94,4.94,0,0,1,.2,5.585,12,12,0,0,1-4.371,3.967,48.183,48.183,0,0,1-23.175,6.924,52.424,52.424,0,0,1-23.75-4.79,8.335,8.335,0,0,1-2.819-1.831,6.543,6.543,0,0,1-1.455-3.649,8.075,8.075,0,0,1,1.256-5.705c3.231-4.42,9.252-1.306,13.431-.64a68.051,68.051,0,0,0,17.379.289c3.2-.315,6.374-.789,9.535-1.357" transform="translate(-303.2 -58.805)" fill="#6dba60"/>
        <path id="Path_4619" data-name="Path 4619" d="M394.758,66.437A13.134,13.134,0,0,0,391,65.856a3.512,3.512,0,0,1,.268.451,2.157,2.157,0,0,1-.122,2.277,2.8,2.8,0,0,1-1.251.759c-3.8,1.377-8.115.744-11.883,2.206a12.953,12.953,0,0,0,6.915.285c-.3,1.047-1.648,1.267-2.728,1.391A17.722,17.722,0,0,0,376.1,75.08a88.5,88.5,0,0,0,15.136-3.5.673.673,0,0,1,.592,0c.195.139.181.431.121.663a4.617,4.617,0,0,1-1.431,2.176c-2.26,2.065-5.482,2.6-8.51,3.05l-8.537,1.263a47.231,47.231,0,0,1-5.328.583,20.911,20.911,0,0,1-5.335-.483,28.992,28.992,0,0,1-4.512-1.5c-2.651-1.084-5.3-2.052-7.979-3.031-1.013-.369-1.609-1.015-2.764-1.034a6.759,6.759,0,0,0-3.779,1.231,9.96,9.96,0,0,0-1.509,1.245,5.486,5.486,0,0,0,1.125,2.06,8.334,8.334,0,0,0,2.819,1.831,52.424,52.424,0,0,0,23.75,4.79A48.181,48.181,0,0,0,393.136,77.5a12,12,0,0,0,4.371-3.967,4.94,4.94,0,0,0-.2-5.585,5.566,5.566,0,0,0-2.549-1.509" transform="translate(-305.213 -58.726)" fill="#65a858"/>
        <path id="Path_4620" data-name="Path 4620" d="M582.437,135.7a2.315,2.315,0,0,1-1.412.123.933.933,0,0,0,.6.7,2.789,2.789,0,0,0,1.884.152,1.571,1.571,0,0,0,1.232-1.088.568.568,0,0,0-.046-.388.642.642,0,0,0-.228-.21c-1.137-.7-1.143.309-2.032.707" transform="translate(-518.123 -120.161)" fill="#65a858"/>
        <path id="Path_4621" data-name="Path 4621" d="M694.356,161.175a.359.359,0,0,0-.268-.408,1.861,1.861,0,0,1,1.864.252.8.8,0,0,1,.315.457.882.882,0,0,1-.459.793,5.862,5.862,0,0,1-1.963.773c-.366.1-2.092.511-1.42-.253.5-.571,1.818-.72,1.931-1.614" transform="translate(-617.326 -143.234)" fill="#65a858"/>
        <path id="Path_4622" data-name="Path 4622" d="M428.456,82.774c1.906.562,3.56,1.871,5.517,2.213,1.217.213,2.575.065,3.579.786.244.175.448.57.2.739-.193.132-.441-.034-.655-.129s-.577.015-.5.235c.037.1.156.146.261.174,1.907.511,3.919.068,5.879-.17a27.879,27.879,0,0,1,3.721-.2,9.326,9.326,0,0,0,4.226-.491,8.865,8.865,0,0,1,1.59-.785,10.082,10.082,0,0,1,1.812-.08,1.563,1.563,0,0,0,1.459-.893,4.6,4.6,0,0,0-2.853-.2,23.753,23.753,0,0,1-4.094.15c-1.815-.091-3.622-.39-5.439-.356-1.5.028-2.992.282-4.492.255a27.022,27.022,0,0,1-6.493-1.264,32.365,32.365,0,0,0-3.269-.741c-.247-.04-.853-.24-1.052,0-.335.4.318.673.6.757" transform="translate(-381.453 -73.035)" fill="#81d670"/>
        <path id="Path_4623" data-name="Path 4623" d="M97.58,17.5c.7,1.267,2.615,3.057,3.461,4.234,2.187,3.045,2.634,6.87,5.024,9.758,3.661,4.424,8.99,8.394,14.731,8.283,7.382-.143,11.724-4.316,14.267-9.465a4.648,4.648,0,0,0,.571-1.906,3.934,3.934,0,0,0-.424-1.745,11.156,11.156,0,0,0-4.482-4.447c-5.109-3.165-11.011-4.784-16.413-7.418-4.335-2.114-8.322-4.87-12.507-7.267-.885-.507-2.9-1.764-3.921-1.049-.853.6-1.34,2.669-1.57,3.616-.687,2.819-.154,4.86,1.262,7.406" transform="translate(-85.625 -5.59)" fill="#90b76e"/>
        <path id="Path_4624" data-name="Path 4624" d="M196.97,140.057a11.156,11.156,0,0,0-4.482-4.447,39.894,39.894,0,0,0-4.277-2.271q-.105.191-.211.38a20.146,20.146,0,0,1-6.994,7.448,14.4,14.4,0,0,1-9.912,1.975,11.728,11.728,0,0,1-5.785-2.892,17.072,17.072,0,0,0,2.515,4.64c3.661,4.424,8.99,8.394,14.732,8.283,7.382-.143,11.724-4.316,14.267-9.465a4.646,4.646,0,0,0,.571-1.906,3.934,3.934,0,0,0-.424-1.745" transform="translate(-147.412 -118.904)" fill="#85a565"/>
        <path id="Path_4625" data-name="Path 4625" d="M106.4,1.746a3.137,3.137,0,0,0,.822,3.2,15.05,15.05,0,0,0,2.8,2.063,15.9,15.9,0,0,1,6.084,7.925c.75,2.173,1.033,4.527,2.146,6.539a11.967,11.967,0,0,0,3.253,3.6,18.883,18.883,0,0,0,20.069,1.571,8.518,8.518,0,0,0,2.676-2.1,6.753,6.753,0,0,0,.669-6.673,11.114,11.114,0,0,0-4.717-5.056,33.106,33.106,0,0,0-6.481-2.7l-8.515-2.858A35.854,35.854,0,0,1,120.439,5.4c-2.845-1.434-5.3-3.5-8.218-4.806-1.79-.8-4.877-1.112-5.822,1.149" transform="translate(-94.726 -0.001)" fill="#b1e588"/>
        <path id="Path_4626" data-name="Path 4626" d="M226.389,95.1a5.428,5.428,0,0,0,.757,2.187,12.843,12.843,0,0,0,1.834,2.658,14.884,14.884,0,0,0,4.229,2.966,23.4,23.4,0,0,0,5.394,2.071,12.822,12.822,0,0,0,5.743.091,4.35,4.35,0,0,0,2.456-1.32,3.564,3.564,0,0,0,.707-1.716,6.641,6.641,0,0,0-1.926-5.385,15.172,15.172,0,0,0-4.923-3.219,44.014,44.014,0,0,0-5.246-1.989,13.465,13.465,0,0,0-3.107-.655c-2.514-.156-6.112,1.263-5.92,4.31" transform="translate(-201.873 -80.953)" fill="#c4f789"/>
        <path id="Path_4627" data-name="Path 4627" d="M260.315,102.709a10.388,10.388,0,0,0,6.395,5.257c1.968.61,4.354.645,5.831-.793,1.667-1.623,1.4-4.553-.077-6.354a10.155,10.155,0,0,0-6.093-3.1,9.455,9.455,0,0,0-3.276-.163,4.357,4.357,0,0,0-2.81,1.562.7.7,0,0,1-.415.265,7.664,7.664,0,0,0,.446,3.328" transform="translate(-231.735 -86.919)" fill="#a57362"/>
        <path id="Path_4628" data-name="Path 4628" d="M273.378,128.645a4.293,4.293,0,0,1-1.035,3.979c-1.476,1.438-3.862,1.4-5.831.793a10.824,10.824,0,0,1-5.642-3.965,4.211,4.211,0,0,0,.338,1.055,10.389,10.389,0,0,0,6.395,5.257c1.968.61,4.354.645,5.831-.793,1.659-1.615,1.4-4.524-.056-6.326" transform="translate(-232.629 -114.718)" fill="#895e52"/>
        <g id="Group_19163" data-name="Group 19163" transform="translate(30.313 11.526)" opacity="0.29">
          <g id="Group_19162" data-name="Group 19162">
            <g id="Group_19161" data-name="Group 19161" clip-path="url(#clip-path-6)">
              <path id="Path_4629" data-name="Path 4629" d="M281.5,106.753a2.46,2.46,0,0,0-1.242.768,1.118,1.118,0,0,0-.041,1.369,1.29,1.29,0,0,0,1.437.191c.478-.193.882-.535,1.35-.752a5.757,5.757,0,0,1,2.652-.323c.294.011.661-.023.77-.3.4-1-1.283-1.12-1.8-1.177a7.266,7.266,0,0,0-3.129.221" transform="translate(-279.998 -106.461)" fill="#fff"/>
            </g>
          </g>
        </g>
        <path id="Path_4630" data-name="Path 4630" d="M328.825,242.169a3.509,3.509,0,0,0,.833,1.249,5.787,5.787,0,0,0,2.688,1.088,37.177,37.177,0,0,0,17.9-.789c-1.3-1.2-3.449-1.561-4.974-2.574a16.745,16.745,0,0,1-2.941-3.066c-2.1-2.3-4.1-5.44-7.4-6.51-3.325-1.077-6.057,3.675-6.535,5.829a7.722,7.722,0,0,0,.427,4.773" transform="translate(-292.672 -206.358)" fill="#c43922"/>
        <path id="Path_4631" data-name="Path 4631" d="M357.32,289.6c-1.3-1.2-3.449-1.561-4.974-2.574a16.734,16.734,0,0,1-2.941-3.066c-.254-.278-.506-.568-.759-.866l-.307.015c-2.552.132-5.2.348-7.55-.356a3.553,3.553,0,0,1,.7,3.4,3.68,3.68,0,0,1-1.887,1.982c-1.192.569-2.009.22-3.224.189-.124,0-.24,0-.351.006a3.18,3.18,0,0,0,.7.969,5.79,5.79,0,0,0,2.688,1.088,37.175,37.175,0,0,0,17.9-.789" transform="translate(-299.646 -252.138)" fill="#b53221"/>
        <path id="Path_4632" data-name="Path 4632" d="M360.521,232.253a9.822,9.822,0,0,0-3.805-.867c-1.351.048-2.812.784-3.021,1.864a2.253,2.253,0,0,0,.26,1.368,7.4,7.4,0,0,0,3.554,3.43c.921.443,1.944.742,2.876,1.169s1.742.961,2.652,1.393a24.321,24.321,0,0,0,4.429,1.424c1.818.46,3.723,1.218,5.542,1.678-2.727-2.027-6.323-4.727-7.8-7.844a5.113,5.113,0,0,0-1.423-2.352,17.4,17.4,0,0,0-3.269-1.264" transform="translate(-315.379 -206.333)" fill="#e2786d"/>
        <path id="Path_4633" data-name="Path 4633" d="M367.782,241.827a25.749,25.749,0,0,1-4.441-1.387c-.916-.417-1.745-.935-2.669-1.342s-1.962-.705-2.888-1.132a7.5,7.5,0,0,1-3.6-3.279,2.071,2.071,0,0,1-.283-1.3c.191-1.021,1.635-1.7,2.982-1.738a10.405,10.405,0,0,1,3.809.854,26.528,26.528,0,0,1,2.993,1.06c-.039-.031-.08-.061-.122-.089a17.4,17.4,0,0,0-3.269-1.264,9.823,9.823,0,0,0-3.806-.867c-1.351.048-2.812.784-3.021,1.864a2.253,2.253,0,0,0,.261,1.368,7.4,7.4,0,0,0,3.554,3.431c.921.442,1.944.742,2.876,1.169s1.742.961,2.653,1.393A24.315,24.315,0,0,0,367.239,242c1.818.46,3.748,1.222,5.566,1.682-.384-.192-.87-.7-1.234-.911l-3.788-.939" transform="translate(-315.175 -206.298)" fill="#f75237"/>
        <path id="Path_4634" data-name="Path 4634" d="M393.828,248.371a.57.57,0,0,1-.405-.083,2.361,2.361,0,0,1-.621-.667,1.116,1.116,0,0,0-.81-.479.967.967,0,0,0-.9.6,1.62,1.62,0,0,0,.037.984c.283,1.072.98,1.441,2.007,2.137a2.282,2.282,0,0,0,1.159.321c.437.03.684.461.933.159.1-.12.172-.006.322-.085a.6.6,0,0,1,.616.078,1.093,1.093,0,0,1,.3.471.943.943,0,0,1,.063.859,1.148,1.148,0,0,1-.566.408,1.838,1.838,0,0,1-1.351.069,1.872,1.872,0,0,1-.548-.407,3.085,3.085,0,0,0-.855-.64,6.694,6.694,0,0,0-1.282-.315,6.8,6.8,0,0,1-3.453-2.2,3.3,3.3,0,0,1-.717-1.025,2.191,2.191,0,0,1,1.64-2.616,5.308,5.308,0,0,1,2.424-.077,4.241,4.241,0,0,1,1.085.285,3.719,3.719,0,0,1,1.461,1.415c.105.151.214.326.14.5a.387.387,0,0,1-.466.139.4.4,0,0,1-.215.162" transform="translate(-345.696 -219.165)" fill="#d15e52"/>
        <path id="Path_4635" data-name="Path 4635" d="M406.019,251.65a.673.673,0,0,1-.279-.475.111.111,0,0,1,.028-.082.2.2,0,0,1,.18-.022,1.452,1.452,0,0,1,.512.263c.142.1.959.677.653.789-.325.119-.916-.318-1.094-.472" transform="translate(-361.814 -223.88)" fill="#f4aa67"/>
        <path id="Path_4636" data-name="Path 4636" d="M396.038,258.6a.124.124,0,0,0-.007.085c.029.123.17.2.3.262a3.654,3.654,0,0,0,1.409.352.208.208,0,0,0,.161-.043c.048-.055-.014-.124-.073-.167a3.865,3.865,0,0,0-.949-.492c-.18-.064-.714-.261-.845,0" transform="translate(-353.152 -230.488)" fill="#f4aa67"/>
        <path id="Path_4637" data-name="Path 4637" d="M397.407,269.362a1.431,1.431,0,0,0-.76.22c-.1.066-.183.159-.173.258a.21.21,0,0,0,.1.147.713.713,0,0,0,.37.082,7.509,7.509,0,0,0,1.342-.131.418.418,0,0,0,.256-.1c.3-.367-.945-.479-1.135-.474" transform="translate(-353.55 -240.2)" fill="#f4aa67"/>
        <path id="Path_4638" data-name="Path 4638" d="M406.081,278.735a.6.6,0,0,0-.268.476.07.07,0,0,0,.038.062.132.132,0,0,0,.093-.012l.514-.2a2.092,2.092,0,0,0,.519-.263,1.237,1.237,0,0,0,.356-.491c.012-.027.022-.061,0-.08a.1.1,0,0,0-.055-.014,2.118,2.118,0,0,0-1.2.526" transform="translate(-361.877 -248.089)" fill="#f4aa67"/>
        <path id="Path_4639" data-name="Path 4639" d="M414.6,286.636a.285.285,0,0,0-.08.141c-.012.094.084.176.2.2a.76.76,0,0,0,.347-.026,1.245,1.245,0,0,0,.536-.266.37.37,0,0,0,.112-.166c.054-.2-.23-.359-.462-.324a1.3,1.3,0,0,0-.649.442" transform="translate(-369.639 -255.206)" fill="#f4aa67"/>
        <path id="Path_4640" data-name="Path 4640" d="M426.24,292.2a.171.171,0,0,0,.014.151.229.229,0,0,0,.191.06.49.49,0,0,0,.347-.182c.1-.134.179-.518-.1-.549s-.417.37-.455.519" transform="translate(-380.085 -260.098)" fill="#f4aa67"/>
        <path id="Path_4641" data-name="Path 4641" d="M419.5,248.588a.585.585,0,0,0,.246.171.173.173,0,0,0,.116,0c.074-.032.062-.118.036-.179-.055-.131-.266-.665-.477-.672-.408-.014,0,.6.079.679" transform="translate(-373.851 -221.07)" fill="#f4aa67"/>
        <path id="Path_4642" data-name="Path 4642" d="M430.5,249.959a.844.844,0,0,0,.091.533.219.219,0,0,0,.2.114.213.213,0,0,0,.163-.2.688.688,0,0,0-.144-.564c-.134-.117-.3-.064-.314.117" transform="translate(-383.885 -222.738)" fill="#f4aa67"/>
        <path id="Path_4643" data-name="Path 4643" d="M438.032,297.7a.225.225,0,0,0,.213.147.2.2,0,0,0,.148-.225c-.01-.15-.112-.527-.378-.5-.3.026-.047.457.017.581" transform="translate(-390.469 -264.954)" fill="#f4aa67"/>
        <path id="Path_4644" data-name="Path 4644" d="M448.825,300.671a.452.452,0,0,0,.129.2.251.251,0,0,0,.263.028.22.22,0,0,0,.072-.257c-.037-.166-.2-.968-.494-.959-.344.01-.019.862.031.986" transform="translate(-400.068 -267.241)" fill="#f4aa67"/>
        <path id="Path_4645" data-name="Path 4645" d="M458.962,301.266a1.29,1.29,0,0,0,.23.284.181.181,0,0,0,.151.053.146.146,0,0,0,.1-.12.821.821,0,0,0-.182-.582c-.069-.112-.282-.454-.46-.293s.068.519.16.658" transform="translate(-409.074 -268.026)" fill="#f4aa67"/>
        <path id="Path_4646" data-name="Path 4646" d="M438.332,255.483a.1.1,0,0,1,.068-.074.105.105,0,0,1,.062.012.363.363,0,0,1,.176.207,1.155,1.155,0,0,1,.04.594c-.026.183-.053.507-.27.223a1.061,1.061,0,0,1-.077-.962" transform="translate(-390.808 -227.757)" fill="#f4aa67"/>
        <path id="Path_4647" data-name="Path 4647" d="M431.7,264.638a.636.636,0,0,1-.99.646c-.007.224-.407.331-.645.225a1.124,1.124,0,0,1-.47-.522.811.811,0,0,0-.561-.441.308.308,0,0,0-.2.032.229.229,0,0,0-.091.152.747.747,0,0,0,.284.744l-.49-.078c-.1.288.335.489.7.5.084,0,.189.011.211.076.013.04-.016.083-.041.121a.476.476,0,0,0-.071.494.4.4,0,0,0,.527.114c.138-.1.262-.306.4-.225a.9.9,0,0,0,.272.729c.233.177.738.1.774-.159.013-.1-.027-.212.068-.273s.257.024.316.121.119.22.254.229a.879.879,0,0,0,.195-.031c.277-.044.479.175.625.361a6.567,6.567,0,0,0,2.571,1.92,2.7,2.7,0,0,1-.872-.726,18.3,18.3,0,0,1-2.769-4.165,1.593,1.593,0,0,0-.18-.3,1.833,1.833,0,0,1,.184.462" transform="translate(-382.124 -235.576)" fill="#ef8675"/>
        <g id="Group_19166" data-name="Group 19166" transform="translate(39.397 25.633)" opacity="0.28">
          <g id="Group_19165" data-name="Group 19165">
            <g id="Group_19164" data-name="Group 19164" clip-path="url(#clip-path-7)">
              <path id="Path_4648" data-name="Path 4648" d="M364.476,239.4a.682.682,0,0,0,.565.048.62.62,0,0,0,.3-.5,2.5,2.5,0,0,1,.4-1.021,1.571,1.571,0,0,1,1.045-.629,1.947,1.947,0,0,0,.307-.043c.1-.029.192-.094.2-.177s-.082-.17-.182-.215a1.609,1.609,0,0,0-.767-.088,3.815,3.815,0,0,0-1.733.57,1.8,1.8,0,0,0-.559.517,1.126,1.126,0,0,0,.421,1.539" transform="translate(-363.905 -236.767)" fill="#fff"/>
            </g>
          </g>
        </g>
        <g id="Group_19169" data-name="Group 19169" transform="translate(39.982 28.681)" opacity="0.28">
          <g id="Group_19168" data-name="Group 19168">
            <g id="Group_19167" data-name="Group 19167" clip-path="url(#clip-path-8)">
              <path id="Path_4649" data-name="Path 4649" d="M369.353,265.381a2.292,2.292,0,0,0,1.007.852.679.679,0,0,0,.261.1.252.252,0,0,0,.249-.1.2.2,0,0,0,.009-.112,2.783,2.783,0,0,0-.168-.678.678.678,0,0,0-.457-.47c-.417-.092-1.13-.074-.9.409" transform="translate(-369.308 -264.928)" fill="#fff"/>
            </g>
          </g>
        </g>
        <path id="Path_4650" data-name="Path 4650" d="M336.639,267.23a5.44,5.44,0,0,0-.127,2.063,1.436,1.436,0,0,0,.486,1.017.559.559,0,0,0,.527.107c.194-.082.232-.286.281-.456.163-.569.7-1.034.951-1.586a2.589,2.589,0,0,0-.389-2.4c-.785-1.284-1.58.668-1.729,1.254" transform="translate(-300.04 -236.799)" fill="#e54c23"/>
        <path id="Path_4651" data-name="Path 4651" d="M445.1,221.9a3.451,3.451,0,0,0,.578,1.359,5.693,5.693,0,0,0,2.4,1.541,36.564,36.564,0,0,0,17.449,2.5c-1.039-1.394-3.049-2.137-4.338-3.394a16.46,16.46,0,0,1-2.284-3.5c-1.611-2.61-2.972-6-5.97-7.64-3.018-1.646-6.523,2.449-7.378,4.444a7.6,7.6,0,0,0-.457,4.691" transform="translate(-396.751 -189.39)" fill="#c43922"/>
        <path id="Path_4652" data-name="Path 4652" d="M468.334,271.876c-1.039-1.394-3.049-2.137-4.338-3.394a16.462,16.462,0,0,1-2.284-3.5c-.194-.315-.385-.641-.576-.975l-.3-.041c-2.49-.337-5.09-.611-7.233-1.719a3.5,3.5,0,0,1,.054,3.415,3.62,3.62,0,0,1-2.185,1.572c-1.255.333-1.982-.153-3.151-.4-.119-.026-.232-.044-.34-.058a3.126,3.126,0,0,0,.5,1.065,5.693,5.693,0,0,0,2.4,1.541,36.564,36.564,0,0,0,17.449,2.5" transform="translate(-399.482 -233.857)" fill="#b53221"/>
        <path id="Path_4653" data-name="Path 4653" d="M486.761,214.1a9.663,9.663,0,0,0-3.52-1.531c-1.315-.2-2.86.246-3.26,1.252a2.215,2.215,0,0,0,0,1.37,7.276,7.276,0,0,0,2.81,3.963c.809.6,1.743,1.072,2.567,1.654s1.508,1.246,2.31,1.829a23.919,23.919,0,0,0,4.022,2.183c1.674.776,3.377,1.855,5.05,2.631-2.266-2.455-5.251-5.721-6.105-9a5.03,5.03,0,0,0-.947-2.533,17.114,17.114,0,0,0-2.93-1.817" transform="translate(-427.921 -189.518)" fill="#e2786d"/>
        <path id="Path_4654" data-name="Path 4654" d="M492.035,224.679A25.335,25.335,0,0,1,488,222.53c-.809-.569-1.516-1.222-2.335-1.783s-1.768-1.039-2.585-1.62a7.373,7.373,0,0,1-2.884-3.825,2.037,2.037,0,0,1-.037-1.305c.37-.952,1.891-1.35,3.2-1.137a10.234,10.234,0,0,1,3.526,1.519,26.084,26.084,0,0,1,2.7,1.57c-.032-.037-.066-.073-.1-.108a17.112,17.112,0,0,0-2.93-1.817,9.662,9.662,0,0,0-3.52-1.531c-1.315-.2-2.86.246-3.26,1.252a2.216,2.216,0,0,0,0,1.37,7.276,7.276,0,0,0,2.81,3.963c.809.6,1.744,1.071,2.567,1.654s1.508,1.246,2.31,1.829a23.918,23.918,0,0,0,4.022,2.183c1.673.776,3.4,1.864,5.074,2.64-.336-.256-.713-.833-1.027-1.106l-3.49-1.6" transform="translate(-427.731 -189.446)" fill="#f75237"/>
        <path id="Path_4655" data-name="Path 4655" d="M515.881,235.345a.561.561,0,0,1-.377-.154,2.321,2.321,0,0,1-.479-.758,1.1,1.1,0,0,0-.7-.61.951.951,0,0,0-.982.421,1.593,1.593,0,0,0-.144.958c.078,1.087.684,1.571,1.55,2.431a2.244,2.244,0,0,0,1.062.521c.417.108.577.57.873.323.118-.1.167.026.327-.024a.593.593,0,0,1,.582.188,1.073,1.073,0,0,1,.207.511.928.928,0,0,1-.1.842,1.13,1.13,0,0,1-.621.292,1.808,1.808,0,0,1-1.319-.179,1.839,1.839,0,0,1-.455-.493,3.034,3.034,0,0,0-.709-.775,6.583,6.583,0,0,0-1.182-.538,6.685,6.685,0,0,1-2.938-2.751,3.245,3.245,0,0,1-.506-1.121,2.155,2.155,0,0,1,2.061-2.23,5.219,5.219,0,0,1,2.357.366,4.174,4.174,0,0,1,1,.473,3.657,3.657,0,0,1,1.155,1.634.524.524,0,0,1,.045.505.38.38,0,0,1-.476.05.392.392,0,0,1-.237.118" transform="translate(-454.749 -207.039)" fill="#d15e52"/>
        <path id="Path_4656" data-name="Path 4656" d="M530.452,237.078a.662.662,0,0,1-.184-.509.11.11,0,0,1,.042-.075.2.2,0,0,1,.178.012,1.426,1.426,0,0,1,.447.347c.119.126.8.829.488.881-.336.056-.828-.475-.971-.656" transform="translate(-472.855 -210.876)" fill="#f4aa67"/>
        <path id="Path_4657" data-name="Path 4657" d="M519.473,242.183a.122.122,0,0,0-.022.081c.006.124.128.225.246.308a3.6,3.6,0,0,0,1.3.6.205.205,0,0,0,.163-.012c.056-.045.009-.123-.041-.175a3.8,3.8,0,0,0-.828-.649c-.162-.095-.643-.382-.817-.151" transform="translate(-463.215 -215.886)" fill="#f4aa67"/>
        <path id="Path_4658" data-name="Path 4658" d="M518.416,253.692a1.409,1.409,0,0,0-.775.074c-.106.047-.206.121-.214.218a.206.206,0,0,0,.07.16.7.7,0,0,0,.343.146,7.382,7.382,0,0,0,1.321.117.411.411,0,0,0,.266-.052c.36-.3-.826-.635-1.011-.664" transform="translate(-461.41 -226.207)" fill="#f4aa67"/>
        <path id="Path_4659" data-name="Path 4659" d="M524.322,265.152c-.173.1-.335.238-.346.411a.069.069,0,0,0,.026.066.13.13,0,0,0,.092.005l.534-.1a2.059,2.059,0,0,0,.55-.16,1.217,1.217,0,0,0,.434-.41c.016-.024.032-.055.012-.078a.094.094,0,0,0-.051-.023,2.084,2.084,0,0,0-1.251.291" transform="translate(-467.25 -236.17)" fill="#f4aa67"/>
        <path id="Path_4660" data-name="Path 4660" d="M531.678,273.428a.279.279,0,0,0-.1.121c-.029.089.049.186.153.23a.749.749,0,0,0,.34.038,1.225,1.225,0,0,0,.566-.159.363.363,0,0,0,.138-.141c.089-.188-.157-.389-.388-.4a1.274,1.274,0,0,0-.707.309" transform="translate(-474.021 -243.551)" fill="#f4aa67"/>
        <path id="Path_4661" data-name="Path 4661" d="M541.928,280.417a.168.168,0,0,0-.014.149.225.225,0,0,0,.173.093.483.483,0,0,0,.368-.112c.125-.111.268-.468.007-.549s-.47.281-.534.419" transform="translate(-483.235 -249.675)" fill="#f4aa67"/>
        <path id="Path_4662" data-name="Path 4662" d="M544.008,236.621a.574.574,0,0,0,.207.21.171.171,0,0,0,.112.022c.077-.017.082-.1.068-.166-.03-.137-.136-.691-.339-.736-.392-.088-.109.579-.047.671" transform="translate(-484.974 -210.399)" fill="#f4aa67"/>
        <path id="Path_4663" data-name="Path 4663" d="M554.018,239.978a.831.831,0,0,0-.01.532.215.215,0,0,0,.177.147.21.21,0,0,0,.194-.164.676.676,0,0,0-.037-.571.174.174,0,0,0-.325.056" transform="translate(-493.995 -213.868)" fill="#f4aa67"/>
        <path id="Path_4664" data-name="Path 4664" d="M552.965,287.473c.024.08.077.174.179.181s.174-.1.185-.19c.017-.147-.012-.53-.274-.555-.29-.028-.129.434-.09.565" transform="translate(-493.029 -255.846)" fill="#f4aa67"/>
        <path id="Path_4665" data-name="Path 4665" d="M562.641,292.315a.444.444,0,0,0,.087.218.247.247,0,0,0,.25.075.217.217,0,0,0,.116-.236c-.006-.167-.013-.971-.3-1.016-.335-.053-.175.829-.15.959" transform="translate(-501.675 -259.812)" fill="#f4aa67"/>
        <path id="Path_4666" data-name="Path 4666" d="M572.475,294.748a1.272,1.272,0,0,0,.17.316.178.178,0,0,0,.136.079.143.143,0,0,0,.12-.1.807.807,0,0,0-.07-.6c-.046-.12-.19-.49-.391-.367s-.029.514.035.665" transform="translate(-510.381 -262.223)" fill="#f4aa67"/>
        <path id="Path_4667" data-name="Path 4667" d="M560.278,246.738a.1.1,0,0,1,.079-.059.1.1,0,0,1,.058.023.357.357,0,0,1,.132.232,1.137,1.137,0,0,1-.069.581c-.058.172-.144.481-.3.166a1.043,1.043,0,0,1,.1-.944" transform="translate(-499.465 -219.973)" fill="#f4aa67"/>
        <path id="Path_4668" data-name="Path 4668" d="M551.151,257.694a.625.625,0,0,1-1.074.444c-.048.215-.453.246-.665.1a1.107,1.107,0,0,1-.36-.591.8.8,0,0,0-.462-.529.3.3,0,0,0-.2-.006.226.226,0,0,0-.115.13.735.735,0,0,0,.139.771l-.459-.165c-.152.259.235.534.588.608.081.017.181.045.19.111.005.042-.031.077-.062.109a.468.468,0,0,0-.158.465.394.394,0,0,0,.488.206c.15-.067.309-.248.431-.144a.884.884,0,0,0,.13.754c.193.213.694.236.777-.012.03-.09.012-.21.116-.251.119-.048.244.07.284.175s.075.234.2.268a.869.869,0,0,0,.194.005c.275.008.431.257.538.462a6.459,6.459,0,0,0,2.135,2.324,2.651,2.651,0,0,1-.711-.86,18,18,0,0,1-1.918-4.53,1.571,1.571,0,0,0-.118-.326,1.8,1.8,0,0,1,.093.48" transform="translate(-488.599 -229.265)" fill="#ef8675"/>
        <g id="Group_19172" data-name="Group 19172" transform="translate(53.02 23.693)" opacity="0.28">
          <g id="Group_19171" data-name="Group 19171">
            <g id="Group_19170" data-name="Group 19170" clip-path="url(#clip-path-9)">
              <path id="Path_4669" data-name="Path 4669" d="M490.129,221.073a.671.671,0,0,0,.537.149.609.609,0,0,0,.381-.429,2.463,2.463,0,0,1,.571-.914,1.545,1.545,0,0,1,1.125-.418,1.915,1.915,0,0,0,.3.014.26.26,0,0,0,.229-.134c.029-.088-.048-.18-.137-.241a1.583,1.583,0,0,0-.726-.225,3.752,3.752,0,0,0-1.778.235,1.775,1.775,0,0,0-.634.4,1.108,1.108,0,0,0,.127,1.564" transform="translate(-489.738 -218.854)" fill="#fff"/>
            </g>
          </g>
        </g>
        <g id="Group_19175" data-name="Group 19175" transform="translate(53.293 26.39)" opacity="0.28">
          <g id="Group_19174" data-name="Group 19174">
            <g id="Group_19173" data-name="Group 19173" clip-path="url(#clip-path-10)">
              <path id="Path_4670" data-name="Path 4670" d="M492.276,244.136a2.255,2.255,0,0,0,.818,1.007.67.67,0,0,0,.233.145.248.248,0,0,0,.26-.054.2.2,0,0,0,.029-.106,2.738,2.738,0,0,0-.039-.686.666.666,0,0,0-.356-.537c-.387-.165-1.079-.277-.945.231" transform="translate(-492.259 -243.766)" fill="#fff"/>
            </g>
          </g>
        </g>
        <path id="Path_4671" data-name="Path 4671" d="M455.492,241.306a5.352,5.352,0,0,0-.5,1.971,1.412,1.412,0,0,0,.285,1.072.55.55,0,0,0,.49.2c.2-.044.276-.234.354-.39.261-.52.868-.872,1.208-1.36a2.547,2.547,0,0,0,.061-2.389c-.525-1.384-1.649.358-1.9.9" transform="translate(-405.731 -213.917)" fill="#e54c23"/>
        <path id="Path_4672" data-name="Path 4672" d="M542.843,221.2a3.511,3.511,0,0,0,.685,1.336,5.789,5.789,0,0,0,2.547,1.388,37.176,37.176,0,0,0,17.877,1.261c-1.155-1.338-3.248-1.945-4.647-3.125a16.738,16.738,0,0,1-2.572-3.382c-1.824-2.529-3.452-5.873-6.611-7.313-3.18-1.45-6.437,2.96-7.158,5.044a7.722,7.722,0,0,0-.121,4.791" transform="translate(-483.785 -188.228)" fill="#c43922"/>
        <path id="Path_4673" data-name="Path 4673" d="M568.188,270.807c-1.155-1.338-3.248-1.945-4.647-3.125a16.741,16.741,0,0,1-2.572-3.382c-.22-.305-.437-.622-.655-.947l-.307-.02c-2.55-.16-5.207-.249-7.46-1.216a3.553,3.553,0,0,1,.3,3.459,3.68,3.68,0,0,1-2.1,1.753c-1.249.429-2.021-.011-3.225-.181-.123-.017-.239-.028-.349-.034a3.179,3.179,0,0,0,.588,1.043,5.789,5.789,0,0,0,2.547,1.388,37.174,37.174,0,0,0,17.877,1.261" transform="translate(-487.938 -233.74)" fill="#b53221"/>
        <path id="Path_4674" data-name="Path 4674" d="M581.046,212.512a9.823,9.823,0,0,0-3.682-1.3c-1.348-.107-2.883.458-3.214,1.507a2.252,2.252,0,0,0,.1,1.389,7.4,7.4,0,0,0,3.139,3.814c.864.545,1.846.959,2.724,1.49s1.62,1.154,2.476,1.687a24.317,24.317,0,0,0,4.237,1.921c1.754.665,3.56,1.635,5.314,2.3-2.477-2.325-5.742-5.418-6.848-8.683a5.114,5.114,0,0,0-1.145-2.5,17.4,17.4,0,0,0-3.1-1.629" transform="translate(-511.928 -188.339)" fill="#e2786d"/>
        <path id="Path_4675" data-name="Path 4675" d="M587.166,222.853a25.765,25.765,0,0,1-4.253-1.885c-.862-.518-1.627-1.128-2.5-1.638s-1.869-.925-2.74-1.455a7.5,7.5,0,0,1-3.2-3.669,2.071,2.071,0,0,1-.133-1.321c.306-.992,1.819-1.507,3.161-1.386a10.405,10.405,0,0,1,3.687,1.283,26.514,26.514,0,0,1,2.852,1.395c-.036-.035-.072-.07-.111-.1a17.4,17.4,0,0,0-3.1-1.629,9.825,9.825,0,0,0-3.682-1.3c-1.348-.107-2.883.458-3.215,1.507a2.253,2.253,0,0,0,.1,1.389,7.4,7.4,0,0,0,3.139,3.814c.864.545,1.846.959,2.724,1.49s1.62,1.154,2.476,1.687a24.32,24.32,0,0,0,4.237,1.921c1.754.665,3.584,1.642,5.338,2.307-.359-.235-.784-.792-1.122-1.047l-3.656-1.366" transform="translate(-511.731 -188.28)" fill="#f75237"/>
        <path id="Path_4676" data-name="Path 4676" d="M612.2,232.079a.57.57,0,0,1-.393-.128,2.358,2.358,0,0,1-.54-.734,1.116,1.116,0,0,0-.75-.568.967.967,0,0,0-.965.5,1.619,1.619,0,0,0-.076.982c.159,1.1.809,1.543,1.749,2.352a2.281,2.281,0,0,0,1.115.451c.431.08.626.536.909.264.112-.108.172.014.33-.048a.6.6,0,0,1,.6.148,1.093,1.093,0,0,1,.247.5.944.944,0,0,1-.035.861,1.148,1.148,0,0,1-.609.341,1.839,1.839,0,0,1-1.351-.086,1.871,1.871,0,0,1-.5-.467,3.089,3.089,0,0,0-.776-.734,6.7,6.7,0,0,0-1.238-.459,6.8,6.8,0,0,1-3.18-2.575,3.3,3.3,0,0,1-.595-1.1,2.191,2.191,0,0,1,1.928-2.412,5.308,5.308,0,0,1,2.417.2,4.243,4.243,0,0,1,1.045.407,3.719,3.719,0,0,1,1.29,1.573.532.532,0,0,1,.082.509.387.387,0,0,1-.479.085.4.4,0,0,1-.232.137" transform="translate(-540.485 -204.299)" fill="#d15e52"/>
        <path id="Path_4677" data-name="Path 4677" d="M626.019,234.294a.673.673,0,0,1-.223-.5.112.112,0,0,1,.037-.079.2.2,0,0,1,.182,0,1.451,1.451,0,0,1,.478.32c.129.119.876.782.559.858-.336.081-.874-.421-1.032-.594" transform="translate(-558.043 -208.39)" fill="#f4aa67"/>
        <path id="Path_4678" data-name="Path 4678" d="M615.259,240.2a.124.124,0,0,0-.016.084c.015.125.146.219.272.295a3.655,3.655,0,0,0,1.36.51.209.209,0,0,0,.165-.024c.053-.05,0-.125-.054-.174a3.858,3.858,0,0,0-.887-.6c-.171-.084-.68-.341-.84-.093" transform="translate(-548.635 -214.102)" fill="#f4aa67"/>
        <path id="Path_4679" data-name="Path 4679" d="M615.128,251.624a1.433,1.433,0,0,0-.781.131c-.1.055-.2.138-.2.237a.21.21,0,0,0,.083.158.715.715,0,0,0,.359.123,7.5,7.5,0,0,0,1.348.023.417.417,0,0,0,.266-.072c.343-.33-.884-.583-1.074-.6" transform="translate(-547.658 -224.377)" fill="#f4aa67"/>
        <path id="Path_4680" data-name="Path 4680" d="M622.194,262.418a.6.6,0,0,0-.321.442.07.07,0,0,0,.031.065.132.132,0,0,0,.094,0l.534-.144a2.093,2.093,0,0,0,.546-.2,1.238,1.238,0,0,0,.41-.447c.015-.025.029-.058.007-.079a.1.1,0,0,0-.053-.02,2.119,2.119,0,0,0-1.248.387" transform="translate(-554.549 -233.657)" fill="#f4aa67"/>
        <path id="Path_4681" data-name="Path 4681" d="M630.1,270.649a.285.285,0,0,0-.1.131c-.022.092.064.185.172.222a.761.761,0,0,0,.348.013,1.245,1.245,0,0,0,.563-.2.37.37,0,0,0,.13-.153c.077-.2-.187-.383-.422-.375a1.3,1.3,0,0,0-.695.365" transform="translate(-561.797 -241.023)" fill="#f4aa67"/>
        <path id="Path_4682" data-name="Path 4682" d="M641.039,277.178a.171.171,0,0,0,0,.152.229.229,0,0,0,.183.081.491.491,0,0,0,.365-.141c.119-.122.237-.494-.033-.557s-.456.32-.511.464" transform="translate(-571.622 -246.751)" fill="#f4aa67"/>
        <path id="Path_4683" data-name="Path 4683" d="M639.738,232.825a.585.585,0,0,0,.225.2.173.173,0,0,0,.115.014c.077-.023.075-.11.056-.174-.04-.137-.188-.691-.4-.722-.4-.06-.068.595,0,.684" transform="translate(-570.304 -207.006)" fill="#f4aa67"/>
        <path id="Path_4684" data-name="Path 4684" d="M650.3,235.457a.844.844,0,0,0,.029.54.219.219,0,0,0,.19.136.213.213,0,0,0,.184-.18.687.687,0,0,0-.079-.576c-.12-.132-.291-.1-.325.08" transform="translate(-579.868 -209.823)" fill="#f4aa67"/>
        <path id="Path_4685" data-name="Path 4685" d="M652.535,283.737c.03.079.091.171.194.17s.169-.115.173-.206c.007-.15-.051-.536-.318-.543-.3-.008-.1.449-.05.579" transform="translate(-581.793 -252.502)" fill="#f4aa67"/>
        <path id="Path_4686" data-name="Path 4686" d="M662.809,287.92a.453.453,0,0,0,.1.215.252.252,0,0,0,.258.058.221.221,0,0,0,.1-.248c-.018-.169-.084-.984-.382-1.009-.343-.029-.118.854-.082.983" transform="translate(-590.959 -255.872)" fill="#f4aa67"/>
        <path id="Path_4687" data-name="Path 4687" d="M672.877,289.676a1.292,1.292,0,0,0,.2.308.181.181,0,0,0,.144.07.145.145,0,0,0,.115-.108.821.821,0,0,0-.115-.6c-.056-.119-.228-.483-.424-.344s.008.524.084.672" transform="translate(-599.881 -257.688)" fill="#f4aa67"/>
        <path id="Path_4688" data-name="Path 4688" d="M657.26,241.832a.1.1,0,0,1,.076-.065.105.105,0,0,1,.061.019.363.363,0,0,1,.151.226,1.156,1.156,0,0,1-.028.594c-.047.178-.111.5-.293.19a1.061,1.061,0,0,1,.034-.965" transform="translate(-585.983 -215.593)" fill="#f4aa67"/>
        <path id="Path_4689" data-name="Path 4689" d="M648.941,252.847a.636.636,0,0,1-1.057.529c-.033.222-.442.282-.667.15a1.124,1.124,0,0,1-.408-.573.811.811,0,0,0-.507-.5.308.308,0,0,0-.207.008.229.229,0,0,0-.108.14.747.747,0,0,0,.2.772l-.478-.134c-.135.274.277.524.641.574.083.011.187.033.2.1.009.042-.025.081-.055.116a.476.476,0,0,0-.127.483.4.4,0,0,0,.51.174c.148-.079.3-.274.427-.178a.9.9,0,0,0,.187.755c.211.2.721.189.787-.069.024-.093,0-.214.1-.263.117-.057.253.054.3.157s.093.232.226.257a.886.886,0,0,0,.2-.009c.28-.012.456.229.58.43a6.567,6.567,0,0,0,2.335,2.2,2.7,2.7,0,0,1-.783-.821,18.3,18.3,0,0,1-2.275-4.454,1.594,1.594,0,0,0-.144-.322,1.836,1.836,0,0,1,.13.48" transform="translate(-575.778 -225.045)" fill="#ef8675"/>
        <g id="Group_19178" data-name="Group 19178" transform="translate(63.247 23.518)" opacity="0.28">
          <g id="Group_19177" data-name="Group 19177">
            <g id="Group_19176" data-name="Group 19176" clip-path="url(#clip-path-11)">
              <path id="Path_4690" data-name="Path 4690" d="M584.67,219.629a.682.682,0,0,0,.556.112.621.621,0,0,0,.356-.463,2.5,2.5,0,0,1,.512-.969,1.571,1.571,0,0,1,1.11-.505,1.926,1.926,0,0,0,.31-.008.264.264,0,0,0,.222-.153c.023-.092-.062-.179-.156-.234a1.607,1.607,0,0,0-.752-.175,3.815,3.815,0,0,0-1.786.368,1.8,1.8,0,0,0-.614.45,1.126,1.126,0,0,0,.243,1.577" transform="translate(-584.208 -217.232)" fill="#fff"/>
            </g>
          </g>
        </g>
        <g id="Group_19181" data-name="Group 19181" transform="translate(63.641 26.38)" opacity="0.28">
          <g id="Group_19180" data-name="Group 19180">
            <g id="Group_19179" data-name="Group 19179" clip-path="url(#clip-path-12)">
              <path id="Path_4691" data-name="Path 4691" d="M587.874,244.072a2.293,2.293,0,0,0,.9.961.678.678,0,0,0,.247.131.252.252,0,0,0,.259-.074.2.2,0,0,0,.021-.11,2.784,2.784,0,0,0-.09-.692.677.677,0,0,0-.4-.519c-.4-.14-1.114-.2-.942.3" transform="translate(-587.847 -243.67)" fill="#fff"/>
            </g>
          </g>
        </g>
        <path id="Path_4692" data-name="Path 4692" d="M552.291,242.987a5.442,5.442,0,0,0-.362,2.035,1.436,1.436,0,0,0,.367,1.066.559.559,0,0,0,.511.167c.2-.059.263-.258.331-.421.226-.546.817-.947,1.126-1.467a2.59,2.59,0,0,0-.113-2.427c-.633-1.365-1.646.483-1.861,1.048" transform="translate(-492.176 -215.308)" fill="#e54c23"/>
        <path id="Path_4693" data-name="Path 4693" d="M23.789,185.041a10.249,10.249,0,0,1,4.837,1.986c1.434,1,2.566,2.348,3.916,3.455,2.723,2.234,6.047,3.151,9.4,3.97.768.187,1.1-1,.326-1.184a41.409,41.409,0,0,1-5.046-1.452,21.572,21.572,0,0,1-4.672-2.617c-1.391-.974-2.848-1.938-4.324-2.779A10,10,0,0,0,23.789,185c-.026,0-.026.038,0,.041" transform="translate(-21.197 -164.972)" fill="#a1c470"/>
        <path id="Path_4694" data-name="Path 4694" d="M44.4,247.22c1-1.214,2.887-1.711,4.373-2a15.666,15.666,0,0,1,4.981-.146c.406.054.421-.615,0-.65a14.232,14.232,0,0,0-5.353.546c-1.4.418-3.137.993-4.041,2.217-.017.023.022.053.04.031" transform="translate(-39.55 -217.917)" fill="#a1c470"/>
        <path id="Path_4695" data-name="Path 4695" d="M115.766,264.528c.576-.293,1.067-.747,1.651-1.041a6.913,6.913,0,0,1,1.965-.628,11.667,11.667,0,0,1,2.134-.131,8.019,8.019,0,0,0,2.034.043.343.343,0,0,0,0-.656,3.123,3.123,0,0,0-1.061-.075c-.389,0-.779,0-1.167.019a11.531,11.531,0,0,0-2.275.3c-1.165.291-2.776.943-3.4,2.049a.087.087,0,0,0,.118.118" transform="translate(-103.117 -233.663)" fill="#a1c470"/>
        <path id="Path_4696" data-name="Path 4696" d="M174.285,286.769a6.3,6.3,0,0,1,2-2.422,4.3,4.3,0,0,1,1.4-.617,6.608,6.608,0,0,0,1.437-.249c.283-.145.164-.514-.08-.612a2.517,2.517,0,0,0-1.666.315,6.63,6.63,0,0,0-1.408.826,4.546,4.546,0,0,0-1.8,2.707c-.012.069.084.122.121.051" transform="translate(-155.308 -252.19)" fill="#a1c470"/>
        <path id="Path_4697" data-name="Path 4697" d="M96.628,192.437a3.926,3.926,0,0,0,.2,2.567,8.418,8.418,0,0,0,.552,1.163,2.56,2.56,0,0,0,.76,1.016.267.267,0,0,0,.388-.3,2.726,2.726,0,0,0-.554-.846A7.388,7.388,0,0,1,97.33,195a6.17,6.17,0,0,1-.583-2.545.061.061,0,0,0-.12-.016" transform="translate(-86.043 -171.565)" fill="#a1c470"/>
        <path id="Path_4698" data-name="Path 4698" d="M124.682,203.412a5.15,5.15,0,0,0,.267,3.116,4.2,4.2,0,0,0,1.9,2.343.277.277,0,0,0,.31-.4,11.539,11.539,0,0,0-.886-.936,5.838,5.838,0,0,1-.8-1.224,6.623,6.623,0,0,1-.65-2.877.071.071,0,0,0-.14-.019" transform="translate(-111.069 -181.345)" fill="#a1c470"/>
      </g>
    </g>
  </g>
</svg>
