<svg id="Group_16692" data-name="Group 16692" xmlns="http://www.w3.org/2000/svg" xmlns:xlink="http://www.w3.org/1999/xlink" width="65.281" height="61.204" viewBox="0 0 65.281 61.204">
  <defs>
    <clipPath id="clip-path">
      <rect id="Rectangle_305" data-name="Rectangle 305" width="65.281" height="61.204" fill="none"/>
    </clipPath>
    <clipPath id="clip-path-3">
      <rect id="Rectangle_294" data-name="Rectangle 294" width="2.218" height="30.998" fill="none"/>
    </clipPath>
    <clipPath id="clip-path-4">
      <rect id="Rectangle_295" data-name="Rectangle 295" width="2.762" height="7.672" fill="none"/>
    </clipPath>
    <clipPath id="clip-path-5">
      <rect id="Rectangle_296" data-name="Rectangle 296" width="1.527" height="2.286" fill="none"/>
    </clipPath>
    <clipPath id="clip-path-6">
      <rect id="Rectangle_297" data-name="Rectangle 297" width="2.331" height="1.549" fill="none"/>
    </clipPath>
    <clipPath id="clip-path-7">
      <rect id="Rectangle_298" data-name="Rectangle 298" width="2.566" height="0.877" fill="none"/>
    </clipPath>
    <clipPath id="clip-path-8">
      <rect id="Rectangle_299" data-name="Rectangle 299" width="2.506" height="1.229" fill="none"/>
    </clipPath>
    <clipPath id="clip-path-9">
      <rect id="Rectangle_300" data-name="Rectangle 300" width="1.137" height="2.54" fill="none"/>
    </clipPath>
    <clipPath id="clip-path-10">
      <rect id="Rectangle_301" data-name="Rectangle 301" width="8.733" height="11.199" fill="none"/>
    </clipPath>
    <clipPath id="clip-path-11">
      <rect id="Rectangle_302" data-name="Rectangle 302" width="5.231" height="2.179" fill="none"/>
    </clipPath>
    <clipPath id="clip-path-12">
      <rect id="Rectangle_303" data-name="Rectangle 303" width="3.774" height="4.417" fill="none"/>
    </clipPath>
  </defs>
  <g id="Group_16691" data-name="Group 16691" clip-path="url(#clip-path)">
    <g id="Group_16690" data-name="Group 16690">
      <g id="Group_16689" data-name="Group 16689" clip-path="url(#clip-path)">
        <path id="Path_1816" data-name="Path 1816" d="M.02,490.31c.144.926,1.263,1.291,2.187,1.447a70.594,70.594,0,0,0,15.545.874c1.593-.087,3.425-.138,4.5,1.04a11.806,11.806,0,0,0,.793.949c.918.813,2.345.5,3.489.062a4.75,4.75,0,0,0,2.273-1.5,3.477,3.477,0,0,0-.413-4.065,8.291,8.291,0,0,0-3.689-2.282,29.662,29.662,0,0,0-14.061-1.507C8.778,485.575-.481,487.088.02,490.31" transform="translate(0 -437.158)" fill="#e7f2f0"/>
        <path id="Path_1817" data-name="Path 1817" d="M27.17,70.526c-.019-.728-.041-1.452-.041-2.153V29.515H5.115V68.373c0,.7-.022,1.424-.041,2.153a10.06,10.06,0,0,0-.024,2.325,9.714,9.714,0,0,0,1.2,5.186,6.822,6.822,0,0,0,3.421,2.576c2.117.852,10.79.852,12.907,0A6.822,6.822,0,0,0,26,78.037a9.714,9.714,0,0,0,1.2-5.186,10.06,10.06,0,0,0-.024-2.325" transform="translate(-4.5 -26.6)" fill="#c6dfe5"/>
        <path id="Path_1818" data-name="Path 1818" d="M37.864,68.9c-.017-.7-.036-1.394-.036-2.067V29.516H18.415V66.832c0,.673-.019,1.368-.036,2.067a10.522,10.522,0,0,0-.021,2.233,10.007,10.007,0,0,0,1.056,4.98,6.088,6.088,0,0,0,3.017,2.474c1.867.818,9.515.818,11.382,0a6.088,6.088,0,0,0,3.017-2.474,10.006,10.006,0,0,0,1.056-4.98,10.51,10.51,0,0,0-.021-2.233" transform="translate(-16.5 -26.601)" fill="#d4eff4"/>
        <path id="Path_1819" data-name="Path 1819" d="M37.827,196.609H18.414v20.814c0,.673-.019,1.368-.036,2.067a10.509,10.509,0,0,0-.021,2.233,10.006,10.006,0,0,0,1.056,4.98,6.088,6.088,0,0,0,3.017,2.474c1.867.818,9.515.818,11.382,0a6.088,6.088,0,0,0,3.017-2.474,10.008,10.008,0,0,0,1.056-4.98,10.522,10.522,0,0,0-.021-2.233c-.017-.7-.036-1.394-.036-2.067V196.609Z" transform="translate(-16.499 -177.191)" fill="#ff5e48"/>
        <path id="Path_1820" data-name="Path 1820" d="M38.807,180.958c0,1.61-4.347,2.915-9.71,2.915s-9.71-1.305-9.71-2.915,4.347-2.915,9.71-2.915,9.71,1.305,9.71,2.915" transform="translate(-17.473 -160.459)" fill="#ff9580"/>
        <path id="Path_1821" data-name="Path 1821" d="M28.233,2.914c0,1.61-4.928,2.915-11.007,2.915S6.218,4.524,6.218,2.914,11.146,0,17.225,0,28.233,1.3,28.233,2.914" transform="translate(-5.604 0.001)" fill="#c6dfe5"/>
        <path id="Path_1822" data-name="Path 1822" d="M38.8,12.054c0,.968-4.346,1.753-9.707,1.753s-9.707-.785-9.707-1.753S23.734,10.3,29.095,10.3s9.707.785,9.707,1.753" transform="translate(-17.473 -9.284)" fill="#d4eff4"/>
        <g id="Group_16661" data-name="Group 16661" transform="translate(4.298 8.884)" opacity="0.42">
          <g id="Group_16660" data-name="Group 16660">
            <g id="Group_16659" data-name="Group 16659" clip-path="url(#clip-path-3)">
              <path id="Path_1823" data-name="Path 1823" d="M43.516,93.145q.029,9.781.058,19.561c.006,1.98.012,3.972.213,5.92a5.382,5.382,0,0,0,.4,1.77c.242.485.674.737.991.409a1.986,1.986,0,0,0,.382-.968,14.271,14.271,0,0,0-.1-4.121A89.234,89.234,0,0,1,45.385,96.2c.169-1.582.782-4.7-.177-5.862-1.142-1.381-1.7,1.3-1.692,2.805" transform="translate(-43.516 -89.956)" fill="#fff"/>
            </g>
          </g>
        </g>
        <g id="Group_16664" data-name="Group 16664" transform="translate(4.797 41.71)" opacity="0.42">
          <g id="Group_16663" data-name="Group 16663">
            <g id="Group_16662" data-name="Group 16662" clip-path="url(#clip-path-4)">
              <path id="Path_1824" data-name="Path 1824" d="M48.649,423.65a7.968,7.968,0,0,0-.016,2.073,7.707,7.707,0,0,0,1.083,3.938.871.871,0,0,0,.429.315c.317.074.633-.245.823-.693a5.244,5.244,0,0,0,.318-1.559,14.23,14.23,0,0,0-.039-2.751,5.414,5.414,0,0,0-.55-2.035c-.6-1.034-1.78-.768-2.049.712" transform="translate(-48.573 -422.315)" fill="#fff"/>
            </g>
          </g>
        </g>
        <path id="Path_1825" data-name="Path 1825" d="M126.511,259.026c.221,3.76,9.488,7.052,25.195,7.052,16.218,0,25.065-2.5,25.193-7.052s-8.654-7.89-24.809-7.821c-13.606.058-25,1.026-25.578,7.821" transform="translate(-114.016 -226.394)" fill="#f7d3b0"/>
        <path id="Path_1826" data-name="Path 1826" d="M137.556,266.3c.212,3.355,9.077,6.291,24.1,6.291,15.516,0,23.98-2.231,24.1-6.291s-8.28-7.039-23.735-6.978c-13.017.052-23.919.915-24.471,6.978" transform="translate(-123.97 -233.711)" fill="#e2bfa3"/>
        <path id="Path_1827" data-name="Path 1827" d="M137.556,279.373c.17,2.689,5.9,5.11,15.909,5.964q-.806-.547-1.566-1.158a24.524,24.524,0,0,1-7.145-9.405c-.132-.308-.275-.63-.412-.96-3.98,1.008-6.527,2.709-6.787,5.559" transform="translate(-123.97 -246.771)" fill="#cead97"/>
        <path id="Path_1828" data-name="Path 1828" d="M126.9,262.73a3.171,3.171,0,0,1-.525-.616,3.7,3.7,0,0,1-.236-.835,2.513,2.513,0,0,0-1.52-1.688,1.106,1.106,0,0,1-.523-.287,1.151,1.151,0,0,1-.149-.588,2.156,2.156,0,0,0-1.436-1.754,2.2,2.2,0,0,1-.682-.264c-.432-.33-.364-1-.621-1.477a2.32,2.32,0,0,0-.625-.661l-1.227-.994a3.013,3.013,0,0,0-1.4-.767,1.807,1.807,0,0,1-.811-.166,1.62,1.62,0,0,1-.41-.633,1.951,1.951,0,0,0-2.849-.548,2,2,0,0,0,0,2.92,1.792,1.792,0,0,0-.308,2.134,5.1,5.1,0,0,0,1.579,1.68,1.379,1.379,0,0,1,.406.42,1.809,1.809,0,0,1,.1.833,2.952,2.952,0,0,0,2.209,2.765l9.7,3.754a3.238,3.238,0,0,0-.663-3.228" transform="translate(-102.063 -226.26)" fill="#6fb56b"/>
        <path id="Path_1829" data-name="Path 1829" d="M213.4,212.951a9.523,9.523,0,0,1-1.373-2.145,3.21,3.21,0,0,1-.081-2.484,2.4,2.4,0,0,0,.235-.606,2.317,2.317,0,0,0-.1-.766,2.55,2.55,0,0,1,3.375-2.89,1.815,1.815,0,0,1,2.957,1.534,1.656,1.656,0,0,1,1.734.849,4.205,4.205,0,0,1,.458,2,3.057,3.057,0,0,1,3.092,4.016,5.173,5.173,0,0,1,2.067,2.885,2.209,2.209,0,0,1-1.77,2.661c.672.064.979.972.69,1.582a2.815,2.815,0,0,1-1.555,1.221,15.158,15.158,0,0,1-3.942,1.074,5,5,0,0,1-2.392-.139c-1.657-.616-2.421-2.447-3.012-3.972-.523-1.349-2.176-3.684-.379-4.816" transform="translate(-190.818 -183.546)" fill="#81cc7a"/>
        <path id="Path_1830" data-name="Path 1830" d="M444.061,234.927a1.973,1.973,0,0,1,2.137-.78,2.215,2.215,0,0,1,4.252-.653c.621-.507,1.644.076,1.812.86a2.816,2.816,0,0,1-.737,2.208,1.471,1.471,0,0,1,.858,1.644,4.293,4.293,0,0,1-.9,1.789,2.272,2.272,0,0,1,.5,2.846,3.158,3.158,0,0,1-2.623,1.494,6.149,6.149,0,0,1-2.963-.857c-3.382,4.169-7.879-5.581-2.266-6.3a2.058,2.058,0,0,1-.071-2.255" transform="translate(-397.869 -209.205)" fill="#6fb56b"/>
        <path id="Path_1831" data-name="Path 1831" d="M506.607,264.279a7.145,7.145,0,0,1,1.689-2.007,9.766,9.766,0,0,1,1.662-.964c1.584-.785,3.511-1.565,5.031-.661.278.165.525.381.816.521a4.764,4.764,0,0,0,2.112.205,3.849,3.849,0,0,1,2.093.5,1.989,1.989,0,0,1,.976,1.824,11.219,11.219,0,0,0-.234,1.124,6.4,6.4,0,0,0,.172.974,1.7,1.7,0,0,1-1.26,1.908c-.293.05-.594.007-.888.05-1.295.189-1.845,1.854-3.052,2.358-.34.142-.713.182-1.064.294a9.646,9.646,0,0,0-1.071.482,6.248,6.248,0,0,1-6.938-1.32c-1.527-1.6-1.1-3.544-.044-5.287" transform="translate(-455.716 -234.539)" fill="#81cc7a"/>
        <path id="Path_1832" data-name="Path 1832" d="M455.368,345.214a.586.586,0,0,0,.351.025c.141-.058.189-.228.24-.372a1.758,1.758,0,0,1,2.11-1.046,1.361,1.361,0,0,0,.544.125c.263-.029.45-.257.659-.419a1.5,1.5,0,0,1,1.864.073,1.793,1.793,0,0,0,.419.35,4.194,4.194,0,0,0,.582.118c.663.194.833,1.184,1.5,1.367a1.626,1.626,0,0,1,2.257-.366,2.552,2.552,0,0,1,.951,2.264,3.724,3.724,0,0,1-3.859,3.345c-.85-.068-1.662-.437-2.515-.433a6.615,6.615,0,0,0-2.361.655c-1.852.737-3.7.476-4.255-1.639-.315-1.192-.825-4.591,1.512-4.046" transform="translate(-408.781 -309.337)" fill="#6fb56b"/>
        <path id="Path_1833" data-name="Path 1833" d="M484.317,260.408s-2.034,3.93,3.242,6.241,6.765-2.183,6.765-2.183Z" transform="translate(-436.137 -234.689)" fill="#e24c24"/>
        <path id="Path_1834" data-name="Path 1834" d="M497.178,257.474c-.453,1.083-3.05,1.029-5.8-.122s-4.614-2.961-4.161-4.044,3.05-1.029,5.8.122,4.614,2.961,4.161,4.044" transform="translate(-439.035 -227.59)" fill="#ff5a27"/>
        <path id="Path_1835" data-name="Path 1835" d="M500.639,259.921c-.4.953-2.766.871-5.288-.184s-4.244-2.682-3.845-3.635,2.766-.871,5.288.184,4.244,2.682,3.845,3.635" transform="translate(-442.911 -230.209)" fill="#ff8b78"/>
        <path id="Path_1836" data-name="Path 1836" d="M515.729,267.531c-.218.008-.479.066-.553.271a1.136,1.136,0,0,1-.073.258c-.049.074-.146.11-.185.189a.262.262,0,0,0,0,.185c.112.39.551.569.936.7l3,.984a.82.82,0,0,0,.778-.016.542.542,0,0,0,.094-.627,1.453,1.453,0,0,0-.452-.5,6.321,6.321,0,0,0-1.764-1.035,4.658,4.658,0,0,0-1.774-.4" transform="translate(-464.046 -241.107)" fill="#ff5a27"/>
        <path id="Path_1837" data-name="Path 1837" d="M500.342,263.91a5.076,5.076,0,0,0,.557.16.151.151,0,0,0,.109-.029.15.15,0,0,0-.071-.269q-.086-.02-.171-.042l.039.01q-.176-.047-.347-.108a.15.15,0,1,0-.116.277" transform="translate(-450.845 -237.587)" fill="#ffb164"/>
        <path id="Path_1838" data-name="Path 1838" d="M506.79,260a.15.15,0,0,0,.116-.277.15.15,0,0,0-.116.277" transform="translate(-456.657 -234.057)" fill="#ffb164"/>
        <path id="Path_1839" data-name="Path 1839" d="M506.787,259.96l.3.157a.151.151,0,0,0,.115,0,.15.15,0,0,0,.082-.2.168.168,0,0,0-.081-.082l-.3-.157a.15.15,0,0,0-.2.2.168.168,0,0,0,.081.081" transform="translate(-456.652 -234.025)" fill="#ffb164"/>
        <path id="Path_1840" data-name="Path 1840" d="M519.551,258.544a.413.413,0,0,0,0,.1.417.417,0,0,0,.027.093.408.408,0,0,0,.117.153.113.113,0,0,0,.054.025.111.111,0,0,0,.058.005.167.167,0,0,0,.1-.056l.02-.035a.15.15,0,0,0,.01-.078.158.158,0,0,0-.056-.1l-.022-.019.027.028a.251.251,0,0,1-.038-.05l.019.033a.261.261,0,0,1-.025-.06l.01.037a.246.246,0,0,1-.008-.062c0,.013,0,.026,0,.039,0,0,0-.01,0-.015a.166.166,0,0,0-.029-.109.111.111,0,0,0-.045-.038.113.113,0,0,0-.056-.021.152.152,0,0,0-.109.029.149.149,0,0,0-.059.1" transform="translate(-468.237 -232.892)" fill="#ffb164"/>
        <path id="Path_1841" data-name="Path 1841" d="M529.356,260.95l-.043.167a.167.167,0,0,0,.029.109.112.112,0,0,0,.045.038.114.114,0,0,0,.056.021.152.152,0,0,0,.109-.029l.028-.027a.151.151,0,0,0,.031-.074l.043-.167a.166.166,0,0,0-.029-.109.111.111,0,0,0-.044-.038.115.115,0,0,0-.056-.021.152.152,0,0,0-.109.029l-.028.027a.151.151,0,0,0-.031.074" transform="translate(-477.035 -235.059)" fill="#ffb164"/>
        <path id="Path_1842" data-name="Path 1842" d="M546.051,268.456l.191-.078a.111.111,0,0,0,.047-.033.155.155,0,0,0,.035-.163l-.019-.033a.149.149,0,0,0-.062-.048l-.039-.01a.149.149,0,0,0-.076.01l-.191.078a.145.145,0,0,0-.092.139.111.111,0,0,0,.01.057l.019.033a.15.15,0,0,0,.062.048l.039.01a.149.149,0,0,0,.076-.01" transform="translate(-491.934 -241.611)" fill="#ffb164"/>
        <path id="Path_1843" data-name="Path 1843" d="M558.715,276.407l.3.036a.156.156,0,0,0,.109-.029.15.15,0,0,0,.03-.21.155.155,0,0,0-.1-.059l-.3-.036a.156.156,0,0,0-.109.029.15.15,0,0,0-.03.21.156.156,0,0,0,.1.059" transform="translate(-503.416 -248.839)" fill="#ffb164"/>
        <path id="Path_1844" data-name="Path 1844" d="M567.075,284.4a1.9,1.9,0,0,0,.452.156.151.151,0,0,0,.109-.029.15.15,0,0,0,.03-.21.169.169,0,0,0-.1-.059l-.09-.022.039.01a1.749,1.749,0,0,1-.323-.124.151.151,0,0,0-.2.081.154.154,0,0,0,.081.2" transform="translate(-510.986 -256.051)" fill="#ffb164"/>
        <path id="Path_1845" data-name="Path 1845" d="M570.185,293.471l.368.256a.16.16,0,0,0,.113.031.15.15,0,0,0,.073-.267l-.369-.256a.159.159,0,0,0-.113-.031.15.15,0,0,0-.073.267" transform="translate(-513.821 -264.245)" fill="#ffb164"/>
        <path id="Path_1846" data-name="Path 1846" d="M562.3,296.233l.146.275a.168.168,0,0,0,.081.082.153.153,0,0,0,.115,0,.151.151,0,0,0,.082-.081.146.146,0,0,0,0-.115l-.146-.275a.168.168,0,0,0-.081-.081.153.153,0,0,0-.115,0,.15.15,0,0,0-.081.081.146.146,0,0,0,0,.115" transform="translate(-506.753 -266.789)" fill="#ffb164"/>
        <path id="Path_1847" data-name="Path 1847" d="M550.211,296.578a.36.36,0,0,1,.006.062c0-.013,0-.026,0-.039a.353.353,0,0,1-.011.088l.01-.039c0,.01-.005.019-.009.028a.154.154,0,0,0,.081.2.15.15,0,0,0,.2-.081.491.491,0,0,0,.025-.255.159.159,0,0,0-.056-.1.116.116,0,0,0-.054-.026.112.112,0,0,0-.058-.005.152.152,0,0,0-.1.056l-.02.035a.15.15,0,0,0-.01.078" transform="translate(-495.856 -267.133)" fill="#ffb164"/>
        <path id="Path_1848" data-name="Path 1848" d="M533.834,292.543a.531.531,0,0,1-.017.1l.01-.039a.532.532,0,0,1-.045.112.167.167,0,0,0,0,.115.15.15,0,0,0,.2.082l.033-.019a.149.149,0,0,0,.048-.062.527.527,0,0,0,.043-.1.705.705,0,0,0,.029-.146.159.159,0,0,0-.029-.109.112.112,0,0,0-.045-.038.114.114,0,0,0-.056-.021.15.15,0,0,0-.168.13" transform="translate(-481.055 -263.533)" fill="#ffb164"/>
        <path id="Path_1849" data-name="Path 1849" d="M521.91,287.938a.261.261,0,0,1-.021.046l.02-.035a.278.278,0,0,1-.043.056l.028-.027a.275.275,0,0,1-.054.04l.033-.019a.264.264,0,0,1-.056.023.167.167,0,0,0-.082.081.15.15,0,0,0,.081.2l.039.01a.151.151,0,0,0,.076-.01.4.4,0,0,0,.089-.042.279.279,0,0,0,.053-.039.406.406,0,0,0,.114-.165.16.16,0,0,0,0-.115.15.15,0,0,0-.2-.082.149.149,0,0,0-.081.081" transform="translate(-470.196 -259.417)" fill="#ffb164"/>
        <path id="Path_1850" data-name="Path 1850" d="M509.526,279.229a1.147,1.147,0,0,1-.152.053l.037-.01a1.128,1.128,0,0,1-.236.037.151.151,0,0,0-.1.056.154.154,0,0,0-.031.113.151.151,0,0,0,.056.1l.035.02a.149.149,0,0,0,.078.01,1.231,1.231,0,0,0,.425-.1.156.156,0,0,0,.081-.081.153.153,0,0,0,0-.115.151.151,0,0,0-.081-.082.154.154,0,0,0-.115,0" transform="translate(-458.769 -251.641)" fill="#ffb164"/>
        <path id="Path_1851" data-name="Path 1851" d="M499.516,271.4l.127-.052a.154.154,0,0,0,.082-.2l-.019-.033a.149.149,0,0,0-.062-.048l-.039-.01a.15.15,0,0,0-.076.01l-.127.052a.167.167,0,0,0-.081.081.114.114,0,0,0-.01.058.112.112,0,0,0,.01.057l.019.033a.149.149,0,0,0,.062.048l.039.01a.15.15,0,0,0,.076-.01" transform="translate(-449.996 -244.291)" fill="#ffb164"/>
        <g id="Group_16667" data-name="Group 16667" transform="translate(48.339 27.949)" opacity="0.24">
          <g id="Group_16666" data-name="Group 16666">
            <g id="Group_16665" data-name="Group 16665" clip-path="url(#clip-path-5)">
              <path id="Path_1852" data-name="Path 1852" d="M489.826,284.436a2.162,2.162,0,0,0,.758.783c.119.059.293.081.359-.035.053-.094-.007-.21-.067-.3a2.094,2.094,0,0,1-.335-.62c-.1-.389-.189-1.289-.807-1.284-.64,0-.073,1.211.092,1.454" transform="translate(-489.437 -282.982)" fill="#fff"/>
            </g>
          </g>
        </g>
        <path id="Path_1853" data-name="Path 1853" d="M323.811,210.773a2.927,2.927,0,0,1,.126-2.992,5.277,5.277,0,0,1,2.286-1.5,3.376,3.376,0,0,1-.635-4.1,3.893,3.893,0,0,1,4.037-1.709,2.288,2.288,0,0,1,1.845-2.675,3.34,3.34,0,0,1,3.277,1.352,2.3,2.3,0,0,1,2.792.413,1.953,1.953,0,0,1-.13,2.641,2.914,2.914,0,0,1,.254,4.151,2.46,2.46,0,0,1,.922,2.184,2.549,2.549,0,0,1-1.424,1.933,2.142,2.142,0,0,1,.054,1.612,1.991,1.991,0,0,1-1.759.814,12.429,12.429,0,0,0-2.06.014,1.391,1.391,0,0,1-.945,1.65,4.665,4.665,0,0,1-2.181.131l-2.474-.245a2.809,2.809,0,0,1-1.324-.357c-.433-.3-.6-1.023-1-1.428a7.525,7.525,0,0,1-1.662-1.89" transform="translate(-291.516 -178.207)" fill="#89e269"/>
        <path id="Path_1854" data-name="Path 1854" d="M481.724,328.3l-.088,1.618s.832,2.328,4.323,2.764c3.93.49,6.846-.762,6.869-3.137a5.436,5.436,0,0,0-.512-1.414l-10.66.083Z" transform="translate(-434.068 -295.719)" fill="#59b24f"/>
        <path id="Path_1855" data-name="Path 1855" d="M493.213,306.339c.033,1.535-2.333,2.7-5.286,2.607s-5.374-1.415-5.407-2.95,2.334-2.7,5.286-2.607,5.374,1.415,5.407,2.95" transform="translate(-434.864 -273.42)" fill="#84d17d"/>
        <path id="Path_1856" data-name="Path 1856" d="M495.843,309.2c.025,1.165-2.148,2.233-4.867,2.146s-5.118-1.369-5.143-2.534,2.336-2.337,5.056-2.25,4.93,1.472,4.955,2.638" transform="translate(-437.849 -276.281)" fill="#b0eda9"/>
        <path id="Path_1857" data-name="Path 1857" d="M503.6,314.2a.412.412,0,0,1-.207-.278c-.01-.188.219-.272.405-.285a2.81,2.81,0,0,1,1.153.169,1.788,1.788,0,0,1-.29-.461.167.167,0,0,1-.019-.11c.025-.083.147-.069.231-.037a5.038,5.038,0,0,1,1.2.67,1.133,1.133,0,0,1-.208-.537.511.511,0,0,1,.227-.482.587.587,0,0,1,.678.171,1.6,1.6,0,0,1,.322.683,1.634,1.634,0,0,1,1.209-.375.327.327,0,0,1,.271.133c.077.144-.066.292-.194.38a1.611,1.611,0,0,1,1.484.371.232.232,0,0,1,.1.167.2.2,0,0,1-.047.1,1.2,1.2,0,0,1-.727.415,3.777,3.777,0,0,1-.868.041,3.521,3.521,0,0,1,.816.409.154.154,0,0,1,.074.085.126.126,0,0,1-.023.087.841.841,0,0,1-.95.292,2.759,2.759,0,0,1-.943-.562.838.838,0,0,1,.22.621.4.4,0,0,1-.465.343.6.6,0,0,1-.248-.168,2.226,2.226,0,0,1-.5-.764.76.76,0,0,1-.708.712.355.355,0,0,1-.273-.085.3.3,0,0,1-.042-.326.8.8,0,0,1,.217-.257.836.836,0,0,1-.879.142.236.236,0,0,1-.123-.242.259.259,0,0,1,.118-.127c.127-.084.474-.194.519-.33a3.791,3.791,0,0,1-1.532-.57" transform="translate(-453.673 -281.904)" fill="#c1ffb8"/>
        <path id="Path_1858" data-name="Path 1858" d="M303.318,332.922l1.757,1.348a10,10,0,0,0,7.777-1.471c4.756-2.929,6.437-6.375,3.745-8.265a10.365,10.365,0,0,0-2.164-.681l-11.285,9.059Z" transform="translate(-273.208 -291.868)" fill="#59b24f"/>
        <path id="Path_1859" data-name="Path 1859" d="M309.077,322.554c1.791,1.18.6,4.1-2.661,6.513s-7.356,3.419-9.147,2.239-.6-4.1,2.661-6.513,7.356-3.419,9.147-2.239" transform="translate(-267.158 -290.251)" fill="#84d17d"/>
        <path id="Path_1860" data-name="Path 1860" d="M313.9,326.781c1.36.9.262,3.571-2.741,5.8s-7.03,3.24-8.39,2.344-.179-3.811,2.824-6.037,6.947-3,8.307-2.1" transform="translate(-272.364 -294.178)" fill="#b0eda9"/>
        <path id="Path_1861" data-name="Path 1861" d="M320.169,345.878a.848.848,0,0,1-.539-.044c-.226-.139-.077-.4.107-.566a4.43,4.43,0,0,1,1.424-.839,3.692,3.692,0,0,1-.836-.118.28.28,0,0,1-.146-.071c-.069-.087.077-.179.2-.224a9.985,9.985,0,0,1,2.052-.489,2.163,2.163,0,0,1-.836-.247.527.527,0,0,1-.309-.572c.09-.273.519-.438.919-.437a3.16,3.16,0,0,1,1.125.266,1.754,1.754,0,0,1,.862-1.315.622.622,0,0,1,.442-.124c.247.048.263.285.227.463a2.693,2.693,0,0,1,2.009-.96.466.466,0,0,1,.294.051.2.2,0,0,1,.068.121,1.114,1.114,0,0,1-.3.94,5.047,5.047,0,0,1-.879.764,6.842,6.842,0,0,1,1.34-.366.32.32,0,0,1,.177,0,.148.148,0,0,1,.075.088c.156.39-.195.81-.68,1.031a5.514,5.514,0,0,1-1.65.354,1.56,1.56,0,0,1,.945.3.385.385,0,0,1-.1.662,1.231,1.231,0,0,1-.457.077,4.609,4.609,0,0,1-1.407-.18.715.715,0,0,1,.058,1.158.623.623,0,0,1-.389.163.482.482,0,0,1-.417-.222.7.7,0,0,1-.062-.385,1.018,1.018,0,0,1-.776.853.456.456,0,0,1-.408-.086.227.227,0,0,1-.02-.2c.039-.173.284-.552.176-.7a6.938,6.938,0,0,1-2.287.843" transform="translate(-287.958 -306.958)" fill="#c1ffb8"/>
        <path id="Path_1862" data-name="Path 1862" d="M303.458,223.906l-1.609.707s-1.889,1.965-.756,5.63c1.275,4.125,3.788,6.394,6.1,5.251a6.186,6.186,0,0,0,1.143-1.2l-4.828-10.5Z" transform="translate(-271.03 -201.694)" fill="#59b24f"/>
        <path id="Path_1863" data-name="Path 1863" d="M321.329,233.934c-1.474.786-3.661-.981-4.884-3.946s-1.02-6.007.455-6.792,3.661.981,4.884,3.946,1.02,6.007-.455,6.793" transform="translate(-284.471 -200.983)" fill="#84d17d"/>
        <path id="Path_1864" data-name="Path 1864" d="M325.839,236.974c-1.119.6-3.124-1.028-4.25-3.759s-.951-5.731.168-6.328,3.308,1.163,4.435,3.894.767,5.6-.353,6.193" transform="translate(-289.139 -204.374)" fill="#b0eda9"/>
        <path id="Path_1865" data-name="Path 1865" d="M333.028,242.824a.476.476,0,0,1,.178-.341c.178-.1.362.083.457.261a3.1,3.1,0,0,1,.349,1.222,2.064,2.064,0,0,1,.318-.512.187.187,0,0,1,.1-.073c.092-.016.133.111.139.21a5.775,5.775,0,0,1-.114,1.519,1.291,1.291,0,0,1,.428-.469.531.531,0,0,1,.569-.012.653.653,0,0,1,.136.754,1.831,1.831,0,0,1-.519.654,1.706,1.706,0,0,1,.9,1.011.372.372,0,0,1-.008.333c-.105.147-.312.078-.455-.005a1.8,1.8,0,0,1,.3,1.649.267.267,0,0,1-.12.177.2.2,0,0,1-.121,0,1.231,1.231,0,0,1-.727-.515,4.066,4.066,0,0,1-.426-.838,4.021,4.021,0,0,1-.034,1.008.178.178,0,0,1-.05.115.133.133,0,0,1-.095.02.881.881,0,0,1-.706-.8,3.167,3.167,0,0,1,.125-1.208.951.951,0,0,1-.5.522.407.407,0,0,1-.54-.291.7.7,0,0,1,.053-.327,2.574,2.574,0,0,1,.518-.869.78.78,0,0,1-1.006-.351.4.4,0,0,1-.039-.311.333.333,0,0,1,.3-.2.812.812,0,0,1,.346.088c-.278-.176-.58-.442-.529-.8.015-.107.08-.224.179-.241a.263.263,0,0,1,.176.054c.138.084.4.373.552.351a4.289,4.289,0,0,1-.129-1.794" transform="translate(-299.316 -218.508)" fill="#c1ffb8"/>
        <path id="Path_1866" data-name="Path 1866" d="M254.9,335.987s.328,4.413,6.032,3.616,4.617-5.4,4.617-5.4Z" transform="translate(-229.722 -301.192)" fill="#e24c24"/>
        <path id="Path_1867" data-name="Path 1867" d="M265.47,322.362c.182,1.16-2.058,2.475-5,2.937s-5.481-.1-5.663-1.263,2.058-2.475,5-2.937,5.481.1,5.663,1.263" transform="translate(-229.628 -289.241)" fill="#ff5a27"/>
        <path id="Path_1868" data-name="Path 1868" d="M269.087,324.8c.16,1.021-1.9,2.191-4.6,2.615s-5.02-.06-5.18-1.081,1.9-2.191,4.6-2.615,5.02.06,5.18,1.081" transform="translate(-233.689 -291.613)" fill="#ff8b78"/>
        <path id="Path_1869" data-name="Path 1869" d="M285.779,333.489c-.182.121-.373.307-.329.521a1.135,1.135,0,0,1,.073.259c0,.089-.066.17-.058.258a.261.261,0,0,0,.095.159,1.28,1.28,0,0,0,1.161.1l3.067-.732c.264-.063.571-.163.655-.421a.542.542,0,0,0-.249-.584,1.452,1.452,0,0,0-.647-.19,6.322,6.322,0,0,0-2.045.043,4.657,4.657,0,0,0-1.722.586" transform="translate(-257.251 -299.93)" fill="#ff5a27"/>
        <path id="Path_1870" data-name="Path 1870" d="M267.866,346.512a5.069,5.069,0,0,0,.559-.156.15.15,0,0,0,.078-.082.15.15,0,0,0-.2-.192q-.084.028-.168.054l.039-.012q-.174.052-.352.09a.15.15,0,1,0,.047.3" transform="translate(-241.254 -311.893)" fill="#ffb164"/>
        <path id="Path_1871" data-name="Path 1871" d="M271.363,341.118a.15.15,0,0,0-.047-.3.15.15,0,0,0,.047.3" transform="translate(-244.41 -307.159)" fill="#ffb164"/>
        <path id="Path_1872" data-name="Path 1872" d="M271.313,340.847l.341-.026a.151.151,0,0,0,.1-.06.15.15,0,0,0-.033-.21.168.168,0,0,0-.112-.027l-.341.025a.15.15,0,0,0-.065.27.168.168,0,0,0,.112.027" transform="translate(-244.36 -306.893)" fill="#ffb164"/>
        <path id="Path_1873" data-name="Path 1873" d="M281.442,333.176a.406.406,0,0,0,.054.08.418.418,0,0,0,.072.065.408.408,0,0,0,.18.069.113.113,0,0,0,.06-.007.111.111,0,0,0,.052-.026.167.167,0,0,0,.054-.1v-.04a.149.149,0,0,0-.032-.072.158.158,0,0,0-.1-.054l-.029-.005.038.009a.25.25,0,0,1-.058-.023l.034.019a.262.262,0,0,1-.053-.038l.028.026a.248.248,0,0,1-.04-.048l.021.033-.007-.013a.169.169,0,0,0-.082-.078.111.111,0,0,0-.058-.009.114.114,0,0,0-.059.012.152.152,0,0,0-.078.082.149.149,0,0,0,0,.117" transform="translate(-253.633 -300.08)" fill="#ffb164"/>
        <path id="Path_1874" data-name="Path 1874" d="M291.388,329.88l.051.164a.168.168,0,0,0,.082.078.111.111,0,0,0,.058.009.113.113,0,0,0,.059-.012.152.152,0,0,0,.078-.082l.009-.038a.151.151,0,0,0-.012-.079l-.051-.164a.168.168,0,0,0-.082-.078.111.111,0,0,0-.058-.009.114.114,0,0,0-.059.012.152.152,0,0,0-.078.082l-.009.038a.151.151,0,0,0,.012.079" transform="translate(-262.597 -297.109)" fill="#ffb164"/>
        <path id="Path_1875" data-name="Path 1875" d="M309.573,326.816l.122-.167a.167.167,0,0,0,.027-.112.166.166,0,0,0-.06-.1l-.034-.018a.149.149,0,0,0-.078-.009l-.039.012a.148.148,0,0,0-.059.048l-.122.167a.113.113,0,0,0-.023.052.154.154,0,0,0,.056.157l.034.018a.149.149,0,0,0,.078.008l.039-.011a.15.15,0,0,0,.059-.048" transform="translate(-278.753 -294.173)" fill="#ffb164"/>
        <path id="Path_1876" data-name="Path 1876" d="M324.159,326.715l.273-.126a.156.156,0,0,0,.078-.082.15.15,0,0,0-.085-.195.156.156,0,0,0-.117,0l-.273.126a.156.156,0,0,0-.078.082.15.15,0,0,0,.085.195.156.156,0,0,0,.117,0" transform="translate(-291.953 -294.075)" fill="#ffb164"/>
        <path id="Path_1877" data-name="Path 1877" d="M335.462,329.465a1.907,1.907,0,0,0,.467-.1.151.151,0,0,0,.078-.082.15.15,0,0,0-.085-.195.168.168,0,0,0-.117,0l-.089.029.039-.011a1.749,1.749,0,0,1-.34.064.151.151,0,0,0-.125.172.154.154,0,0,0,.172.125" transform="translate(-302.174 -296.575)" fill="#ffb164"/>
        <path id="Path_1878" data-name="Path 1878" d="M342.868,336.392l.448.025a.159.159,0,0,0,.112-.033.15.15,0,0,0-.078-.266l-.448-.025a.159.159,0,0,0-.112.033.15.15,0,0,0,.078.266" transform="translate(-308.885 -302.9)" fill="#ffb164"/>
        <path id="Path_1879" data-name="Path 1879" d="M337.6,342.858l.269.158a.166.166,0,0,0,.112.027.15.15,0,0,0,.125-.172.147.147,0,0,0-.06-.1l-.269-.158a.168.168,0,0,0-.112-.027.15.15,0,0,0-.125.172.146.146,0,0,0,.06.1" transform="translate(-304.203 -308.751)" fill="#ffb164"/>
        <path id="Path_1880" data-name="Path 1880" d="M327.608,349.429a.354.354,0,0,1,.037.05l-.021-.033a.354.354,0,0,1,.036.08l-.012-.039c0,.009.005.019.007.029a.154.154,0,0,0,.172.125.15.15,0,0,0,.125-.172.509.509,0,0,0-.041-.123.5.5,0,0,0-.071-.107.158.158,0,0,0-.1-.054.114.114,0,0,0-.06.007.111.111,0,0,0-.052.026.151.151,0,0,0-.054.1v.04a.149.149,0,0,0,.032.072" transform="translate(-295.222 -314.697)" fill="#ffb164"/>
        <path id="Path_1881" data-name="Path 1881" d="M311.9,354.353a.531.531,0,0,1,.038.093l-.011-.039a.53.53,0,0,1,.02.119.167.167,0,0,0,.06.1.15.15,0,0,0,.21-.033l.018-.034a.149.149,0,0,0,.009-.078.519.519,0,0,0-.018-.111.71.71,0,0,0-.052-.14.16.16,0,0,0-.082-.078.111.111,0,0,0-.058-.009.114.114,0,0,0-.059.012.152.152,0,0,0-.078.082.15.15,0,0,0,0,.117" transform="translate(-281.083 -319.165)" fill="#ffb164"/>
        <path id="Path_1882" data-name="Path 1882" d="M299.645,356.136a.254.254,0,0,1,.006.05v-.04a.275.275,0,0,1-.008.07l.009-.038a.273.273,0,0,1-.025.063l.018-.034a.264.264,0,0,1-.035.049.111.111,0,0,0-.023.052.113.113,0,0,0,0,.059.153.153,0,0,0,.06.1.151.151,0,0,0,.112.027l.039-.011a.15.15,0,0,0,.059-.048.393.393,0,0,0,.054-.083.271.271,0,0,0,.024-.061.4.4,0,0,0,.01-.2.159.159,0,0,0-.06-.1.15.15,0,0,0-.21.033.149.149,0,0,0-.027.112" transform="translate(-269.993 -320.806)" fill="#ffb164"/>
        <path id="Path_1883" data-name="Path 1883" d="M284.179,354.179a1.129,1.129,0,0,1-.1.125l.026-.028a1.118,1.118,0,0,1-.182.155.151.151,0,0,0-.054.1.153.153,0,0,0,.033.112.151.151,0,0,0,.1.054h.04a.15.15,0,0,0,.072-.032,1.232,1.232,0,0,0,.31-.308.155.155,0,0,0,.027-.112.15.15,0,0,0-.172-.125.154.154,0,0,0-.1.06" transform="translate(-255.831 -319.143)" fill="#ffb164"/>
        <path id="Path_1884" data-name="Path 1884" d="M271.362,354.02l.081-.111a.154.154,0,0,0-.033-.21l-.034-.018a.149.149,0,0,0-.078-.009l-.039.011a.15.15,0,0,0-.059.048l-.081.111a.154.154,0,0,0,.033.21l.034.018a.149.149,0,0,0,.078.008l.039-.011a.149.149,0,0,0,.059-.048" transform="translate(-244.316 -318.74)" fill="#ffb164"/>
        <g id="Group_16670" data-name="Group 16670" transform="translate(26.584 36.371)" opacity="0.24">
          <g id="Group_16669" data-name="Group 16669">
            <g id="Group_16668" data-name="Group 16668" clip-path="url(#clip-path-6)">
              <path id="Path_1885" data-name="Path 1885" d="M270.157,369.538a2.161,2.161,0,0,0,1.057.27c.132-.012.292-.085.287-.218,0-.108-.116-.175-.214-.22a2.1,2.1,0,0,1-.61-.352c-.29-.279-.836-1-1.36-.671-.542.339.573,1.069.841,1.19" transform="translate(-269.17 -368.264)" fill="#fff"/>
            </g>
          </g>
        </g>
        <path id="Path_1886" data-name="Path 1886" d="M376.948,252.151s2.768,3.452,7.02-.433.747-7.069.747-7.069Z" transform="translate(-339.719 -220.486)" fill="#e24c24"/>
        <path id="Path_1887" data-name="Path 1887" d="M382.384,242.676c.806.853-.3,3.205-2.463,5.254s-4.577,3.017-5.383,2.164.3-3.205,2.463-5.254,4.577-3.017,5.383-2.164" transform="translate(-337.309 -218.429)" fill="#ff5a27"/>
        <path id="Path_1888" data-name="Path 1888" d="M385.4,246.23c.71.751-.325,2.882-2.312,4.76s-4.172,2.792-4.882,2.041.325-2.882,2.312-4.76,4.172-2.792,4.882-2.041" transform="translate(-340.655 -221.675)" fill="#ff8b78"/>
        <path id="Path_1889" data-name="Path 1889" d="M397.134,264.979c-.082.2-.134.464.024.615.065.063.158.1.206.172s.041.177.1.245a.261.261,0,0,0,.168.077c.4.056.743-.273,1.015-.573l2.114-2.339c.182-.2.378-.457.3-.718a.542.542,0,0,0-.536-.34,1.451,1.451,0,0,0-.641.21,6.319,6.319,0,0,0-1.662,1.193,4.657,4.657,0,0,0-1.088,1.458" transform="translate(-357.841 -236.231)" fill="#ff5a27"/>
        <path id="Path_1890" data-name="Path 1890" d="M385.639,304.776a5.08,5.08,0,0,0,.373-.445.15.15,0,0,0-.051-.206.154.154,0,0,0-.206.051q-.053.071-.108.139l.025-.031q-.114.141-.239.274a.15.15,0,1,0,.206.218" transform="translate(-347.324 -274.07)" fill="#ffb164"/>
        <path id="Path_1891" data-name="Path 1891" d="M384.69,301.074a.15.15,0,0,0-.206-.218.15.15,0,0,0,.206.218" transform="translate(-346.468 -271.104)" fill="#ffb164"/>
        <path id="Path_1892" data-name="Path 1892" d="M384.657,299.087l.266-.214a.15.15,0,0,0-.1-.259.168.168,0,0,0-.107.041l-.266.214a.151.151,0,0,0-.047.1.15.15,0,0,0,.146.154.168.168,0,0,0,.107-.041" transform="translate(-346.438 -269.121)" fill="#ffb164"/>
        <path id="Path_1893" data-name="Path 1893" d="M388.53,288.791a.412.412,0,0,0,.09.036.424.424,0,0,0,.1.013.408.408,0,0,0,.187-.045.114.114,0,0,0,.045-.039.111.111,0,0,0,.028-.051.169.169,0,0,0-.011-.113l-.024-.033a.15.15,0,0,0-.067-.041.158.158,0,0,0-.113.012l-.026.012.036-.014a.252.252,0,0,1-.061.014l.038,0a.259.259,0,0,1-.065,0l.038.006a.253.253,0,0,1-.06-.017l.036.016-.013-.006a.167.167,0,0,0-.112-.018.111.111,0,0,0-.053.025.113.113,0,0,0-.042.043.152.152,0,0,0-.018.112.149.149,0,0,0,.068.094" transform="translate(-350.092 -260.017)" fill="#ffb164"/>
        <path id="Path_1894" data-name="Path 1894" d="M394.864,280.444l.135.107a.168.168,0,0,0,.112.018.112.112,0,0,0,.053-.025.114.114,0,0,0,.042-.043.152.152,0,0,0,.018-.112l-.014-.036a.151.151,0,0,0-.055-.058l-.135-.106a.168.168,0,0,0-.112-.018.111.111,0,0,0-.053.025.113.113,0,0,0-.042.043.151.151,0,0,0-.018.112l.014.036a.151.151,0,0,0,.055.058" transform="translate(-355.8 -252.495)" fill="#ffb164"/>
        <path id="Path_1895" data-name="Path 1895" d="M408.991,267,409,266.8a.113.113,0,0,0-.011-.056.115.115,0,0,0-.03-.051.168.168,0,0,0-.1-.047l-.038,0a.149.149,0,0,0-.069.037l-.025.031a.149.149,0,0,0-.022.074c0,.069,0,.138-.006.206a.155.155,0,0,0,.146.154l.038,0a.15.15,0,0,0,.069-.037l.025-.031a.149.149,0,0,0,.022-.074" transform="translate(-368.326 -240.306)" fill="#ffb164"/>
        <path id="Path_1896" data-name="Path 1896" d="M420.744,257.875l.154-.259a.156.156,0,0,0,.018-.112.15.15,0,0,0-.18-.112.155.155,0,0,0-.094.068l-.154.259a.155.155,0,0,0-.018.112.153.153,0,0,0,.068.094.151.151,0,0,0,.112.018.155.155,0,0,0,.094-.068" transform="translate(-378.938 -231.967)" fill="#ffb164"/>
        <path id="Path_1897" data-name="Path 1897" d="M431.447,252.931a1.9,1.9,0,0,0,.326-.35.15.15,0,0,0,.018-.112.153.153,0,0,0-.068-.095.152.152,0,0,0-.112-.018.169.169,0,0,0-.095.068q-.027.038-.057.074l.025-.031a1.752,1.752,0,0,1-.244.245.151.151,0,0,0-.006.212.154.154,0,0,0,.212.006" transform="translate(-388.608 -227.429)" fill="#ffb164"/>
        <path id="Path_1898" data-name="Path 1898" d="M440.99,254.542l.383-.233a.159.159,0,0,0,.074-.09.15.15,0,0,0-.215-.175l-.383.233a.159.159,0,0,0-.074.09.15.15,0,0,0,.215.175" transform="translate(-397.237 -228.936)" fill="#ffb164"/>
        <path id="Path_1899" data-name="Path 1899" d="M440.321,264.792l.311-.022a.167.167,0,0,0,.107-.041.15.15,0,0,0,.006-.212.147.147,0,0,0-.1-.047l-.311.022a.168.168,0,0,0-.107.041.153.153,0,0,0-.047.1.152.152,0,0,0,.041.107.147.147,0,0,0,.1.047" transform="translate(-396.701 -238.35)" fill="#ffb164"/>
        <path id="Path_1900" data-name="Path 1900" d="M435.793,276.078a.36.36,0,0,1,.059.02l-.036-.016a.356.356,0,0,1,.075.046l-.031-.025.022.019a.154.154,0,0,0,.212.006.15.15,0,0,0,.006-.212.492.492,0,0,0-.223-.126.158.158,0,0,0-.113.011.114.114,0,0,0-.045.039.112.112,0,0,0-.028.051.152.152,0,0,0,.012.113l.023.033a.149.149,0,0,0,.067.041" transform="translate(-392.655 -248.547)" fill="#ffb164"/>
        <path id="Path_1901" data-name="Path 1901" d="M425.626,289.013a.534.534,0,0,1,.084.055l-.031-.025a.528.528,0,0,1,.084.087.166.166,0,0,0,.1.047.15.15,0,0,0,.154-.146l0-.038a.148.148,0,0,0-.037-.069.516.516,0,0,0-.078-.082.709.709,0,0,0-.122-.086.159.159,0,0,0-.112-.018.112.112,0,0,0-.053.025.113.113,0,0,0-.042.043.15.15,0,0,0,.051.206" transform="translate(-383.524 -260.218)" fill="#ffb164"/>
        <path id="Path_1902" data-name="Path 1902" d="M417.007,297.1a.265.265,0,0,1,.034.038l-.023-.033a.272.272,0,0,1,.033.062l-.014-.037a.278.278,0,0,1,.015.066l0-.038a.256.256,0,0,1,0,.061.168.168,0,0,0,.041.107.153.153,0,0,0,.1.047.151.151,0,0,0,.107-.041l.025-.031a.15.15,0,0,0,.022-.074.393.393,0,0,0,0-.1.279.279,0,0,0-.015-.064.419.419,0,0,0-.041-.091.426.426,0,0,0-.064-.08.16.16,0,0,0-.1-.047.15.15,0,0,0-.154.146.149.149,0,0,0,.041.107" transform="translate(-375.784 -267.533)" fill="#ffb164"/>
        <path id="Path_1903" data-name="Path 1903" d="M404.125,303.1a1.141,1.141,0,0,1-.013.161l.006-.038a1.125,1.125,0,0,1-.062.23.151.151,0,0,0,.011.113.154.154,0,0,0,.091.074.151.151,0,0,0,.113-.012l.033-.023a.149.149,0,0,0,.041-.067,1.23,1.23,0,0,0,.081-.429.156.156,0,0,0-.041-.107.153.153,0,0,0-.1-.047.151.151,0,0,0-.107.041.154.154,0,0,0-.047.1" transform="translate(-364.144 -273.036)" fill="#ffb164"/>
        <path id="Path_1904" data-name="Path 1904" d="M392.6,311.267l0-.138a.154.154,0,0,0-.146-.154l-.038,0a.15.15,0,0,0-.069.037l-.025.031a.151.151,0,0,0-.022.073l0,.138a.112.112,0,0,0,.011.056.135.135,0,0,0,.079.084.112.112,0,0,0,.056.014l.038,0a.149.149,0,0,0,.069-.037l.025-.031a.15.15,0,0,0,.022-.074" transform="translate(-353.557 -280.262)" fill="#ffb164"/>
        <g id="Group_16673" data-name="Group 16673" transform="translate(39.42 31.806)" opacity="0.24">
          <g id="Group_16672" data-name="Group 16672">
            <g id="Group_16671" data-name="Group 16671" clip-path="url(#clip-path-7)">
              <path id="Path_1905" data-name="Path 1905" d="M400.525,322.891a2.163,2.163,0,0,0,1.023-.376c.1-.085.193-.235.113-.342-.064-.087-.194-.079-.3-.06a2.088,2.088,0,0,1-.7.055c-.4-.066-1.255-.35-1.5.217-.255.587,1.077.557,1.367.505" transform="translate(-399.126 -322.039)" fill="#fff"/>
            </g>
          </g>
        </g>
        <path id="Path_1906" data-name="Path 1906" d="M429.673,334.573s1.275,4.237,6.672,2.224,3.337-6.276,3.337-6.276Z" transform="translate(-387.237 -297.877)" fill="#e24c24"/>
        <path id="Path_1907" data-name="Path 1907" d="M439.174,324.117c.429,1.093-1.474,2.862-4.249,3.951s-5.373,1.086-5.8-.007,1.474-2.862,4.249-3.951,5.373-1.086,5.8.007" transform="translate(-386.686 -291.365)" fill="#ff5a27"/>
        <path id="Path_1908" data-name="Path 1908" d="M442.655,326.868c.377.962-1.38,2.551-3.925,3.549s-4.914,1.028-5.291.067,1.38-2.551,3.925-3.549,4.914-1.028,5.291-.067" transform="translate(-390.585 -293.953)" fill="#ff8b78"/>
        <path id="Path_1909" data-name="Path 1909" d="M457.951,338.774c-.152.157-.3.38-.208.58.037.082.111.148.127.237s-.028.18,0,.264a.26.26,0,0,0,.127.135,1.279,1.279,0,0,0,1.156-.152l2.835-1.379c.245-.119.522-.282.548-.553a.542.542,0,0,0-.369-.516,1.45,1.45,0,0,0-.673-.045,6.319,6.319,0,0,0-1.987.485,4.658,4.658,0,0,0-1.554.945" transform="translate(-412.509 -304.01)" fill="#ff5a27"/>
        <path id="Path_1910" data-name="Path 1910" d="M441.622,361.719a5.079,5.079,0,0,0,.512-.273.151.151,0,0,0,.058-.1.15.15,0,0,0-.238-.143q-.075.046-.153.089l.035-.02q-.159.088-.324.164a.15.15,0,0,0,.11.279" transform="translate(-397.82 -325.506)" fill="#ffb164"/>
        <path id="Path_1911" data-name="Path 1911" d="M443.578,356.731a.15.15,0,0,0-.11-.279.15.15,0,0,0,.11.279" transform="translate(-399.587 -321.236)" fill="#ffb164"/>
        <path id="Path_1912" data-name="Path 1912" d="M443.535,355.8l.327-.1a.151.151,0,0,0,.083-.08.15.15,0,0,0-.077-.2.167.167,0,0,0-.115,0l-.327.1a.15.15,0,0,0-.005.277.168.168,0,0,0,.115,0" transform="translate(-399.545 -320.314)" fill="#ffb164"/>
        <path id="Path_1913" data-name="Path 1913" d="M451.714,346.783a.408.408,0,0,0,.07.067.415.415,0,0,0,.085.048.408.408,0,0,0,.19.029.114.114,0,0,0,.057-.019.154.154,0,0,0,.077-.146l-.01-.039a.15.15,0,0,0-.047-.063.158.158,0,0,0-.109-.031h.01a.259.259,0,0,1-.062-.01l.037.011a.262.262,0,0,1-.06-.026l.033.02a.246.246,0,0,1-.049-.039l.027.028-.01-.011a.155.155,0,0,0-.21-.03.152.152,0,0,0-.058.1.149.149,0,0,0,.028.113" transform="translate(-407.074 -312.316)" fill="#ffb164"/>
        <path id="Path_1914" data-name="Path 1914" d="M460.712,341.412l.085.149a.168.168,0,0,0,.1.058.112.112,0,0,0,.058,0,.114.114,0,0,0,.055-.024.152.152,0,0,0,.058-.1v-.039a.151.151,0,0,0-.029-.074l-.085-.149a.168.168,0,0,0-.1-.058.169.169,0,0,0-.113.028.151.151,0,0,0-.058.1c0,.013,0,.026,0,.039a.151.151,0,0,0,.029.074" transform="translate(-415.184 -307.475)" fill="#ffb164"/>
        <path id="Path_1915" data-name="Path 1915" d="M478.135,334.252l.083-.189a.154.154,0,0,0-.078-.2l-.037-.011a.148.148,0,0,0-.078.009l-.035.02a.15.15,0,0,0-.048.06l-.083.189a.155.155,0,0,0,.078.2l.037.011a.15.15,0,0,0,.078-.009l.035-.02a.149.149,0,0,0,.048-.06" transform="translate(-430.653 -300.88)" fill="#ffb164"/>
        <path id="Path_1916" data-name="Path 1916" d="M492.262,330.7l.239-.182a.156.156,0,0,0,.058-.1.15.15,0,0,0-.125-.172.156.156,0,0,0-.113.028l-.239.182a.156.156,0,0,0-.058.1.153.153,0,0,0,.028.113.152.152,0,0,0,.1.058.155.155,0,0,0,.113-.028" transform="translate(-443.428 -297.629)" fill="#ffb164"/>
        <path id="Path_1917" data-name="Path 1917" d="M503.828,330.62a1.9,1.9,0,0,0,.433-.2.151.151,0,0,0,.058-.1.15.15,0,0,0-.125-.172.168.168,0,0,0-.113.028l-.08.047.035-.02a1.756,1.756,0,0,1-.318.136.151.151,0,0,0-.085.195.154.154,0,0,0,.195.085" transform="translate(-453.883 -297.541)" fill="#ffb164"/>
        <path id="Path_1918" data-name="Path 1918" d="M512.365,335.956l.443-.073a.159.159,0,0,0,.1-.056.15.15,0,0,0-.134-.242l-.443.073a.159.159,0,0,0-.1.056.15.15,0,0,0,.134.242" transform="translate(-461.612 -302.439)" fill="#ffb164"/>
        <path id="Path_1919" data-name="Path 1919" d="M508.64,344.093l.3.1a.167.167,0,0,0,.115,0,.153.153,0,0,0,.083-.08.151.151,0,0,0,0-.115.147.147,0,0,0-.08-.083l-.3-.1a.167.167,0,0,0-.115,0,.153.153,0,0,0-.083.08.151.151,0,0,0,0,.115.147.147,0,0,0,.08.083" transform="translate(-458.323 -309.85)" fill="#ffb164"/>
        <path id="Path_1920" data-name="Path 1920" d="M500.288,352.668a.357.357,0,0,1,.047.04l-.027-.028a.355.355,0,0,1,.053.071l-.02-.035.013.026a.154.154,0,0,0,.195.085.151.151,0,0,0,.083-.08.149.149,0,0,0,0-.115.489.489,0,0,0-.16-.2.158.158,0,0,0-.109-.032.115.115,0,0,0-.057.019.113.113,0,0,0-.045.037.151.151,0,0,0-.031.109l.01.039a.149.149,0,0,0,.047.063" transform="translate(-450.825 -317.596)" fill="#ffb164"/>
        <path id="Path_1921" data-name="Path 1921" d="M486.034,360.864a.524.524,0,0,1,.057.083l-.02-.035a.526.526,0,0,1,.046.112.113.113,0,0,0,.033.049.112.112,0,0,0,.047.034.15.15,0,0,0,.2-.078l.011-.037a.148.148,0,0,0-.009-.078.513.513,0,0,0-.042-.1.7.7,0,0,0-.081-.125.159.159,0,0,0-.1-.058.112.112,0,0,0-.058,0,.114.114,0,0,0-.055.024.152.152,0,0,0-.058.1.15.15,0,0,0,.028.113" transform="translate(-438.004 -325.007)" fill="#ffb164"/>
        <path id="Path_1922" data-name="Path 1922" d="M474.921,365.148a.258.258,0,0,1,.017.047l-.01-.039a.274.274,0,0,1,.008.07c0-.013,0-.026,0-.039a.27.27,0,0,1-.01.066l.011-.037a.263.263,0,0,1-.024.056.167.167,0,0,0,0,.115.153.153,0,0,0,.08.083.151.151,0,0,0,.115,0l.035-.02a.15.15,0,0,0,.048-.06.4.4,0,0,0,.035-.092.275.275,0,0,0,.01-.065.4.4,0,0,0-.033-.2.159.159,0,0,0-.08-.083.15.15,0,0,0-.2.078.149.149,0,0,0,0,.115" transform="translate(-427.998 -328.9)" fill="#ffb164"/>
        <path id="Path_1923" data-name="Path 1923" d="M459.483,366.15a1.15,1.15,0,0,1-.072.144l.02-.033a1.125,1.125,0,0,1-.144.19.151.151,0,0,0-.031.109.154.154,0,0,0,.056.1.151.151,0,0,0,.109.031l.039-.01a.149.149,0,0,0,.063-.047,1.231,1.231,0,0,0,.236-.367.155.155,0,0,0,0-.115.153.153,0,0,0-.08-.083.151.151,0,0,0-.115,0,.154.154,0,0,0-.083.08" transform="translate(-413.896 -329.906)" fill="#ffb164"/>
        <path id="Path_1924" data-name="Path 1924" d="M446.612,369.164l.055-.126a.154.154,0,0,0-.078-.2l-.037-.011a.148.148,0,0,0-.078.009l-.035.02a.149.149,0,0,0-.048.06l-.055.126a.167.167,0,0,0,0,.115.113.113,0,0,0,.033.049.112.112,0,0,0,.047.034l.037.011a.15.15,0,0,0,.078-.009l.035-.02a.15.15,0,0,0,.048-.06" transform="translate(-402.244 -332.4)" fill="#ffb164"/>
        <g id="Group_16676" data-name="Group 16676" transform="translate(44.216 37.823)" opacity="0.24">
          <g id="Group_16675" data-name="Group 16675">
            <g id="Group_16674" data-name="Group 16674" clip-path="url(#clip-path-8)">
              <path id="Path_1925" data-name="Path 1925" d="M448.87,384.1a2.162,2.162,0,0,0,1.09.035c.127-.04.267-.146.233-.275-.027-.1-.151-.146-.257-.168a2.093,2.093,0,0,1-.672-.212c-.344-.209-1.033-.794-1.473-.36-.456.449.791.92,1.078.98" transform="translate(-447.692 -382.961)" fill="#fff"/>
            </g>
          </g>
        </g>
        <path id="Path_1926" data-name="Path 1926" d="M157.961,296.439s-4.14,1.562-1.763,6.809,6.49,2.9,6.49,2.9Z" transform="translate(-140.108 -267.161)" fill="#e24c24"/>
        <path id="Path_1927" data-name="Path 1927" d="M179.051,305.422c-1.061.5-2.956-1.275-4.232-3.969s-1.451-5.287-.39-5.789,2.956,1.275,4.232,3.969,1.451,5.287.39,5.789" transform="translate(-156.576 -266.386)" fill="#ff5a27"/>
        <path id="Path_1928" data-name="Path 1928" d="M181.548,308.839c-.934.442-2.639-1.2-3.809-3.673s-1.362-4.832-.428-5.274,2.639,1.2,3.809,3.673,1.362,4.832.428,5.274" transform="translate(-159.266 -270.208)" fill="#ff8b78"/>
        <path id="Path_1929" data-name="Path 1929" d="M190.712,323.587c-.167-.14-.4-.271-.592-.168-.079.042-.14.121-.227.143s-.182-.016-.264.018a.261.261,0,0,0-.126.136,1.28,1.28,0,0,0,.231,1.143l1.569,2.734c.135.236.317.5.589.509a.542.542,0,0,0,.489-.4,1.451,1.451,0,0,0,0-.675,6.319,6.319,0,0,0-.62-1.95,4.656,4.656,0,0,0-1.049-1.486" transform="translate(-170.726 -291.443)" fill="#ff5a27"/>
        <path id="Path_1930" data-name="Path 1930" d="M186.447,307.938a5.057,5.057,0,0,0,.307.492.151.151,0,0,0,.1.052.15.15,0,0,0,.127-.248q-.051-.072-.1-.146l.022.034q-.1-.153-.186-.312a.15.15,0,0,0-.271.128" transform="translate(-168.019 -277.331)" fill="#ffb164"/>
        <path id="Path_1931" data-name="Path 1931" d="M193.832,309.386a.15.15,0,0,0,.271-.129.15.15,0,0,0-.271.129" transform="translate(-174.674 -278.639)" fill="#ffb164"/>
        <path id="Path_1932" data-name="Path 1932" d="M193.9,309.345l.121.319a.15.15,0,0,0,.277-.014.168.168,0,0,0-.006-.115l-.121-.319a.151.151,0,0,0-.085-.077.15.15,0,0,0-.192.091.168.168,0,0,0,.006.115" transform="translate(-174.739 -278.6)" fill="#ffb164"/>
        <path id="Path_1933" data-name="Path 1933" d="M203.669,316.825a.41.41,0,0,0-.062.074.417.417,0,0,0-.042.088.407.407,0,0,0-.016.192.114.114,0,0,0,.023.055.155.155,0,0,0,.151.067l.038-.012a.15.15,0,0,0,.06-.051.158.158,0,0,0,.024-.111.253.253,0,0,1,0-.029c0,.013,0,.026,0,.039a.255.255,0,0,1,.005-.062l-.008.038a.26.26,0,0,1,.022-.061l-.017.034a.254.254,0,0,1,.035-.052l-.026.029.01-.011a.112.112,0,0,0,.035-.046.113.113,0,0,0,.017-.055.111.111,0,0,0-.008-.058.113.113,0,0,0-.028-.053.152.152,0,0,0-.1-.052.149.149,0,0,0-.111.036" transform="translate(-183.442 -285.502)" fill="#ffb164"/>
        <path id="Path_1934" data-name="Path 1934" d="M208.993,325.435l-.143.1a.145.145,0,0,0-.044.159.115.115,0,0,0,.028.053.152.152,0,0,0,.1.052l.039,0a.151.151,0,0,0,.072-.034l.143-.1a.112.112,0,0,0,.035-.046.114.114,0,0,0,.017-.055.111.111,0,0,0-.008-.058.113.113,0,0,0-.028-.053.152.152,0,0,0-.1-.052l-.039,0a.152.152,0,0,0-.072.034" transform="translate(-188.176 -293.261)" fill="#ffb164"/>
        <path id="Path_1935" data-name="Path 1935" d="M216.919,342.446l.194.069a.154.154,0,0,0,.192-.091l.008-.038a.149.149,0,0,0-.014-.077l-.022-.034a.151.151,0,0,0-.063-.043l-.194-.069a.154.154,0,0,0-.192.091l-.008.038a.15.15,0,0,0,.014.077l.022.034a.149.149,0,0,0,.063.043" transform="translate(-195.405 -308.362)" fill="#ffb164"/>
        <path id="Path_1936" data-name="Path 1936" d="M221.5,356.292l.2.226a.156.156,0,0,0,.1.052.154.154,0,0,0,.111-.036.152.152,0,0,0,.052-.1.155.155,0,0,0-.036-.111l-.2-.226a.156.156,0,0,0-.1-.052.15.15,0,0,0-.163.137.155.155,0,0,0,.036.111" transform="translate(-199.594 -320.88)" fill="#ffb164"/>
        <path id="Path_1937" data-name="Path 1937" d="M222.377,367.829a1.9,1.9,0,0,0,.232.419.151.151,0,0,0,.1.052.153.153,0,0,0,.111-.036.151.151,0,0,0,.052-.1.168.168,0,0,0-.036-.111q-.027-.038-.053-.077l.022.034a1.763,1.763,0,0,1-.157-.308.151.151,0,0,0-.2-.071.154.154,0,0,0-.071.2" transform="translate(-200.402 -331.308)" fill="#ffb164"/>
        <path id="Path_1938" data-name="Path 1938" d="M218.6,376.642l.1.437a.159.159,0,0,0,.063.1.15.15,0,0,0,.233-.15l-.1-.437a.159.159,0,0,0-.063-.1.15.15,0,0,0-.233.15" transform="translate(-197.008 -339.284)" fill="#ffb164"/>
        <path id="Path_1939" data-name="Path 1939" d="M210.227,373.437l-.076.3a.166.166,0,0,0,.006.115.15.15,0,0,0,.2.072.147.147,0,0,0,.077-.085l.076-.3a.166.166,0,0,0-.006-.115.153.153,0,0,0-.085-.077.151.151,0,0,0-.115.006.146.146,0,0,0-.077.085" transform="translate(-189.388 -336.465)" fill="#ffb164"/>
        <path id="Path_1940" data-name="Path 1940" d="M200.6,365.688a.358.358,0,0,1-.037.05l.026-.029a.354.354,0,0,1-.067.058l.034-.022-.025.015a.115.115,0,0,0-.047.036.154.154,0,0,0-.025.164.15.15,0,0,0,.2.071.508.508,0,0,0,.107-.074.5.5,0,0,0,.083-.1.158.158,0,0,0,.024-.111.114.114,0,0,0-.023-.055.111.111,0,0,0-.04-.043.151.151,0,0,0-.111-.024l-.038.012a.15.15,0,0,0-.06.051" transform="translate(-180.652 -329.512)" fill="#ffb164"/>
        <path id="Path_1941" data-name="Path 1941" d="M190.924,352.027a.529.529,0,0,1-.079.063l.034-.022a.53.53,0,0,1-.108.053.167.167,0,0,0-.077.085.15.15,0,0,0,.091.192l.038.008a.149.149,0,0,0,.077-.014.517.517,0,0,0,.1-.049.71.71,0,0,0,.119-.089.159.159,0,0,0,.052-.1.111.111,0,0,0-.008-.058.113.113,0,0,0-.028-.053.15.15,0,0,0-.212-.016" transform="translate(-171.852 -317.227)" fill="#ffb164"/>
        <path id="Path_1942" data-name="Path 1942" d="M185.418,341.319a.27.27,0,0,1-.046.02l.038-.012a.275.275,0,0,1-.07.012l.039,0a.275.275,0,0,1-.067-.006l.037.008a.268.268,0,0,1-.057-.02.168.168,0,0,0-.115.006.15.15,0,0,0-.072.2l.022.034a.148.148,0,0,0,.063.043.4.4,0,0,0,.095.028.277.277,0,0,0,.065.006.42.42,0,0,0,.1-.011.427.427,0,0,0,.1-.036.16.16,0,0,0,.077-.085.15.15,0,0,0-.091-.192.149.149,0,0,0-.115.006" transform="translate(-166.812 -307.596)" fill="#ffb164"/>
        <path id="Path_1943" data-name="Path 1943" d="M182.5,326.112a1.136,1.136,0,0,1-.149-.062l.034.017a1.122,1.122,0,0,1-.2-.131.151.151,0,0,0-.111-.024.155.155,0,0,0-.1.063.152.152,0,0,0-.024.111l.012.038a.148.148,0,0,0,.051.06,1.234,1.234,0,0,0,.383.21.156.156,0,0,0,.115-.006.15.15,0,0,0,.072-.2.155.155,0,0,0-.085-.077" transform="translate(-163.976 -293.722)" fill="#ffb164"/>
        <path id="Path_1944" data-name="Path 1944" d="M180.508,313.343l.13.046a.154.154,0,0,0,.192-.091l.008-.038a.151.151,0,0,0-.014-.077l-.022-.034a.15.15,0,0,0-.063-.043l-.13-.046a.154.154,0,0,0-.192.091l-.008.038a.15.15,0,0,0,.014.077l.022.034a.15.15,0,0,0,.063.043" transform="translate(-162.59 -282.133)" fill="#ffb164"/>
        <g id="Group_16679" data-name="Group 16679" transform="translate(15.747 31.154)" opacity="0.24">
          <g id="Group_16678" data-name="Group 16678">
            <g id="Group_16677" data-name="Group 16677" clip-path="url(#clip-path-9)">
              <path id="Path_1945" data-name="Path 1945" d="M159.493,316.67a2.161,2.161,0,0,0,.04,1.09c.049.124.164.256.29.214.1-.034.135-.16.15-.267a2.091,2.091,0,0,1,.165-.685c.185-.357.721-1.085.259-1.494-.479-.424-.864.852-.9,1.143" transform="translate(-159.443 -315.442)" fill="#fff"/>
            </g>
          </g>
        </g>
        <path id="Path_1946" data-name="Path 1946" d="M189.661,340.816a1.487,1.487,0,0,1,1.913.334,1.861,1.861,0,0,1,2.364-.4,2.593,2.593,0,0,1,1.187,2.212c1.23-.4,2.527.5,3.246,1.574a1.646,1.646,0,0,0,.413.487,1.7,1.7,0,0,0,.747.195,5.338,5.338,0,0,1,4.456,4.24,2.616,2.616,0,0,1-.289,1.941,3.458,3.458,0,0,1-1.27.972,4.328,4.328,0,0,1-1.72.636c-1.764.12-2.925-1.8-4.533-2.536-1.309-.6-2.83-.366-4.142-.939a17.02,17.02,0,0,1-2.946-2.024,3.891,3.891,0,0,1-1.542-2.085c-.36-1.146-.2-3.316,1.593-2.754a1.527,1.527,0,0,1,.522-1.851" transform="translate(-168.882 -306.867)" fill="#89e269"/>
        <path id="Path_1947" data-name="Path 1947" d="M176.741,332.447h-1.092c-.179,4.034-8.638,6.25-24.1,6.25-14.965,0-23.819-2.912-24.1-6.25h-1.094a25.325,25.325,0,0,0,2.5,11.411c4.335,9.359,10.326,11.046,10.326,11.046l12.242.236,12.242-.236s5.992-1.687,10.326-11.046a28.1,28.1,0,0,0,2.749-11.411" transform="translate(-113.858 -299.613)" fill="#edceb9"/>
        <path id="Path_1948" data-name="Path 1948" d="M258.887,563.64c0,1.608-6.928,2.912-15.473,2.912s-15.473-1.3-15.473-2.912,6.927-2.912,15.473-2.912,15.473,1.3,15.473,2.912" transform="translate(-205.429 -505.348)" fill="#e7f2f0"/>
        <path id="Path_1949" data-name="Path 1949" d="M281.136,546.468v-2.163l-12.365-1.555-12.365,1.687v2.031s-.1.978,3.646,2.271c5.129,1.768,13.462,1.186,17.438,0,3.8-1.134,3.646-2.271,3.646-2.271" transform="translate(-231.081 -489.146)" fill="#edceb9"/>
        <path id="Path_1950" data-name="Path 1950" d="M277.4,556.425c3.8-1.134,3.646-2.271,3.646-2.271v-2.163l-5.669-.713-.027.016c-.65.392-1.275.746-1.324,1.554-.051.849.412,1.88.043,2.693a1.817,1.817,0,0,1-1.36.817c-4.094.912-8.379.351-12.456-.634a10.5,10.5,0,0,1-3.637-1.423,1.449,1.449,0,0,0-.3-.165v.018s-.1.978,3.646,2.271c5.129,1.768,13.462,1.186,17.438,0" transform="translate(-230.998 -496.831)" fill="#eabfac"/>
        <g id="Group_16682" data-name="Group 16682" transform="translate(18.432 39.886)" opacity="0.38">
          <g id="Group_16681" data-name="Group 16681">
            <g id="Group_16680" data-name="Group 16680" clip-path="url(#clip-path-10)">
              <path id="Path_1951" data-name="Path 1951" d="M186.739,404.724a3.134,3.134,0,0,0,.221,2.162,26.386,26.386,0,0,0,2.84,5.373c.812,1.214,1.828,2.469,3.263,2.74a2.242,2.242,0,0,0,1.494-.2,1.507,1.507,0,0,0,.8-1.233,2.737,2.737,0,0,0-.565-1.434,11.606,11.606,0,0,1-1.518-3.494,8.485,8.485,0,0,0-.681-2.437c-.727-1.258-5.034-3.654-5.851-1.479" transform="translate(-186.622 -403.846)" fill="#fff"/>
            </g>
          </g>
        </g>
        <g id="Group_16685" data-name="Group 16685" transform="translate(26.697 56.113)" opacity="0.38">
          <g id="Group_16684" data-name="Group 16684">
            <g id="Group_16683" data-name="Group 16683" clip-path="url(#clip-path-11)">
              <path id="Path_1952" data-name="Path 1952" d="M270.84,568.151a.677.677,0,0,0-.343.078.507.507,0,0,0-.115.662,1.278,1.278,0,0,0,.562.467,10.273,10.273,0,0,0,2.93.9,2.061,2.061,0,0,0,1.163-.023.745.745,0,0,0,.447-.95c-.172-.332-.611-.392-.983-.426-1.214-.112-2.472-.743-3.66-.707" transform="translate(-270.311 -568.149)" fill="#fff"/>
            </g>
          </g>
        </g>
        <path id="Path_1953" data-name="Path 1953" d="M335.153,332.447h-1.083c-.1,2.261-2.8,3.95-7.877,5a19.494,19.494,0,0,1-2.051,6.348c-3.527,6.744-6.87,8.621-10.958,10.011a32.186,32.186,0,0,1-11.012,1.293,58.062,58.062,0,0,0,10.731,1.361,31.412,31.412,0,0,0,9.175-1.554s5.992-1.687,10.326-11.046a28.1,28.1,0,0,0,2.749-11.411" transform="translate(-272.328 -299.613)" fill="#eabfac"/>
        <path id="Path_1954" data-name="Path 1954" d="M176.8,328.547h-1.081a2.842,2.842,0,0,1,.01.344c-.123,4.061-8.586,6.291-24.1,6.291-15.027,0-23.892-2.936-24.1-6.291.011-.117.025-.231.044-.344h-1.1c-.019.126-.035.255-.046.385.221,3.76,9.488,7.052,25.195,7.052,16.218,0,25.065-2.5,25.193-7.052a3.445,3.445,0,0,0-.011-.385" transform="translate(-113.937 -296.098)" fill="#ffdfca"/>
        <path id="Path_1955" data-name="Path 1955" d="M170.4,285.533l-.233,1.742s.695,2.636,4.414,3.576c4.186,1.059,7.431.093,7.66-2.478a6.19,6.19,0,0,0-.43-1.6l-11.476-1.341Z" transform="translate(-153.364 -257.241)" fill="#59b24f"/>
        <path id="Path_1956" data-name="Path 1956" d="M183.985,267.744c-.1,1.668-2.743,2.616-5.912,2.117s-5.66-2.256-5.563-3.923,2.743-2.615,5.912-2.117,5.659,2.255,5.563,3.923" transform="translate(-155.469 -237.645)" fill="#84d17d"/>
        <path id="Path_1957" data-name="Path 1957" d="M186.858,271.051c-.073,1.266-2.5,2.132-5.422,1.673s-5.389-2.171-5.316-3.437,2.715-2.219,5.633-1.76,5.177,2.258,5.1,3.524" transform="translate(-158.725 -240.999)" fill="#b0eda9"/>
        <path id="Path_1958" data-name="Path 1958" d="M195.674,275.87a.475.475,0,0,1-.2-.329c.005-.205.26-.266.461-.254a3.1,3.1,0,0,1,1.225.338,2.065,2.065,0,0,1-.272-.538.187.187,0,0,1-.011-.122c.034-.087.164-.056.251-.009a5.779,5.779,0,0,1,1.238.888,1.29,1.29,0,0,1-.177-.61.531.531,0,0,1,.286-.492.653.653,0,0,1,.714.277,1.831,1.831,0,0,1,.288.784,1.706,1.706,0,0,1,1.333-.244.373.373,0,0,1,.28.18c.07.166-.1.307-.241.385a1.8,1.8,0,0,1,1.565.6.267.267,0,0,1,.089.194.2.2,0,0,1-.06.106,1.232,1.232,0,0,1-.818.352,4.068,4.068,0,0,1-.937-.072,4.016,4.016,0,0,1,.843.553.178.178,0,0,1,.072.1.133.133,0,0,1-.032.091.881.881,0,0,1-1.047.189,3.168,3.168,0,0,1-.967-.735.95.95,0,0,1,.183.7.407.407,0,0,1-.53.31.7.7,0,0,1-.252-.215,2.573,2.573,0,0,1-.472-.895.78.78,0,0,1-.824.677.4.4,0,0,1-.286-.129.332.332,0,0,1-.016-.359.812.812,0,0,1,.255-.249.888.888,0,0,1-.958.036.27.27,0,0,1-.112-.279.264.264,0,0,1,.137-.122c.144-.074.526-.146.587-.288a4.289,4.289,0,0,1-1.6-.824" transform="translate(-176.169 -247.578)" fill="#c1ffb8"/>
        <path id="Path_1959" data-name="Path 1959" d="M342.528,332.713a2.793,2.793,0,0,1,2.32.041c.153.08.369.167.472.027a.316.316,0,0,0,.03-.24,1.982,1.982,0,0,0-1.791-1.6,3.4,3.4,0,0,0-1.845.593,13.809,13.809,0,0,0-1.195.783,3.471,3.471,0,0,0-1.234,1.354c-.179.425-.265,1.321.331,1.467s.878-.727,1.173-1.081a4.574,4.574,0,0,1,1.74-1.339" transform="translate(-305.655 -298.25)" fill="#0a0b0c"/>
        <path id="Path_1960" data-name="Path 1960" d="M339.307,329.93a4.337,4.337,0,0,0-2.739.573,12.905,12.905,0,0,0-2.267,1.717,2.416,2.416,0,0,0-.256,2.815,2.724,2.724,0,0,0,2.119,1.344,4.8,4.8,0,0,0,2.462-.641,6.334,6.334,0,0,0,2.18-1.58,2.806,2.806,0,0,0,.61-2.532,2.637,2.637,0,0,0-2.109-1.7m.33,2.524a2.823,2.823,0,0,1-1.146,1.069,8.341,8.341,0,0,1-1.353.638,2.983,2.983,0,0,1-1.219.229,1.322,1.322,0,0,1-1.052-.581c-.839-1.4,1.348-2.5,2.31-2.9a2.868,2.868,0,0,1,1.694-.2,1.308,1.308,0,0,1,.586.276,1.241,1.241,0,0,1,.18,1.465" transform="translate(-300.757 -297.305)" fill="#36383f"/>
        <path id="Path_1961" data-name="Path 1961" d="M229.326,239.907a2.793,2.793,0,0,1,2.32.041c.153.08.369.167.472.027a.316.316,0,0,0,.03-.24,1.982,1.982,0,0,0-1.791-1.6,3.4,3.4,0,0,0-1.845.593,13.819,13.819,0,0,0-1.195.783,3.472,3.472,0,0,0-1.234,1.354c-.179.425-.265,1.321.331,1.467s.878-.727,1.173-1.081a4.574,4.574,0,0,1,1.74-1.339" transform="translate(-203.634 -214.61)" fill="#0a0b0c"/>
        <path id="Path_1962" data-name="Path 1962" d="M226.1,237.123a4.337,4.337,0,0,0-2.739.573,12.9,12.9,0,0,0-2.267,1.717,2.416,2.416,0,0,0-.256,2.815,2.724,2.724,0,0,0,2.12,1.344,4.8,4.8,0,0,0,2.462-.641,6.333,6.333,0,0,0,2.179-1.58,2.806,2.806,0,0,0,.61-2.532,2.637,2.637,0,0,0-2.109-1.7m.33,2.524a2.824,2.824,0,0,1-1.146,1.07,8.359,8.359,0,0,1-1.353.638,2.983,2.983,0,0,1-1.219.229,1.322,1.322,0,0,1-1.052-.581c-.839-1.4,1.348-2.5,2.31-2.9a2.868,2.868,0,0,1,1.694-.2,1.308,1.308,0,0,1,.586.276,1.241,1.241,0,0,1,.18,1.465" transform="translate(-198.735 -213.665)" fill="#36383f"/>
        <path id="Path_1963" data-name="Path 1963" d="M554.289,261.933a2.793,2.793,0,0,1,.983,2.1c0,.173.013.4.183.436a.316.316,0,0,0,.228-.079,1.982,1.982,0,0,0,.654-2.314,3.4,3.4,0,0,0-1.343-1.4,13.8,13.8,0,0,0-1.229-.729,3.471,3.471,0,0,0-1.758-.513c-.46.026-1.3.342-1.172.942s1.039.469,1.486.578a4.573,4.573,0,0,1,1.968.974" transform="translate(-496.42 -233.813)" fill="#0a0b0c"/>
        <path id="Path_1964" data-name="Path 1964" d="M542.993,258.891a4.337,4.337,0,0,0-1.719-2.208,12.908,12.908,0,0,0-2.539-1.282,2.416,2.416,0,0,0-2.641,1.008,2.724,2.724,0,0,0-.275,2.494,4.8,4.8,0,0,0,1.658,1.93,6.334,6.334,0,0,0,2.377,1.263,2.806,2.806,0,0,0,2.542-.565,2.637,2.637,0,0,0,.6-2.641m-2.122,1.406a2.824,2.824,0,0,1-1.464-.56,8.34,8.34,0,0,1-1.168-.935,2.982,2.982,0,0,1-.741-.994,1.322,1.322,0,0,1,.06-1.2c.892-1.371,2.842.11,3.617.8a2.867,2.867,0,0,1,.923,1.434,1.308,1.308,0,0,1,.01.647,1.241,1.241,0,0,1-1.237.805" transform="translate(-482.735 -230.072)" fill="#36383f"/>
        <path id="Path_1965" data-name="Path 1965" d="M409.505,270.724a6.076,6.076,0,0,0,7.38,3.344,13.848,13.848,0,0,0,8.179-5.349,5.256,5.256,0,0,0,1-3.13Z" transform="translate(-369.06 -239.358)" fill="#ffecd7"/>
        <path id="Path_1966" data-name="Path 1966" d="M434.639,286.515c-.041.013,1.389,3.213,3.98,2.7,5.131-1.014,4.288-5.254,4.288-5.254Z" transform="translate(-391.712 -255.917)" fill="#ffdc31"/>
        <g id="Group_16688" data-name="Group 16688" transform="translate(51.935 27.468)" opacity="0.52">
          <g id="Group_16687" data-name="Group 16687">
            <g id="Group_16686" data-name="Group 16686" clip-path="url(#clip-path-12)">
              <path id="Path_1967" data-name="Path 1967" d="M528.29,279.3c-.318,1.073-1.383,1.705-2.19,2.481-.155.149-.315.363-.229.56a.376.376,0,0,0,.4.19.977.977,0,0,0,.422-.2,10.342,10.342,0,0,0,1.689-1.594,4.127,4.127,0,0,0,1.236-2.165.516.516,0,0,0-.019-.254c-.15-.362-.652-.163-.861.02a1.886,1.886,0,0,0-.444.959" transform="translate(-525.848 -278.119)" fill="#fff"/>
            </g>
          </g>
        </g>
      </g>
    </g>
  </g>
</svg>
