<svg xmlns="http://www.w3.org/2000/svg" xmlns:xlink="http://www.w3.org/1999/xlink" width="98" height="53.114" viewBox="0 0 98 53.114">
  <defs>
    <clipPath id="clip-path">
      <rect id="Rectangle_125" data-name="Rectangle 125" width="98" height="53.114" fill="none"/>
    </clipPath>
    <clipPath id="clip-path-3">
      <rect id="Rectangle_111" data-name="Rectangle 111" width="11.142" height="10.709" fill="none"/>
    </clipPath>
    <clipPath id="clip-path-4">
      <rect id="Rectangle_112" data-name="Rectangle 112" width="3.968" height="2.204" fill="none"/>
    </clipPath>
    <clipPath id="clip-path-5">
      <rect id="Rectangle_113" data-name="Rectangle 113" width="5.952" height="7.666" fill="none"/>
    </clipPath>
    <clipPath id="clip-path-6">
      <rect id="Rectangle_114" data-name="Rectangle 114" width="5.365" height="8.488" fill="none"/>
    </clipPath>
    <clipPath id="clip-path-7">
      <rect id="Rectangle_115" data-name="Rectangle 115" width="2.165" height="2.241" fill="none"/>
    </clipPath>
    <clipPath id="clip-path-8">
      <rect id="Rectangle_116" data-name="Rectangle 116" width="3.086" height="3.504" fill="none"/>
    </clipPath>
    <clipPath id="clip-path-9">
      <rect id="Rectangle_117" data-name="Rectangle 117" width="9.353" height="6.996" fill="none"/>
    </clipPath>
    <clipPath id="clip-path-10">
      <rect id="Rectangle_118" data-name="Rectangle 118" width="3.874" height="4.179" fill="none"/>
    </clipPath>
    <clipPath id="clip-path-11">
      <rect id="Rectangle_119" data-name="Rectangle 119" width="1.882" height="3.243" fill="none"/>
    </clipPath>
    <clipPath id="clip-path-12">
      <rect id="Rectangle_120" data-name="Rectangle 120" width="3.288" height="1.396" fill="none"/>
    </clipPath>
    <clipPath id="clip-path-13">
      <rect id="Rectangle_121" data-name="Rectangle 121" width="3.168" height="2.035" fill="none"/>
    </clipPath>
    <clipPath id="clip-path-14">
      <rect id="Rectangle_122" data-name="Rectangle 122" width="4.023" height="3.197" fill="none"/>
    </clipPath>
    <clipPath id="clip-path-15">
      <rect id="Rectangle_123" data-name="Rectangle 123" width="3.879" height="5.309" fill="none"/>
    </clipPath>
  </defs>
  <g id="Group_16194" data-name="Group 16194" clip-path="url(#clip-path)">
    <g id="Group_16193" data-name="Group 16193">
      <g id="Group_16192" data-name="Group 16192" clip-path="url(#clip-path)">
        <path id="Path_429" data-name="Path 429" d="M40.191,257.922c-.355,2.288,1.246,4.412,2.98,5.946,6.706,5.932,16.162,7.421,25.081,8.2,17.127,1.492,34.872,1.193,50.833-5.2,1.361-.545,2.933-1.468,2.886-2.934-.043-1.347-1.443-2.188-2.685-2.71a70.045,70.045,0,0,0-14.846-4.01c-7.961-1.427-16-2.365-24.034-3.3-8.45-.985-16.9-1.971-25.376-2.719-4.146-.366-8.335-.811-12.5-.89-2.893-.055-6.849.618-8.429,3.435-2.539,4.528,5.937,5.152,6.087,4.183" transform="translate(-29.537 -219.844)" fill="#e7f2f0"/>
        <path id="Path_430" data-name="Path 430" d="M98,195.541c0,8.534-21.938,17.9-49,17.9s-49-9.366-49-17.9,21.938-13,49-13,49,4.47,49,13" transform="translate(0 -160.326)" fill="#d3cfbc"/>
        <path id="Path_431" data-name="Path 431" d="M98,177.872c0,8.534-21.938,15.451-49,15.451S0,186.406,0,177.872s21.938-15.451,49-15.451,49,6.918,49,15.451" transform="translate(0 -142.657)" fill="#e8e3cd"/>
        <g id="Group_16155" data-name="Group 16155" transform="translate(2.374 32.669)" opacity="0.66">
          <g id="Group_16154" data-name="Group 16154">
            <g id="Group_16153" data-name="Group 16153" clip-path="url(#clip-path-3)">
              <path id="Path_432" data-name="Path 432" d="M19.742,272.056a7.512,7.512,0,0,0,1.761,2.77,14.753,14.753,0,0,0,7.456,4.284c.561.128,1.274.162,1.578-.325a1.007,1.007,0,0,0-.191-1.161,2.981,2.981,0,0,0-1.068-.655,21.307,21.307,0,0,1-5.1-2.83,7.793,7.793,0,0,1-2.97-4.876c-.129-1.011-.777-.969-1.3-.269a3.876,3.876,0,0,0-.165,3.063" transform="translate(-19.509 -268.483)" fill="#fff"/>
            </g>
          </g>
        </g>
        <g id="Group_16158" data-name="Group 16158" transform="translate(15.097 43.84)" opacity="0.66">
          <g id="Group_16157" data-name="Group 16157">
            <g id="Group_16156" data-name="Group 16156" clip-path="url(#clip-path-4)">
              <path id="Path_433" data-name="Path 433" d="M124.536,360.466c-.35-.071-.581.434-.413.749a1.442,1.442,0,0,0,.873.571l1.583.541a2.116,2.116,0,0,0,.773.16.719.719,0,0,0,.642-.393c.177-.429-.248-.861-.652-1.09a5.589,5.589,0,0,0-2.894-.718Z" transform="translate(-124.067 -360.285)" fill="#fff"/>
            </g>
          </g>
        </g>
        <g id="Group_16161" data-name="Group 16161" transform="translate(90.106 34.225)" opacity="0.66">
          <g id="Group_16160" data-name="Group 16160">
            <g id="Group_16159" data-name="Group 16159" clip-path="url(#clip-path-5)">
              <path id="Path_434" data-name="Path 434" d="M744.312,281.636a2.545,2.545,0,0,0-.4,1.22,6.373,6.373,0,0,1-1.419,3.566c-.638.654-1.553,1.084-1.92,1.921-.085.193-.1.473.086.563a.426.426,0,0,0,.248.014,4.418,4.418,0,0,0,2.231-1.3,14.253,14.253,0,0,0,2.967-4,2.474,2.474,0,0,0,.35-1.333,1.28,1.28,0,0,0-2.139-.657" transform="translate(-740.508 -281.263)" fill="#fff"/>
            </g>
          </g>
        </g>
        <path id="Path_435" data-name="Path 435" d="M294.529,215.912a8.83,8.83,0,0,1,6.363.685,3.516,3.516,0,0,1,1.669,1.551,2.894,2.894,0,0,1-1.148,3.346,6.719,6.719,0,0,1-3.637,1.013,21.555,21.555,0,0,1-8.833-1.417c-.361-.139,1.745-2.951,1.912-3.107a8.813,8.813,0,0,1,3.674-2.07" transform="translate(-253.748 -189.371)" fill="#d89552"/>
        <path id="Path_436" data-name="Path 436" d="M302.257,217.954a3.515,3.515,0,0,0-1.669-1.551,8.83,8.83,0,0,0-6.363-.685,8.578,8.578,0,0,0-1.54.589,13.049,13.049,0,0,1,6.356.319c-2.751-.166-5.371,1.1-7.783,2.433,3.144-1.131,6.6-1.858,9.813-.927a36.2,36.2,0,0,0-8.72,1.2q3.942-.209,7.892-.181a7.3,7.3,0,0,1-1.92.633q-2.035.45-4.108.7a19.452,19.452,0,0,0,5.493-.05,12.155,12.155,0,0,1-2.509.7,21.491,21.491,0,0,1-4.674.481,10.291,10.291,0,0,1-3.922-.838c-.012.069,0,.116.035.131a21.555,21.555,0,0,0,8.833,1.417,6.72,6.72,0,0,0,3.637-1.013,2.894,2.894,0,0,0,1.148-3.346" transform="translate(-253.481 -189.201)" fill="#ba7f49"/>
        <path id="Path_437" data-name="Path 437" d="M392.3,116.608c1.774-.5,2.68.238,4.975-.2.271-.051.141.59.281.828.2.337-.717.648-.945.966a2.8,2.8,0,0,1-.9.731c-1.843,1.082-4.642,2.615-6.858,2.284-.553-.083-4.117-.349-3.7-.936,1.191-1.673,3.691-1.485,4.265-1.8,1.249-.686,1.059-1.358,2.884-1.877" transform="translate(-338.256 -102.244)" fill="#ad3e3b"/>
        <path id="Path_438" data-name="Path 438" d="M366.367,117.6c-2.458.922-7.062-1.7-9.085,2.691s1.023,12.857,4.5,15.8,9.451,1.9,13.135.622c4.3-1.5,9.935-5.829,8.14-13.093-1.57-6.355-5.046-11.265-10.55-9.75-3.352.922-2.111,2.224-6.137,3.734" transform="translate(-313.238 -99.768)" fill="#d34d46"/>
        <path id="Path_439" data-name="Path 439" d="M409.357,114.926a17.256,17.256,0,0,1,3.913,7.942c1.8,7.264-3.837,11.6-8.14,13.093-2.827.984-7,1.823-10.365.831.167.169.336.326.505.47,3.474,2.94,9.451,1.9,13.135.622,4.3-1.5,9.935-5.829,8.14-13.093-1.222-4.946-3.6-9.017-7.189-9.864" transform="translate(-346.729 -100.942)" fill="#ad3e3b"/>
        <g id="Group_16164" data-name="Group 16164" transform="translate(46.067 20.045)" opacity="0.27">
          <g id="Group_16163" data-name="Group 16163">
            <g id="Group_16162" data-name="Group 16162" clip-path="url(#clip-path-6)">
              <path id="Path_440" data-name="Path 440" d="M378.965,167.325a5.873,5.873,0,0,0-.186,3.557,3.537,3.537,0,0,0,.983,1.832,1.808,1.808,0,0,0,1.954.355.955.955,0,0,0,.4-.353,1.442,1.442,0,0,0,.13-.74,7.3,7.3,0,0,1,.574-3.494c.269-.5.652-.938.9-1.449a1.678,1.678,0,0,0,.035-1.631,2.342,2.342,0,0,0-2.538-.515,4.353,4.353,0,0,0-2.256,2.439" transform="translate(-378.59 -164.734)" fill="#fff"/>
            </g>
          </g>
        </g>
        <g id="Group_16167" data-name="Group 16167" transform="translate(48.484 29.687)" opacity="0.27">
          <g id="Group_16166" data-name="Group 16166">
            <g id="Group_16165" data-name="Group 16165" clip-path="url(#clip-path-7)">
              <path id="Path_441" data-name="Path 441" d="M399.087,244.028a1.029,1.029,0,0,0-.588,1.27,1.422,1.422,0,0,0,1.163.905.861.861,0,0,0,.762-.2.877.877,0,0,0,.19-.552,1.552,1.552,0,0,0-.3-1.035,1.1,1.1,0,0,0-.961-.432Z" transform="translate(-398.452 -243.975)" fill="#fff"/>
            </g>
          </g>
        </g>
        <path id="Path_442" data-name="Path 442" d="M426.558,79.126a29.175,29.175,0,0,1-.59-4.925,22.706,22.706,0,0,1,1.012-4.608l1.322.251a10.48,10.48,0,0,0-1.312,4.111,42.026,42.026,0,0,0,.271,5Z" transform="translate(-374.132 -61.126)" fill="#60443e"/>
        <path id="Path_443" data-name="Path 443" d="M679.637,53.3a25.362,25.362,0,0,0,2.666-3.388,19.74,19.74,0,0,0,1.334-3.878l-1.094-.412a9.11,9.11,0,0,1-.886,3.645,36.528,36.528,0,0,1-2.465,3.589Z" transform="translate(-596.547 -40.075)" fill="#60443e"/>
        <path id="Path_444" data-name="Path 444" d="M653.585,9.2s.166-3.5-1.452-5.38A18.111,18.111,0,0,0,647.519,0s-.925,3.7.545,5.967,5.035,4.05,5.035,4.05Z" transform="translate(-568.476 -0.001)" fill="#436b49"/>
        <g id="Group_16170" data-name="Group 16170" transform="translate(80.191 2.158)" opacity="0.27">
          <g id="Group_16169" data-name="Group 16169">
            <g id="Group_16168" data-name="Group 16168" clip-path="url(#clip-path-8)">
              <path id="Path_445" data-name="Path 445" d="M662.092,21.044a.24.24,0,0,1-.054.141.254.254,0,0,1-.2.048,1.1,1.1,0,0,1-.667-.373,4.445,4.445,0,0,1-.443-.627,6.877,6.877,0,0,0-1.178-1.369,2.059,2.059,0,0,1-.437-.467c-.326-.564.327-.723.787-.65a1.443,1.443,0,0,1,.913.653c.617.757,1.415,1.7,1.283,2.644" transform="translate(-659.021 -17.731)" fill="#fff"/>
            </g>
          </g>
        </g>
        <path id="Path_446" data-name="Path 446" d="M516.484,110.785c-5.374-2.081-7.33-9.647-5.361-13.567,3.048-6.068,7.922-3.132,10.3-6.049s5.659-8.458,10.265-6.287c5.009,2.361,4.081,4.7,1.911,9.759-3.171,7.386,1.822,7.71-2.013,14-2.567,4.208-9.586,4.281-15.1,2.146" transform="translate(-448.271 -74.121)" fill="#add14a"/>
        <path id="Path_447" data-name="Path 447" d="M545.225,101.983c2.01-4.682,2.953-7.037-.895-9.234.3,1.581-.51,3.524-1.686,6.265-3.171,7.386,1.822,7.71-2.013,14-2.567,4.208-9.586,4.281-15.1,2.146a8.052,8.052,0,0,1-1.919-1.068,9.045,9.045,0,0,0,4.5,4.038c5.513,2.135,12.532,2.062,15.1-2.146,3.836-6.288-1.158-6.612,2.013-14" transform="translate(-459.899 -81.463)" fill="#9ab240"/>
        <g id="Group_16173" data-name="Group 16173" transform="translate(65.225 19.227)" opacity="0.27">
          <g id="Group_16172" data-name="Group 16172">
            <g id="Group_16171" data-name="Group 16171" clip-path="url(#clip-path-9)">
              <path id="Path_448" data-name="Path 448" d="M536.471,161.718a2.376,2.376,0,0,0-.215,2.352,2.218,2.218,0,0,0,2.472.856,5.506,5.506,0,0,0,2.333-1.514,10.138,10.138,0,0,1,2.156-1.792c1.106-.587,2.74-1.185,1.965-2.747-.473-.953-1.22-.931-2.153-.792-2.1.312-5.437,1.811-6.558,3.637" transform="translate(-536.03 -158.011)" fill="#fff"/>
            </g>
          </g>
        </g>
        <g id="Group_16176" data-name="Group 16176" transform="translate(75.156 14.342)" opacity="0.27">
          <g id="Group_16175" data-name="Group 16175">
            <g id="Group_16174" data-name="Group 16174" clip-path="url(#clip-path-10)">
              <path id="Path_449" data-name="Path 449" d="M617.929,120.406a1.173,1.173,0,0,0-.127,1.333,1.091,1.091,0,0,0,1.479.039,5.684,5.684,0,0,0,1.019-1.28c.55-.748,2.162-2.193.453-2.592-1.411-.33-2.174,1.57-2.824,2.5" transform="translate(-617.643 -117.868)" fill="#fff"/>
            </g>
          </g>
        </g>
        <path id="Path_450" data-name="Path 450" d="M305.976,224.677c.277.053,15.191,5.208,22.873,4.973,12.419-.381,26.387-8.813,26.387-8.813l3.2,1.794s-1.5,10.8-11.107,15.938-15.735,5.679-26.614,2.533a28.717,28.717,0,0,1-16.838-13.673Z" transform="translate(-266.896 -193.965)" fill="#e5ca2e"/>
        <path id="Path_451" data-name="Path 451" d="M358.147,235.276a22.167,22.167,0,0,1-10.285,12.717c-9.6,5.138-15.735,5.679-26.614,2.533a28.746,28.746,0,0,1-16.024-12.252l-1.453,1.9a28.717,28.717,0,0,0,16.838,13.673c10.879,3.146,17.012,2.6,26.614-2.533s11.107-15.938,11.107-15.938Z" transform="translate(-266.807 -206.647)" fill="#e0a32b"/>
        <path id="Path_452" data-name="Path 452" d="M725.985,180.1l3.383-5.643,2.676.515-2.864,6.923Z" transform="translate(-637.646 -153.231)" fill="#e5ca2e"/>
        <path id="Path_453" data-name="Path 453" d="M742.782,153.777a6.911,6.911,0,0,0-1.887,2.215l5.15,2.581,1.083-2.645Z" transform="translate(-650.742 -135.065)" fill="#e5ca2e"/>
        <path id="Path_454" data-name="Path 454" d="M303.872,255.15l2.1-2.753,2.209,2-2.7,1.273Z" transform="translate(-266.897 -221.684)" fill="#60443e"/>
        <path id="Path_455" data-name="Path 455" d="M751.816,160.023a2.191,2.191,0,0,0,.6.478c.521.32,1.042.641,1.579.934.353.192.841.354,1.113.058a.634.634,0,0,0,.022-.738,1.735,1.735,0,0,0-.586-.523,7.912,7.912,0,0,0-2.1-1.205c-.614-.117-1.092.4-.626,1" transform="translate(-660.17 -139.66)" fill="#fff431"/>
        <path id="Path_456" data-name="Path 456" d="M355.083,274.128a77.106,77.106,0,0,0,11.61,4.023,30.772,30.772,0,0,0,12.2.65,2.3,2.3,0,0,0,1.016-.351.843.843,0,0,0,.335-.95,1.172,1.172,0,0,0-.937-.552,19.941,19.941,0,0,0-4.131-.1,56.045,56.045,0,0,1-16.767-2.549c-.715-.2-1.439-.5-2.159-.659-.243-.055-.358-.171-.628-.1-.079.021-.746.5-.539.582" transform="translate(-311.841 -240.24)" fill="#fff431"/>
        <path id="Path_457" data-name="Path 457" d="M580.833,269.769a1,1,0,0,0,.863.452,2.84,2.84,0,0,0,.99-.222,57.793,57.793,0,0,0,6.271-2.671,3.961,3.961,0,0,0,1.276-.868.758.758,0,0,0,.2-.37c.049-.322-.252-.6-.562-.7a2.853,2.853,0,0,0-1.909.3l-6.511,2.65a.826.826,0,0,0-.363.229,1.5,1.5,0,0,0-.255,1.205" transform="translate(-510.108 -233.03)" fill="#fff431"/>
        <path id="Path_458" data-name="Path 458" d="M748.828,181.283s.45-.628-.354,1.837-1.262,4.1-1.262,4.1.189,0,.1,1.1.059,1.3.059,1.3l.455-1.791,2.415-5.837Z" transform="translate(-656.29 -159.161)" fill="#e0a32b"/>
        <path id="Path_459" data-name="Path 459" d="M779.9,171.232l-.459-.8.738-2.246.8.4Z" transform="translate(-684.6 -147.724)" fill="#e0a32b"/>
        <path id="Path_460" data-name="Path 460" d="M218.707,199.209a6.164,6.164,0,0,1-1.224-2.472,7.156,7.156,0,0,1-.316-2.308,4.388,4.388,0,0,1,1.976-3.475,3.61,3.61,0,0,1,3.919.072,5.609,5.609,0,0,1,1.848,3.263c.453,1.748.6,3.806-.589,5.168-1.42,1.632-4.244,1.288-5.614-.249" transform="translate(-190.735 -167.243)" fill="#e2cc6d"/>
        <path id="Path_461" data-name="Path 461" d="M234.159,196.406a5.608,5.608,0,0,0-1.848-3.263,3.087,3.087,0,0,0-.564-.321,7.575,7.575,0,0,1,.951,2.312c.453,1.748.6,3.806-.589,5.169a3.746,3.746,0,0,1-4.475.611,4.232,4.232,0,0,0,.323.413c1.369,1.537,4.194,1.881,5.614.249,1.185-1.363,1.042-3.42.589-5.169" transform="translate(-199.934 -169.359)" fill="#c9b563"/>
        <path id="Path_462" data-name="Path 462" d="M245.745,217.777a15.571,15.571,0,0,1,2.6,4.943c.129.5.161,1.143-.269,1.437a1.376,1.376,0,0,1-.563.181c-.426.071-1.969.575-2.8,0,0,0,.348-.749.445-1.072a11.885,11.885,0,0,0,.391-2.827c.027-.558.516-2.219.194-2.663" transform="translate(-214.937 -191.278)" fill="#b4f279"/>
        <path id="Path_463" data-name="Path 463" d="M244.871,204.024q.191-1.27.343-2.545c.038-.319.074-.639.082-.96a10.917,10.917,0,0,0-.526-3.1,11.245,11.245,0,0,1,.724,4.251,25.536,25.536,0,0,1-.475,4.308.856.856,0,0,1-.181.461c-.1.108-.508.255-.6.072-.07-.134.217-.6.265-.745a10.325,10.325,0,0,0,.373-1.744" transform="translate(-214.505 -173.4)" fill="#af9f58"/>
        <path id="Path_464" data-name="Path 464" d="M255.592,222.278a2.305,2.305,0,0,1,.006.881c.226-.077.306-.355.318-.593a5.1,5.1,0,0,0-.626-2.306,12.055,12.055,0,0,0-.73-1.444c-.234-.374-.507-.721-.762-1.08-.232-.328-.394-.7-.613-1.027a1.2,1.2,0,0,0,.327.726c.245.358.477.725.694,1.1a12.109,12.109,0,0,1,1.052,2.338,9.218,9.218,0,0,1,.334,1.4" transform="translate(-222.376 -190.339)" fill="#af9f58"/>
        <g id="Group_16179" data-name="Group 16179" transform="translate(27.665 24.006)" opacity="0.41">
          <g id="Group_16178" data-name="Group 16178">
            <g id="Group_16177" data-name="Group 16177" clip-path="url(#clip-path-11)">
              <path id="Path_465" data-name="Path 465" d="M227.693,198.19a3.033,3.033,0,0,0-.34,1.416,1.361,1.361,0,0,0,.076.559.566.566,0,0,0,.411.356.636.636,0,0,0,.631-.514,4.571,4.571,0,0,0,.06-.886,2.079,2.079,0,0,1,.56-1.265c.339-.357.023-.663-.392-.55a1.911,1.911,0,0,0-1.006.883" transform="translate(-227.352 -197.283)" fill="#fff"/>
            </g>
          </g>
        </g>
        <path id="Path_466" data-name="Path 466" d="M349.556,353.645a6.828,6.828,0,0,0-2.4-1.147,8.729,8.729,0,0,0-2.287-.4,4.685,4.685,0,0,0-3.57,1.375,2.469,2.469,0,0,0-.131,3.172,6.028,6.028,0,0,0,3.161,1.7c1.721.478,3.767.725,5.188-.146a2.776,2.776,0,0,0,.042-4.554" transform="translate(-299.198 -309.25)" fill="#e2cc6d"/>
        <path id="Path_467" data-name="Path 467" d="M345.925,367.8a6.027,6.027,0,0,1-3.161-1.7,2.425,2.425,0,0,1-.291-.477,8.64,8.64,0,0,0,2.258.916c1.721.478,3.767.725,5.188-.146a2.618,2.618,0,0,0,.841-3.578,4.215,4.215,0,0,1,.4.288,2.776,2.776,0,0,1-.042,4.554c-1.421.871-3.467.624-5.188.146" transform="translate(-300.8 -318.667)" fill="#c9b563"/>
        <path id="Path_468" data-name="Path 468" d="M367.8,377.828a17.071,17.071,0,0,0,4.8,2.421c.5.137,1.133.2,1.448-.126a.974.974,0,0,0,.21-.443c.092-.34.676-1.555.146-2.266,0,0-.766.233-1.093.291a14.514,14.514,0,0,1-2.841.136c-.558-.014-2.241.275-2.668-.013" transform="translate(-323.049 -331.49)" fill="#b4f279"/>
        <path id="Path_469" data-name="Path 469" d="M354.3,376.414q-1.277.073-2.557.115c-.32.01-.642.019-.963.005a13.254,13.254,0,0,1-3.063-.623,13.641,13.641,0,0,0,4.2.857,31.332,31.332,0,0,0,4.323-.109.979.979,0,0,0,.469-.117c.113-.078.28-.395.1-.484-.13-.065-.612.137-.757.167a12.451,12.451,0,0,1-1.759.19" transform="translate(-305.411 -330.17)" fill="#af9f58"/>
        <path id="Path_470" data-name="Path 470" d="M372.169,383.06a2.843,2.843,0,0,0,.879.061c-.089.178-.37.224-.609.219a6.054,6.054,0,0,1-2.269-.653,13.315,13.315,0,0,1-1.4-.683c-.361-.213-.693-.456-1.039-.685-.315-.208-.679-.364-.994-.561a1.346,1.346,0,0,1,.708.311c.345.221.7.432,1.063.631a13.656,13.656,0,0,0,2.279,1,11.079,11.079,0,0,0,1.384.359" transform="translate(-322.111 -334.428)" fill="#af9f58"/>
        <g id="Group_16182" data-name="Group 16182" transform="translate(42.35 43.782)" opacity="0.41">
          <g id="Group_16181" data-name="Group 16181">
            <g id="Group_16180" data-name="Group 16180" clip-path="url(#clip-path-12)">
              <path id="Path_471" data-name="Path 471" d="M349,359.994a3.62,3.62,0,0,1,1.431-.184,1.658,1.658,0,0,1,.554.1.5.5,0,0,1,.334.355c.029.24-.256.431-.545.477a5.626,5.626,0,0,1-.887-.008,2.334,2.334,0,0,0-1.292.372c-.373.251-.663-.024-.528-.352a1.7,1.7,0,0,1,.934-.757" transform="translate(-348.037 -359.805)" fill="#fff"/>
            </g>
          </g>
        </g>
        <path id="Path_472" data-name="Path 472" d="M136.893,303.643a6.165,6.165,0,0,1,2.553-1.044,7.157,7.157,0,0,1,2.325-.151,4.388,4.388,0,0,1,3.325,2.219,3.61,3.61,0,0,1-.351,3.9,5.608,5.608,0,0,1-3.387,1.61c-1.776.327-3.839.323-5.113-.956-1.527-1.533-.982-4.326.649-5.582" transform="translate(-118.874 -265.61)" fill="#e2cc6d"/>
        <path id="Path_473" data-name="Path 473" d="M141.328,317.393a5.609,5.609,0,0,0,3.387-1.61,3.092,3.092,0,0,0,.36-.54,7.577,7.577,0,0,1-2.374.783c-1.776.327-3.839.323-5.113-.957a3.746,3.746,0,0,1-.289-4.507,4.222,4.222,0,0,0-.435.293c-1.631,1.256-2.176,4.049-.649,5.581,1.275,1.28,3.337,1.284,5.113.957" transform="translate(-118.848 -272.772)" fill="#c9b563"/>
        <path id="Path_474" data-name="Path 474" d="M141.943,328.21a15.57,15.57,0,0,1-5.116,2.244c-.512.093-1.152.079-1.415-.371a1.375,1.375,0,0,1-.141-.574c-.04-.43-.433-2.005.2-2.8,0,0,.722.4,1.038.521a11.879,11.879,0,0,0,2.792.592c.555.067,2.176.673,2.643.384" transform="translate(-118.674 -286.958)" fill="#b4f279"/>
        <path id="Path_475" data-name="Path 475" d="M139.36,327.044q1.253.281,2.514.524c.316.061.632.12.952.151a10.913,10.913,0,0,0,3.126-.3,11.243,11.243,0,0,1-4.292.419,25.538,25.538,0,0,1-4.263-.782.857.857,0,0,1-.446-.214c-.1-.112-.218-.525-.028-.608.138-.061.585.26.725.318a10.33,10.33,0,0,0,1.713.5" transform="translate(-120.173 -286.527)" fill="#af9f58"/>
        <path id="Path_476" data-name="Path 476" d="M138.885,341.063a2.306,2.306,0,0,1-.879-.057c.061.231.332.33.569.36a5.1,5.1,0,0,0,2.345-.46,12.052,12.052,0,0,0,1.492-.625c.39-.206.755-.454,1.132-.683.344-.208.727-.343,1.068-.538a1.2,1.2,0,0,0-.748.275c-.375.218-.757.424-1.148.613a12.113,12.113,0,0,1-2.407.882,9.216,9.216,0,0,1-1.424.232" transform="translate(-121.213 -297.797)" fill="#af9f58"/>
        <g id="Group_16185" data-name="Group 16185" transform="translate(22.706 38.117)" opacity="0.41">
          <g id="Group_16184" data-name="Group 16184">
            <g id="Group_16183" data-name="Group 16183" clip-path="url(#clip-path-13)">
              <path id="Path_477" data-name="Path 477" d="M188.948,313.708a3.034,3.034,0,0,0-1.389-.44,1.364,1.364,0,0,0-.563.036.565.565,0,0,0-.385.384.635.635,0,0,0,.467.666,4.566,4.566,0,0,0,.879.123,2.079,2.079,0,0,1,1.222.649c.331.363.659.07.576-.351a1.911,1.911,0,0,0-.809-1.067" transform="translate(-186.602 -313.256)" fill="#fff"/>
            </g>
          </g>
        </g>
        <path id="Path_478" data-name="Path 478" d="M213.31,324.03a8.83,8.83,0,0,1,6.363.685,3.516,3.516,0,0,1,1.669,1.551,2.894,2.894,0,0,1-1.148,3.346,6.719,6.719,0,0,1-3.637,1.013,21.555,21.555,0,0,1-8.833-1.417c-.361-.139,1.745-2.951,1.912-3.107a8.813,8.813,0,0,1,3.674-2.07" transform="translate(-182.412 -284.333)" fill="#d89552"/>
        <path id="Path_479" data-name="Path 479" d="M221.039,326.072a3.514,3.514,0,0,0-1.669-1.551,8.83,8.83,0,0,0-6.363-.685,8.583,8.583,0,0,0-1.54.589,13.048,13.048,0,0,1,6.356.319c-2.751-.166-5.372,1.1-7.783,2.433,3.144-1.131,6.6-1.858,9.813-.927a36.2,36.2,0,0,0-8.72,1.2q3.942-.209,7.892-.181a7.3,7.3,0,0,1-1.92.633q-2.035.45-4.108.7a19.453,19.453,0,0,0,5.493-.05,12.155,12.155,0,0,1-2.509.7,21.487,21.487,0,0,1-4.674.481,10.292,10.292,0,0,1-3.922-.837c-.012.069,0,.116.035.131a21.555,21.555,0,0,0,8.833,1.417,6.719,6.719,0,0,0,3.637-1.013,2.894,2.894,0,0,0,1.148-3.346" transform="translate(-182.146 -284.163)" fill="#ba7f49"/>
        <path id="Path_480" data-name="Path 480" d="M57.028,225.9a8.643,8.643,0,0,1-.464-2.535,5.442,5.442,0,0,1,2.553-4.3,8.894,8.894,0,0,1,4.968-1.288,13.111,13.111,0,0,1,2.705.307,4.868,4.868,0,0,1,2.495,1.193,3.034,3.034,0,0,1,.615,3.2,2.428,2.428,0,0,1-1.338,1.362,3.631,3.631,0,0,1-2.078-.026,6.245,6.245,0,0,0-2.079-.284,1.717,1.717,0,0,0-1.551,1.215c-.1.495.11,1.04-.107,1.5a1.774,1.774,0,0,1-.772.65,3.5,3.5,0,0,1-4.946-.988" transform="translate(-49.681 -191.278)" fill="#fff797"/>
        <path id="Path_481" data-name="Path 481" d="M209.3,264.056a7.315,7.315,0,0,1,.157-2.174,4.6,4.6,0,0,1,3-2.983,7.523,7.523,0,0,1,4.341,0,11.1,11.1,0,0,1,2.15.824,4.119,4.119,0,0,1,1.79,1.505,2.566,2.566,0,0,1-.174,2.752,2.053,2.053,0,0,1-1.384.832,3.07,3.07,0,0,1-1.7-.461,5.283,5.283,0,0,0-1.643-.673,1.452,1.452,0,0,0-1.528.667c-.185.385-.13.875-.4,1.2a1.5,1.5,0,0,1-.77.369,2.961,2.961,0,0,1-3.841-1.857" transform="translate(-183.82 -227.113)" fill="#fff797"/>
        <path id="Path_482" data-name="Path 482" d="M107.25,240.568a8.83,8.83,0,0,1,5.764-2.781,3.515,3.515,0,0,1,2.237.435,2.894,2.894,0,0,1,.793,3.447,6.72,6.72,0,0,1-2.553,2.782,21.555,21.555,0,0,1-8.248,3.465c-.38.072-.078-3.428-.019-3.648a8.812,8.812,0,0,1,2.025-3.7" transform="translate(-92.272 -208.837)" fill="#d89552"/>
        <path id="Path_483" data-name="Path 483" d="M115.529,238.222a3.515,3.515,0,0,0-2.237-.435,8.83,8.83,0,0,0-5.764,2.781,8.586,8.586,0,0,0-1,1.313,13.051,13.051,0,0,1,5.565-3.087c-2.424,1.313-3.981,3.77-5.322,6.178,2.072-2.621,4.625-5.067,7.841-5.972a36.2,36.2,0,0,0-6.77,5.624q3.236-2.261,6.6-4.324a7.3,7.3,0,0,1-1.3,1.552q-1.49,1.457-3.12,2.761a19.456,19.456,0,0,0,4.637-2.945,12.155,12.155,0,0,1-1.762,1.916,21.5,21.5,0,0,1-3.714,2.878,10.291,10.291,0,0,1-3.772,1.361c.026.065.059.1.1.092a21.557,21.557,0,0,0,8.248-3.465,6.719,6.719,0,0,0,2.553-2.782,2.893,2.893,0,0,0-.793-3.447" transform="translate(-92.595 -208.837)" fill="#ba7f49"/>
        <path id="Path_484" data-name="Path 484" d="M220.335,275.619a1.865,1.865,0,0,1-1.2,1.8,2.628,2.628,0,0,1-1.739.1c-.356-.1-.685-.281-1.031-.414a2.284,2.284,0,0,0-2.541.373,7.385,7.385,0,0,0-.488.779,2.491,2.491,0,0,1-4.047.183l0,0c0,.183.007.366.012.549a2.961,2.961,0,0,0,3.841,1.857,1.5,1.5,0,0,0,.77-.369c.274-.327.219-.818.4-1.2a1.452,1.452,0,0,1,1.528-.667,5.282,5.282,0,0,1,1.643.673,3.07,3.07,0,0,0,1.7.461,2.053,2.053,0,0,0,1.384-.832,2.566,2.566,0,0,0,.174-2.752,2.776,2.776,0,0,0-.407-.539" transform="translate(-183.822 -242.081)" fill="#f4e38e"/>
        <g id="Group_16188" data-name="Group 16188" transform="translate(26.976 32.211)" opacity="0.41">
          <g id="Group_16187" data-name="Group 16187">
            <g id="Group_16186" data-name="Group 16186" clip-path="url(#clip-path-14)">
              <path id="Path_485" data-name="Path 485" d="M223.141,265.13a3.234,3.234,0,0,0-1.291,1.484,1.272,1.272,0,0,0-.123.855.568.568,0,0,0,.67.417c.262-.091.367-.4.47-.653a2.471,2.471,0,0,1,1.537-1.5,9.909,9.909,0,0,0,.984-.218c.181-.071.37-.236.321-.425-.2-.75-2.179-.187-2.568.042" transform="translate(-221.694 -264.712)" fill="#fff"/>
            </g>
          </g>
        </g>
        <g id="Group_16191" data-name="Group 16191" transform="translate(8.464 27.655)" opacity="0.41">
          <g id="Group_16190" data-name="Group 16190">
            <g id="Group_16189" data-name="Group 16189" clip-path="url(#clip-path-15)">
              <path id="Path_486" data-name="Path 486" d="M69.571,231.138a1.7,1.7,0,0,0,.648,1.276.94.94,0,0,0,1.3-.207,1.79,1.79,0,0,0-.023-1.269,2.6,2.6,0,0,1,.442-2.28c.452-.5,1.181-.747,1.5-1.344a7.619,7.619,0,0,0-.786-.038,2.552,2.552,0,0,0-.821.261,4.325,4.325,0,0,0-1.1.78,3.57,3.57,0,0,0-1.164,2.822" transform="translate(-69.559 -227.275)" fill="#fff"/>
            </g>
          </g>
        </g>
      </g>
    </g>
  </g>
</svg>
