<svg xmlns="http://www.w3.org/2000/svg" xmlns:xlink="http://www.w3.org/1999/xlink" width="31.23" height="25.414" viewBox="0 0 31.23 25.414">
  <defs>
    <clipPath id="clip-path">
      <rect id="Rectangle_1180" data-name="Rectangle 1180" width="31.23" height="25.414" transform="translate(0 0.001)" fill="none"/>
    </clipPath>
  </defs>
  <g id="Group_19247" data-name="Group 19247" transform="translate(0 0)">
    <g id="Group_19246" data-name="Group 19246" clip-path="url(#clip-path)">
      <path id="Path_4809" data-name="Path 4809" d="M31.229,12.684v.732c-.045.133-.09.265-.134.4a2.375,2.375,0,0,1-2.245,1.66l-13.234,0V9.281q4.757,0,9.514-.01c.339,0,.494.078.516.431a8.743,8.743,0,0,0,.162.934c.138,0,.267,0,.4,0,.965.011,1.934-.026,2.894.048a2.305,2.305,0,0,1,2.053,1.809,1.487,1.487,0,0,0,.078.19" fill="#333"/>
      <path id="Path_4810" data-name="Path 4810" d="M15.617,9.281v6.191L2.444,15.467a2.382,2.382,0,0,1-2.37-2.005A1.744,1.744,0,0,0,0,13.233v-.366c.046-.165.09-.329.138-.494a2.333,2.333,0,0,1,2.214-1.689q1.386-.018,2.774,0c.247,0,.348-.091.377-.321.035-.272.091-.54.132-.81.027-.186.1-.306.314-.272a.963.963,0,0,0,.152,0l9.516,0" fill="#191919"/>
      <path id="Path_4811" data-name="Path 4811" d="M25.189,7.346H15.616V2.49a2.65,2.65,0,0,0,1.467-.52c.534-.367,1.015-.811,1.536-1.2A3.56,3.56,0,0,1,22.073.222a3.245,3.245,0,0,1,1.885,1.843A13.4,13.4,0,0,1,24.8,5.134c.125.626.233,1.255.347,1.883.018.1.023.2.038.329" fill="#333"/>
      <path id="Path_4812" data-name="Path 4812" d="M15.617,2.49V7.346H6.044c.089-.487.158-.946.26-1.4.255-1.135.475-2.281.8-3.4A3.261,3.261,0,0,1,8.986.318a3.533,3.533,0,0,1,3.74.568c.455.357.9.735,1.363,1.075a2.5,2.5,0,0,0,1.528.529" fill="#191919"/>
      <path id="Path_4813" data-name="Path 4813" d="M22.062,25.334a4.5,4.5,0,0,1-5.207-3.567c-.068-.407-.072-.826-.108-1.284a5.489,5.489,0,0,0-1.13-.149V18.543a5.811,5.811,0,0,1,1.426.153.322.322,0,0,0,.419-.161,4.45,4.45,0,0,1,2.923-2.02,4.489,4.489,0,1,1,1.677,8.819" fill="#333"/>
      <path id="Path_4814" data-name="Path 4814" d="M15.617,18.543v1.791a4.843,4.843,0,0,0-1,.08c-.209.038-.185.182-.18.322A4.4,4.4,0,0,1,14.02,22.8,4.467,4.467,0,1,1,9.339,16.5a4.365,4.365,0,0,1,4.379,2,.4.4,0,0,0,.488.212,7.131,7.131,0,0,1,1.411-.166" fill="#191919"/>
    </g>
  </g>
</svg>
