<svg xmlns="http://www.w3.org/2000/svg" width="35.677" height="31.42" viewBox="0 0 35.677 31.42">
  <path id="Icon_map-food" data-name="Icon map-food" d="M35.2,10.911,32.37,33.12H22.8L19.979,10.8H31.662l2.309-7.975,1.309.395-2.215,7.675,2.139.017ZM18.626,23.76s.358-2.88-4.6-2.88h-7.9c-4.955,0-4.6,2.88-4.6,2.88H18.626ZM1.515,30.24s-.351,2.88,4.6,2.88h7.9c4.962,0,4.6-2.88,4.6-2.88H1.515ZM17.884,28.8A1.656,1.656,0,0,0,19.352,27a1.654,1.654,0,0,0-1.468-1.8H2.189A1.657,1.657,0,0,0,.72,27a1.659,1.659,0,0,0,1.469,1.8h15.7Z" transform="translate(-0.22 -2.2)" fill="none" stroke="gray" stroke-width="1"/>
</svg>
